<?xml version="1.0" standalone="no"?>
<!DOCTYPE svg PUBLIC "-//W3C//DTD SVG 1.1//EN" "http://www.w3.org/Graphics/SVG/1.1/DTD/svg11.dtd" >
<svg xmlns="http://www.w3.org/2000/svg" xmlns:xlink="http://www.w3.org/1999/xlink" version="1.1">
<metadata>
Created by FontForge 20170731 at Sun Dec 20 01:36:36 2020
 By Aleksey,,,
Copyright (c) 2004 Linotype Library GmbH, www.linotype.com. All rights reserved. This software may not be reproduced, used, displayed, modified, disclosed or transferred without the express written approval of Linotype Library GmbH. Avenir is a trademark of Heidelberger Druckmaschinen AG, exclusively licensed through Linotype Library GmbH, and may be registered in certain jurisdictions. This typeface is original artwork of Adrian Frutiger. The design may be protected in certain jurisdictions.
</metadata>
<defs>
<font id="AvenirNextLTPro-BoldCn" horiz-adv-x="561" >
  <font-face 
    font-family="AvenirNext LT Pro MediumCn"
    font-weight="700"
    font-stretch="normal"
    units-per-em="2048"
    panose-1="2 11 8 6 2 2 2 2 2 4"
    ascent="1548"
    descent="-500"
    x-height="1071"
    cap-height="1450"
    bbox="-246 -512 1923 1974"
    underline-thickness="102"
    underline-position="-307"
    unicode-range="U+000D-FB02"
  />
<missing-glyph horiz-adv-x="1048" 
d="M455 240h114v137h-114v-137zM461 479h94q0 107 12 148q11 38 88 106q75 69 102 123t27 123q0 120 -72 194t-182 74q-115 0 -189 -69.5t-87 -210.5l102 -17q11 100 56 147.5t112 47.5q64 0 110 -50.5t46 -123.5q0 -41 -19.5 -75.5t-82.5 -94.5q-67 -67 -95 -121
q-26 -51 -26 -166zM946 102h-844v1264h844v-1264zM1049 1470h-1049v-1470h1049v1470z" />
    <glyph glyph-name="IJ" unicode="IJ" horiz-adv-x="1501" 
d="M459 0h-330v1450h330v-1450zM1378 457q0 -234 -103.5 -362t-316.5 -128q-149 0 -256.5 86.5t-140.5 227.5l266 118q13 -54 42.5 -88.5t72.5 -34.5q64 0 87.5 51.5t23.5 157.5v965h325v-993z" />
    <glyph glyph-name="ij" unicode="ij" horiz-adv-x="1112" 
d="M444 0h-323v1071h323v-1071zM459 1362q0 -79 -50 -132.5t-126 -53.5q-77 0 -127 53.5t-50 132.5q0 78 50 133t127 55t126.5 -55t49.5 -133zM991 -72q0 -420 -358 -420q-77 0 -144 13l17 280q27 -10 57 -10q60 0 81.5 41.5t21.5 124.5v1114h325v-1143zM1006 1362
q0 -79 -50.5 -132.5t-126.5 -53.5q-77 0 -126.5 53.5t-49.5 132.5q0 78 49.5 133t126.5 55t127 -55t50 -133z" />
    <glyph glyph-name="napostrophe" unicode="&#x22;n" horiz-adv-x="1257" 
d="M279 1071h313v-151h4q28 81 97.5 135.5t164.5 54.5q71 0 123 -25.5t82.5 -66t49 -102t24.5 -122.5t6 -139v-655h-322v657q0 170 -96 170q-58 0 -91.5 -53.5t-33.5 -142.5v-631h-321v1071zM313 1450l-127 -383h-215l103 383h239z" />
    <glyph glyph-name="fi" unicode="fi" horiz-adv-x="1177" 
d="M647 1583l-16 -260q-30 10 -66 10q-114 0 -114 -174v-88h163v-250h-161v-821h-314v821h-127v250h127v90q0 73 11.5 135.5t38.5 119t69 96.5t106.5 63.5t147.5 23.5q73 0 135 -16zM1057 0h-324v1071h324v-1071zM1071 1362q0 -79 -50 -132.5t-126 -53.5q-77 0 -126.5 53.5
t-49.5 132.5q0 78 49.5 133t126.5 55t126.5 -55t49.5 -133z" />
    <glyph glyph-name="fl" unicode="fl" horiz-adv-x="1193" 
d="M647 1583l-16 -260q-30 10 -66 10q-114 0 -114 -174v-88h163v-250h-161v-821h-314v821h-127v250h127v90q0 73 11.5 135.5t38.5 119t69 96.5t106.5 63.5t147.5 23.5q73 0 135 -16zM1067 0h-328v1548h328v-1548z" />
    <glyph glyph-name=".notdef" horiz-adv-x="1048" 
d="M455 240h114v137h-114v-137zM461 479h94q0 107 12 148q11 38 88 106q75 69 102 123t27 123q0 120 -72 194t-182 74q-115 0 -189 -69.5t-87 -210.5l102 -17q11 100 56 147.5t112 47.5q64 0 110 -50.5t46 -123.5q0 -41 -19.5 -75.5t-82.5 -94.5q-67 -67 -95 -121
q-26 -51 -26 -166zM946 102h-844v1264h844v-1264zM1049 1470h-1049v-1470h1049v1470z" />
    <glyph glyph-name=".null" horiz-adv-x="409" 
 />
    <glyph glyph-name=".null" horiz-adv-x="409" 
 />
    <glyph glyph-name="nonmarkingreturn" horiz-adv-x="682" 
 />
    <glyph glyph-name="CR" unicode="&#xd;" horiz-adv-x="0" 
 />
    <glyph glyph-name="space" unicode=" " horiz-adv-x="409" 
 />
    <glyph glyph-name="exclam" unicode="!" horiz-adv-x="671" 
d="M496 494h-318v956h318v-956zM510 166q0 -78 -49 -131t-125 -53q-74 0 -123 53.5t-49 130.5q0 76 49 131t123 55q75 0 124.5 -54.5t49.5 -131.5z" />
    <glyph glyph-name="quotedbl" unicode="&#x22;" horiz-adv-x="804" 
d="M662 901h-209v549h209v-549zM352 901h-211v549h211v-549z" />
    <glyph glyph-name="numbersign" unicode="#" horiz-adv-x="878" 
d="M815 834h-145l-19 -216h105v-202h-125l-41 -416h-170l41 416h-103l-41 -416h-172l41 416h-125v202h146l22 216h-127v202h146l39 414h172l-39 -414h102l41 414h170l-41 -414h123v-202zM502 834h-105l-18 -216h102z" />
    <glyph glyph-name="dollar" unicode="$" horiz-adv-x="1075" 
d="M471 1444v166h127v-154q210 -9 330 -139l-162 -230q-77 87 -180 87q-57 0 -96 -36t-39 -108q0 -32 10 -56t34 -45.5t51 -38t75 -40.5q45 -22 80 -42.5t77 -56.5t69.5 -76t46.5 -99.5t19 -129.5q0 -181 -91.5 -294t-235.5 -144v-176h-127v166q-111 4 -208.5 48t-160.5 108
l160 235q45 -48 104.5 -76t118.5 -28t97 38.5t38 102.5q0 63 -43 104t-141 88q-63 32 -107 63.5t-85 78t-61.5 111t-20.5 147.5q0 92 26 168t71.5 127t102 84t121.5 47z" />
    <glyph glyph-name="percent" unicode="%" horiz-adv-x="1421" 
d="M1378 352q0 -169 -79.5 -276t-215.5 -107q-134 0 -213 107t-79 276q0 170 79 277.5t213 107.5q136 0 215.5 -107.5t79.5 -277.5zM1180 354q0 89 -24 144t-73 55q-45 0 -69.5 -56t-24.5 -143t24.5 -142.5t69.5 -55.5q49 0 73 54.5t24 143.5zM635 1087q0 -169 -79.5 -275.5
t-215.5 -106.5q-134 0 -213.5 106.5t-79.5 275.5q0 171 79.5 279.5t213.5 108.5q135 0 215 -108.5t80 -279.5zM438 1090q0 89 -24.5 143.5t-73.5 54.5q-46 0 -70 -55t-24 -143q0 -86 24.5 -142.5t69.5 -56.5q49 0 73.5 56t24.5 143zM1102 1452l-619 -1495l-153 55l620 1499z
" />
    <glyph glyph-name="ampersand" unicode="&#x26;" horiz-adv-x="1243" 
d="M1233 0h-365l-84 121q-44 -68 -124 -110t-187 -42q-191 0 -301.5 114.5t-110.5 322.5q0 140 64.5 241t175.5 160q-104 139 -104 303q0 175 109.5 278t277.5 103q160 0 259 -95t99 -263q0 -127 -71.5 -218.5t-192.5 -166.5l121 -168l100 215h309l-233 -437zM676 1114
q0 61 -23.5 100t-66.5 39q-46 0 -73.5 -42t-27.5 -101q0 -102 70 -188q121 79 121 192zM629 336l-187 268q-32 -17 -59 -66t-27 -112q0 -85 39 -135.5t105 -50.5q48 0 80.5 28.5t48.5 67.5z" />
    <glyph glyph-name="quotesingle" unicode="'" horiz-adv-x="491" 
d="M350 901h-209v549h209v-549z" />
    <glyph glyph-name="parenleft" unicode="(" horiz-adv-x="577" 
d="M494 -268l-199 -90q-118 197 -182 447t-64 501t64 501t182 447l199 -90q-104 -183 -161 -407t-57 -451t57 -451t161 -407z" />
    <glyph glyph-name="parenright" unicode=")" horiz-adv-x="577" 
d="M528 590q0 -252 -63.5 -502t-181.5 -446l-199 90q104 183 160.5 406.5t56.5 451.5t-56.5 451.5t-160.5 406.5l199 90q118 -196 181.5 -446t63.5 -502z" />
    <glyph glyph-name="asterisk" unicode="*" horiz-adv-x="970" 
d="M918 1063l-248 -78l155 -215l-182 -133l-158 221l-153 -213l-182 131l159 211l-252 84l74 205l246 -86v260h225v-260l248 80z" />
    <glyph glyph-name="plus" unicode="+" horiz-adv-x="1363" 
d="M1251 492h-434v-429h-266v429h-436v258h434v428h266v-428h436v-258z" />
    <glyph glyph-name="comma" unicode="," horiz-adv-x="552" 
d="M459 342l-166 -584h-238l123 584h281z" />
    <glyph glyph-name="hyphen" unicode="-" horiz-adv-x="507" 
d="M451 444h-394v244h394v-244z" />
    <glyph glyph-name="period" unicode="." horiz-adv-x="552" 
d="M451 166q0 -77 -50.5 -130.5t-124.5 -53.5q-76 0 -125 53t-49 131q0 77 49.5 131.5t124.5 54.5q74 0 124.5 -55t50.5 -131z" />
    <glyph glyph-name="slash" unicode="/" horiz-adv-x="598" 
d="M580 1513l-398 -1591l-172 37l400 1593z" />
    <glyph glyph-name="zero" unicode="0" horiz-adv-x="1075" 
d="M1014 725q0 -75 -5.5 -145.5t-20.5 -147.5t-38 -142.5t-60.5 -126t-86 -102.5t-116.5 -67t-150 -25t-150 25t-116.5 67t-86 102.5t-60.5 126t-37.5 142.5t-20 147.5t-5.5 145.5t5.5 145.5t20 147.5t37.5 142.5t60.5 126t86 102.5t116.5 67t150 25t150 -25t116.5 -67
t86 -102.5t60.5 -126t38 -142.5t20.5 -147.5t5.5 -145.5zM686 725q0 467 -149 467q-46 0 -77.5 -44.5t-46.5 -120t-20.5 -147.5t-5.5 -155q0 -467 150 -467q149 0 149 467z" />
    <glyph glyph-name="one" unicode="1" horiz-adv-x="1075" 
d="M778 0h-321v1069l-217 -164l-146 254l398 291h286v-1450z" />
    <glyph glyph-name="two" unicode="2" horiz-adv-x="1075" 
d="M973 1051q0 -67 -17 -130.5t-52 -122.5t-67 -102t-81 -100l-271 -313h469v-283h-858v291l441 506q114 134 114 250q0 67 -31.5 110t-91.5 43q-61 0 -99.5 -48.5t-45.5 -139.5l-307 28q24 216 148 328.5t315 112.5q199 0 316.5 -116.5t117.5 -313.5z" />
    <glyph glyph-name="three" unicode="3" horiz-adv-x="1075" 
d="M983 424q0 -213 -129 -334t-328 -121q-183 0 -308 93.5t-165 275.5l289 74q16 -74 59 -118t111 -44q74 0 114 55.5t40 132.5q0 91 -53.5 138t-145.5 47h-74v241h82q81 0 125.5 48t44.5 135q0 62 -33.5 107.5t-99.5 45.5q-106 0 -141 -137l-281 70q48 177 168.5 262.5
t276.5 85.5q81 0 155 -25.5t133.5 -73t95 -124t35.5 -171.5q0 -124 -53.5 -211.5t-144.5 -117.5v-6q104 -29 165.5 -119t61.5 -209z" />
    <glyph glyph-name="four" unicode="4" horiz-adv-x="1075" 
d="M1016 291h-148v-291h-290v291h-531v278l424 881h397v-889h148v-270zM584 561v569h-4l-248 -569h252z" />
    <glyph glyph-name="five" unicode="5" horiz-adv-x="1075" 
d="M975 481q0 -246 -129.5 -379t-329.5 -133q-171 0 -292 95t-158 276l280 88q19 -78 59.5 -126t102.5 -48q72 0 111.5 60.5t39.5 156.5q0 107 -60 163t-153 56q-61 0 -144 -18.5t-144 -44.5l30 823h736v-285h-461l-10 -250q54 23 110 23q194 0 303 -123.5t109 -333.5z" />
    <glyph glyph-name="six" unicode="6" horiz-adv-x="1075" 
d="M635 967q124 0 211 -63.5t127.5 -169t40.5 -242.5q0 -244 -131 -383.5t-340 -139.5q-214 0 -347 137t-133 379q0 215 123 445l277 520h375l-281 -496l2 -2q26 15 76 15zM698 496q0 107 -42 173t-115 66q-69 0 -115.5 -68t-46.5 -171q0 -104 45.5 -172t114.5 -68
q71 0 115 68t44 172z" />
    <glyph glyph-name="seven" unicode="7" horiz-adv-x="1075" 
d="M950 1204l-428 -1204h-356l428 1161h-498v289h854v-246z" />
    <glyph glyph-name="eight" unicode="8" horiz-adv-x="1075" 
d="M1016 408q0 -191 -130.5 -315t-346.5 -124q-213 0 -341 124t-128 315q0 138 65.5 229t161.5 125v4q-96 39 -147.5 120t-51.5 197q0 78 28 148.5t81 126.5t139 89.5t193 33.5q108 0 195 -33.5t141 -89.5t83 -127t29 -148q0 -115 -51 -197t-145 -120v-4q97 -37 161 -126.5
t64 -227.5zM674 1061q0 82 -35.5 133t-99.5 51q-63 0 -98 -51t-35 -133q0 -77 37 -133t96 -56q61 0 98 56t37 133zM686 426q0 93 -40.5 151t-106.5 58q-65 0 -106.5 -58.5t-41.5 -150.5q0 -91 40 -149t108 -58q69 0 108 57.5t39 149.5z" />
    <glyph glyph-name="nine" unicode="9" horiz-adv-x="1075" 
d="M444 502q-124 0 -212 63.5t-129.5 167.5t-41.5 238q0 121 37 219t102 161t152 96.5t187 33.5q208 0 340.5 -135t132.5 -375q0 -215 -123 -445l-277 -526h-374l284 514l-2 2q-25 -14 -76 -14zM377 967q0 -107 42.5 -171.5t115.5 -64.5q69 0 115 67t46 169
q0 104 -44.5 168.5t-114.5 64.5q-72 0 -116 -65t-44 -168z" />
    <glyph glyph-name="colon" unicode=":" horiz-adv-x="614" 
d="M477 893q0 -78 -48 -129t-122 -51q-73 0 -120.5 51t-47.5 129q0 73 48 125.5t120 52.5t121 -52.5t49 -125.5zM477 174q0 -77 -48.5 -128.5t-121.5 -51.5t-120.5 51.5t-47.5 128.5q0 74 48 127t120 53t121 -53.5t49 -126.5z" />
    <glyph glyph-name="semicolon" unicode=";" horiz-adv-x="614" 
d="M477 893q0 -78 -48 -129t-122 -51q-73 0 -120.5 51t-47.5 129q0 73 48 125.5t120 52.5t121 -52.5t49 -125.5zM471 342l-166 -584h-233l121 584h278z" />
    <glyph glyph-name="less" unicode="&#x3c;" horiz-adv-x="1363" 
d="M1202 76l-1040 438v211l1040 438v-278l-627 -269l627 -260v-280z" />
    <glyph glyph-name="equal" unicode="=" horiz-adv-x="1363" 
d="M1225 686h-1086v252h1086v-252zM1225 307h-1086v252h1086v-252z" />
    <glyph glyph-name="greater" unicode="&#x3e;" horiz-adv-x="1363" 
d="M1202 514l-1040 -438v280l626 260l-626 269v278l1040 -438v-211z" />
    <glyph glyph-name="question" unicode="?" horiz-adv-x="876" 
d="M573 545v-58h-270v86q0 102 34.5 174.5t106.5 139.5l35 37q72 76 72 141q0 67 -28 104t-85 37q-43 0 -73.5 -28.5t-43.5 -63t-18 -72.5l-268 48q9 65 29.5 122.5t55.5 109t82 88t112 58t143 21.5q182 0 288.5 -106t106.5 -296q0 -63 -13 -115.5t-40.5 -96.5t-58.5 -78
t-78 -76q-51 -46 -70 -85.5t-19 -90.5zM627 166q0 -78 -49 -131t-125 -53t-125 53t-49 131q0 77 49.5 131.5t124.5 54.5t124.5 -54.5t49.5 -131.5z" />
    <glyph glyph-name="at" unicode="@" horiz-adv-x="1310" 
d="M1241 825q0 -218 -87 -357.5t-232 -139.5q-67 0 -108 36.5t-44 110.5h-4q-24 -65 -71 -106t-115 -41q-104 0 -165 98.5t-61 247.5q0 120 33 226t101 176.5t157 70.5q61 0 99.5 -36t48.5 -87h4l14 70h168l-47 -275q-27 -181 -27 -217q0 -80 51 -80q53 0 91 79.5t38 219.5
q0 237 -110 372.5t-301 135.5q-128 0 -227.5 -82t-152 -219t-52.5 -303q0 -267 121.5 -432.5t330.5 -165.5q101 0 195.5 41t163.5 113l90 -138q-183 -180 -465 -180q-190 0 -329.5 98t-210 269t-70.5 393q0 162 43 302.5t120.5 242.5t192 160.5t250.5 58.5
q266 0 416.5 -172.5t150.5 -489.5zM754 803q0 155 -82 155q-37 0 -66.5 -43t-44 -107t-14.5 -134t21 -111t65 -41q29 0 53 28.5t38.5 72.5t22 91t7.5 89z" />
    <glyph glyph-name="A" unicode="A" horiz-adv-x="1112" 
d="M1114 0h-342l-59 264h-326l-59 -264h-328l352 1450h412zM672 518l-117 617h-8l-123 -617h248z" />
    <glyph glyph-name="B" unicode="B" horiz-adv-x="1114" 
d="M1040 414q0 -111 -37.5 -194t-101 -129.5t-136.5 -68.5t-155 -22h-481v1450h434q60 0 114 -8.5t113.5 -33t102 -64.5t70.5 -108.5t28 -158.5q0 -120 -49.5 -199.5t-130.5 -117.5v-4q94 -24 161.5 -112.5t67.5 -229.5zM702 1024q0 80 -44 117t-113 37h-111v-314h113
q66 0 110.5 39.5t44.5 120.5zM729 444q0 90 -52.5 135.5t-123.5 45.5h-119v-353h123q76 0 124 44.5t48 127.5z" />
    <glyph glyph-name="C" unicode="C" horiz-adv-x="1048" 
d="M1034 158q-142 -197 -401 -197q-167 0 -295.5 97t-198 270.5t-69.5 396.5q0 225 70.5 399t198.5 269.5t294 95.5q263 0 399 -182l-176 -238q-79 107 -199 107q-84 0 -144 -60.5t-89 -161t-29 -229.5q0 -127 29 -227.5t90 -162t145 -61.5q62 0 111.5 31t81.5 80z" />
    <glyph glyph-name="D" unicode="D" horiz-adv-x="1208" 
d="M1139 721q0 -223 -63 -382t-199.5 -249t-339.5 -90h-408v1450h408q303 0 452.5 -191.5t149.5 -537.5zM809 721q0 213 -73 327.5t-195 114.5h-80v-876h80q121 0 194.5 114t73.5 320z" />
    <glyph glyph-name="E" unicode="E" horiz-adv-x="917" 
d="M854 0h-725v1450h700v-289h-387v-284h357v-271h-357v-313h412v-293z" />
    <glyph glyph-name="F" unicode="F" horiz-adv-x="884" 
d="M836 1153h-377v-295h346v-280h-344v-578h-332v1450h707v-297z" />
    <glyph glyph-name="G" unicode="G" horiz-adv-x="1146" 
d="M1051 86q-152 -119 -400 -119q-180 0 -312 95.5t-200.5 266.5t-68.5 396t69.5 398.5t197 269.5t294.5 96q139 0 240.5 -48t162.5 -128l-178 -240q-74 103 -201 103q-128 1 -195 -127t-67 -324q0 -127 25.5 -226.5t85 -163t145.5 -63.5q73 0 115 31v270h-156v285h443v-772
z" />
    <glyph glyph-name="H" unicode="H" horiz-adv-x="1247" 
d="M1118 0h-325v606h-338v-606h-326v1450h326v-551h338v551h325v-1450z" />
    <glyph glyph-name="I" unicode="I" horiz-adv-x="587" 
d="M459 0h-330v1450h330v-1450z" />
    <glyph glyph-name="J" unicode="J" horiz-adv-x="911" 
d="M788 457q0 -234 -103.5 -362t-315.5 -128q-149 0 -257 86.5t-141 227.5l267 118q13 -54 42 -88.5t72 -34.5q64 0 87.5 51.5t23.5 157.5v965h325v-993z" />
    <glyph glyph-name="K" unicode="K" horiz-adv-x="1163" 
d="M1153 0h-379l-309 674h-6v-674h-330v1450h330v-604h6l299 604h366l-372 -664z" />
    <glyph glyph-name="L" unicode="L" horiz-adv-x="866" 
d="M848 0h-719v1450h332v-1147h387v-303z" />
    <glyph glyph-name="M" unicode="M" horiz-adv-x="1579" 
d="M1450 0h-322l13 995h-8l-244 -995h-232l-235 995h-6l10 -995h-297v1450h414l233 -934h8l228 934h438v-1450z" />
    <glyph glyph-name="N" unicode="N" horiz-adv-x="1234" 
d="M1106 0h-350l-336 883h-6l8 -883h-293v1450h360l334 -895h6l-6 895h283v-1450z" />
    <glyph glyph-name="O" unicode="O" horiz-adv-x="1253" 
d="M1184 729q0 -348 -150.5 -558t-406.5 -210t-406.5 210t-150.5 558q0 347 149 553.5t408 206.5q170 0 296.5 -94t193.5 -266t67 -400zM848 729q0 128 -24 226.5t-75 157t-122 58.5q-108 0 -164.5 -122t-56.5 -320q0 -199 56.5 -322.5t164.5 -123.5q106 0 163.5 124.5
t57.5 321.5z" />
    <glyph glyph-name="P" unicode="P" horiz-adv-x="1069" 
d="M1024 995q0 -117 -37 -209t-99 -147t-137.5 -83t-158.5 -28h-141v-528h-322v1450h451q65 0 126 -13.5t119.5 -47t102 -84t70 -130.5t26.5 -180zM717 989q0 92 -45 138.5t-117 46.5h-104v-379h104q70 0 116 51.5t46 142.5z" />
    <glyph glyph-name="Q" unicode="Q" horiz-adv-x="1269" 
d="M1253 0h-637q-258 0 -402 193.5t-144 539.5q0 344 151.5 550t405.5 206t403.5 -204t149.5 -537q0 -146 -47 -281.5t-111 -183.5v-9l231 9v-283zM850 733q0 192 -58.5 313t-162.5 121q-107 0 -165 -120t-58 -314q0 -193 58 -314.5t165 -121.5q72 0 123 60t74.5 156.5
t23.5 219.5z" />
    <glyph glyph-name="R" unicode="R" horiz-adv-x="1107" 
d="M1081 0h-346l-194 578h-97v-578h-315v1450h465q213 0 328.5 -111t115.5 -325q0 -148 -61.5 -243t-142.5 -124zM715 995q0 52 -15 89.5t-41 56.5t-53 27t-59 8h-103v-367h97q75 0 124.5 46.5t49.5 139.5z" />
    <glyph glyph-name="S" unicode="S" horiz-adv-x="944" 
d="M899 1343l-170 -241q-77 90 -188 90q-61 0 -102.5 -37.5t-41.5 -112.5q0 -44 22 -77t56 -55t100 -56q49 -24 84.5 -45t80.5 -59t73.5 -79.5t49 -104t20.5 -134.5q0 -114 -37 -205t-99.5 -148.5t-143 -87.5t-171.5 -30q-124 0 -233.5 46.5t-178.5 117.5l168 246
q46 -50 109 -79.5t125 -29.5q61 0 101 40t40 108q0 66 -44.5 109t-147.5 93q-53 26 -91.5 50.5t-78 60.5t-64 77.5t-40 100.5t-15.5 129q0 93 26 171t70 130t102 88.5t120.5 53t127.5 16.5q116 0 211.5 -38.5t159.5 -107.5z" />
    <glyph glyph-name="T" unicode="T" horiz-adv-x="849" 
d="M852 1171h-266v-1171h-322v1171h-266v279h854v-279z" />
    <glyph glyph-name="U" unicode="U" horiz-adv-x="1189" 
d="M1085 537q0 -123 -28 -225t-86 -182t-155 -124.5t-226 -44.5t-224.5 44t-151.5 124t-83 181.5t-27 226.5v913h330v-885q0 -137 36 -213t126 -76t126 76t36 213v885h327v-913z" />
    <glyph glyph-name="V" unicode="V" horiz-adv-x="1118" 
d="M1120 1450l-356 -1450h-416l-350 1450h371l196 -1061h4l195 1061h356z" />
    <glyph glyph-name="W" unicode="W" horiz-adv-x="1636" 
d="M1620 1450l-274 -1450h-349l-178 973h-4l-176 -973h-348l-273 1450h334l150 -1010h8l158 1010h317l164 -1010h6l148 1010h317z" />
    <glyph glyph-name="X" unicode="X" horiz-adv-x="1105" 
d="M1102 0h-354l-201 479l-199 -479h-342l356 760l-327 690h342l178 -440l180 440h336l-330 -688z" />
    <glyph glyph-name="Y" unicode="Y" horiz-adv-x="1007" 
d="M1032 1450l-368 -928v-522h-322v522l-367 928h355l174 -600h4l176 600h348z" />
    <glyph glyph-name="Z" unicode="Z" horiz-adv-x="937" 
d="M868 0h-819v266l445 895h-408v289h782v-260l-442 -893h442v-297z" />
    <glyph glyph-name="bracketleft" unicode="[" horiz-adv-x="577" 
d="M475 -319h-401v1818h401v-203h-160v-1413h160v-202z" />
    <glyph glyph-name="backslash" unicode="\" horiz-adv-x="598" 
d="M10 1513l170 39l400 -1593l-172 -37z" />
    <glyph glyph-name="bracketright" unicode="]" horiz-adv-x="577" 
d="M502 -319h-400v202h160v1413h-160v203h400v-1818z" />
    <glyph glyph-name="asciicircum" unicode="^" horiz-adv-x="1413" 
d="M1262 702h-304l-253 437l-252 -437h-303l436 748h241z" />
    <glyph glyph-name="underscore" unicode="_" horiz-adv-x="1024" 
d="M1024 -336h-1024v182h1024v-182z" />
    <glyph glyph-name="grave" unicode="`" 
d="M0 1481h266l185 -295h-222z" />
    <glyph glyph-name="a" unicode="a" horiz-adv-x="952" 
d="M561 408v59h-57q-178 0 -178 -145q0 -60 26.5 -91.5t67.5 -31.5q70 0 105.5 62.5t35.5 146.5zM575 133h-4q-21 -73 -82.5 -116.5t-154.5 -43.5q-50 0 -96.5 17t-89.5 53t-69 102t-26 154q0 85 26.5 151t69.5 107.5t103.5 68.5t123.5 37.5t134 10.5h41v16q0 74 -35 111
t-96 37q-110 0 -191 -95l-141 197q63 76 160.5 120t195.5 44q211 0 303.5 -124t92.5 -370v-610h-265v133z" />
    <glyph glyph-name="b" unicode="b" horiz-adv-x="1081" 
d="M127 0v1548h319v-585h7q19 60 78 100.5t135 40.5q112 0 193.5 -73t121 -196.5t39.5 -283.5q0 -164 -41 -295t-122.5 -210t-190.5 -79q-165 0 -226 162h-4v-129h-309zM430 537q0 -127 35.5 -209t101.5 -82q70 0 104 81t34 210q0 130 -34 210t-104 80q-66 0 -101.5 -81
t-35.5 -209z" />
    <glyph glyph-name="c" unicode="c" horiz-adv-x="739" 
d="M748 82q-94 -115 -267 -115q-198 0 -309 157t-111 413q0 254 112.5 410.5t311.5 156.5q83 0 150 -30.5t108 -76.5l-129 -249q-41 61 -104 61q-61 0 -100 -73t-39 -199q0 -127 38.5 -199t106.5 -72q62 0 102 64z" />
    <glyph glyph-name="d" unicode="d" horiz-adv-x="1081" 
d="M954 0h-309v129h-4q-57 -162 -225 -162q-109 0 -191 79t-123 210t-41 295q0 160 40 283.5t121.5 196.5t193.5 73q77 0 136.5 -40.5t78.5 -100.5h6v585h317v-1548zM651 537q0 128 -35.5 209t-101.5 81q-69 0 -103 -80.5t-34 -209.5q0 -128 34.5 -209.5t102.5 -81.5
q66 0 101.5 82t35.5 209z" />
    <glyph glyph-name="e" unicode="e" horiz-adv-x="968" 
d="M909 455h-536q2 -92 41.5 -155.5t103.5 -63.5q89 0 137 116l236 -133q-118 -258 -385 -258q-196 0 -320.5 150.5t-124.5 420.5q0 262 121.5 420t315.5 158q108 0 188.5 -42t128.5 -119t71 -177.5t23 -226.5v-90zM614 664q0 92 -27.5 146t-86.5 54t-93 -63.5t-36 -136.5
h243z" />
    <glyph glyph-name="f" unicode="f" horiz-adv-x="612" 
d="M647 1583l-16 -260q-30 10 -66 10q-114 0 -114 -174v-88h163v-250h-161v-821h-314v821h-127v250h127v90q0 73 11.5 135.5t38.5 119t69 96.5t106.5 63.5t147.5 23.5q73 0 135 -16z" />
    <glyph glyph-name="g" unicode="g" horiz-adv-x="1079" 
d="M645 1071h307v-995q0 -568 -479 -568q-110 0 -217 39t-178 101l149 237q104 -94 226 -94q95 0 141.5 66.5t46.5 177.5v88h-4q-23 -57 -83.5 -97t-135.5 -40q-113 0 -195 73.5t-122 197t-40 282.5q0 164 41.5 291t123 200.5t192.5 73.5q164 0 221 -160h6v127zM651 537
q0 129 -35 209.5t-102 80.5q-69 0 -103 -80.5t-34 -209.5q0 -128 34.5 -209.5t102.5 -81.5q66 0 101.5 82t35.5 209z" />
    <glyph glyph-name="h" unicode="h" horiz-adv-x="1101" 
d="M444 631v-631h-321v1548h321v-620h7q27 77 93 129.5t158 52.5q71 0 124 -25.5t83.5 -66t49 -102t24.5 -122.5t6 -139v-655h-321v657q0 170 -99 170q-58 0 -91.5 -53.5t-33.5 -142.5z" />
    <glyph glyph-name="i" unicode="i" horiz-adv-x="565" 
d="M444 0h-323v1071h323v-1071zM459 1362q0 -79 -50 -132.5t-126 -53.5q-77 0 -127 53.5t-50 132.5q0 78 50 133t127 55t126.5 -55t49.5 -133z" />
    <glyph glyph-name="j" unicode="j" horiz-adv-x="567" 
d="M446 -72q0 -420 -358 -420q-76 0 -143 13l16 280q27 -10 57 -10q60 0 81.5 41.5t21.5 124.5v1114h325v-1143zM461 1362q0 -79 -50 -132.5t-126 -53.5q-77 0 -126.5 53.5t-49.5 132.5q0 78 49.5 133t126.5 55t126.5 -55t49.5 -133z" />
    <glyph glyph-name="k" unicode="k" horiz-adv-x="1024" 
d="M1030 0h-371l-208 492h-5v-492h-319v1548h319v-909h5l196 432h377l-270 -491z" />
    <glyph glyph-name="l" unicode="l" horiz-adv-x="581" 
d="M455 0h-328v1548h328v-1548z" />
    <glyph glyph-name="m" unicode="m" horiz-adv-x="1630" 
d="M127 1071h313v-151h4q21 81 89 135.5t165 54.5q198 0 250 -190h4q33 81 102.5 135.5t170.5 54.5q72 0 125 -25.5t84 -66t50 -102.5t25 -122.5t7 -138.5v-655h-318v657q0 170 -98 170q-58 0 -90.5 -53.5t-32.5 -142.5v-631h-315v657q0 170 -97 170q-58 0 -90.5 -53.5
t-32.5 -142.5v-631h-315v1071z" />
    <glyph glyph-name="n" unicode="n" horiz-adv-x="1105" 
d="M127 1071h313v-151h4q28 81 98 135.5t165 54.5q71 0 123 -25.5t82.5 -66t48.5 -102.5t24 -122.5t6 -138.5v-655h-321v657q0 170 -97 170q-58 0 -91 -53.5t-33 -142.5v-631h-322v1071z" />
    <glyph glyph-name="o" unicode="o" horiz-adv-x="1013" 
d="M952 535q0 -167 -52 -296.5t-153.5 -203.5t-238.5 -74q-204 0 -325.5 160t-121.5 414q0 256 120.5 415.5t326.5 159.5q137 0 238.5 -74t153.5 -203.5t52 -297.5zM645 537q0 129 -34 209.5t-103 80.5q-67 0 -101 -80.5t-34 -209.5t34 -210t101 -81q46 0 77.5 39.5
t45.5 103.5t14 148z" />
    <glyph glyph-name="p" unicode="p" horiz-adv-x="1081" 
d="M127 1071h309v-127h6q64 160 224 160q111 0 192.5 -74t121.5 -199t40 -284q0 -164 -40 -294t-121.5 -208t-192.5 -78q-85 0 -141.5 42.5t-78.5 105.5h-4v-607h-315v1563zM430 537q0 -127 35.5 -209t101.5 -82q70 0 104 81t34 210q0 130 -34 210t-104 80q-66 0 -101.5 -81
t-35.5 -209z" />
    <glyph glyph-name="q" unicode="q" horiz-adv-x="1081" 
d="M954 1071v-1563h-315v607h-4q-22 -63 -78 -105.5t-141 -42.5q-110 0 -192 78t-122.5 208t-40.5 294q0 159 40.5 284t122 199t192.5 74q159 0 223 -160h6v127h309zM651 537q0 128 -35.5 209t-101.5 81q-69 0 -103 -80.5t-34 -209.5q0 -128 34.5 -209.5t102.5 -81.5
q66 0 101.5 82t35.5 209z" />
    <glyph glyph-name="r" unicode="r" horiz-adv-x="704" 
d="M127 0v1071h313v-180h2q57 213 215 213q34 0 52 -6l-21 -322q-33 10 -70 10q-76 0 -121.5 -75.5t-45.5 -180.5v-530h-324z" />
    <glyph glyph-name="s" unicode="s" horiz-adv-x="819" 
d="M784 973l-155 -203q-82 82 -174 82q-40 0 -67.5 -25.5t-27.5 -66.5q0 -39 29 -59t113 -46q262 -80 262 -323q0 -76 -23 -138.5t-60 -103.5t-86 -69.5t-99.5 -41t-102.5 -12.5q-106 0 -206 39.5t-171 108.5l160 204q99 -102 203 -102q44 0 70 26.5t26 69.5q0 47 -36 71
t-128 54q-38 12 -69.5 27t-64 41t-55 58t-36.5 80t-14 106q0 87 32.5 157t85.5 111.5t116 63.5t130 22q97 0 187.5 -34.5t160.5 -96.5z" />
    <glyph glyph-name="t" unicode="t" horiz-adv-x="645" 
d="M625 8q-28 -14 -77 -24.5t-97 -10.5q-159 0 -234.5 87.5t-75.5 261.5v499h-129v250h127v258h312v-258h184v-250h-184v-426q0 -78 24 -113.5t78 -35.5q44 0 72 14v-252z" />
    <glyph glyph-name="u" unicode="u" horiz-adv-x="1105" 
d="M979 0h-313v152h-4q-28 -82 -98 -136.5t-165 -54.5q-71 0 -123 25.5t-82.5 66t-48.5 102.5t-24 122.5t-6 138.5v655h321v-655q0 -170 96 -170q58 0 91.5 53.5t33.5 142.5v629h322v-1071z" />
    <glyph glyph-name="v" unicode="v" horiz-adv-x="962" 
d="M956 1071l-280 -1071h-391l-279 1071h338l143 -733h9l135 733h325z" />
    <glyph glyph-name="w" unicode="w" horiz-adv-x="1417" 
d="M1405 1071l-242 -1071h-325l-136 614h-4l-133 -614h-315l-238 1071h328l104 -670h5l122 670h275l127 -670h4l104 670h324z" />
    <glyph glyph-name="x" unicode="x" horiz-adv-x="958" 
d="M-4 0l258 561l-238 510h342l121 -330l127 330h340l-246 -512l263 -559h-351l-133 340l-129 -340h-354z" />
    <glyph glyph-name="y" unicode="y" horiz-adv-x="974" 
d="M969 1071l-303 -1108q-19 -69 -36.5 -119t-43.5 -106.5t-58 -94.5t-74 -70.5t-98.5 -48.5t-124.5 -16q-77 0 -180 21l43 291q42 -17 86 -17q99 0 129 111l17 59l-320 1098h338l154 -715h4l141 715h326z" />
    <glyph glyph-name="z" unicode="z" horiz-adv-x="817" 
d="M764 0h-709v264l359 537h-338v270h684v-254l-361 -547h365v-270z" />
    <glyph glyph-name="braceleft" unicode="{" horiz-adv-x="577" 
d="M481 -319h-131q-127 0 -186.5 88t-59.5 237v303q0 96 -26 132t-78 36v225q52 0 78 36t26 132v304q0 149 59.5 237t186.5 88h131v-203h-59q-90 0 -90 -147v-324q0 -110 -40 -166.5t-87 -66.5v-4q47 -10 87 -67t40 -167v-323q0 -148 90 -148h59v-202z" />
    <glyph glyph-name="bar" unicode="|" horiz-adv-x="493" 
d="M381 -512h-266l-2 2048h268v-2048z" />
    <glyph glyph-name="braceright" unicode="}" horiz-adv-x="577" 
d="M578 477q-52 0 -78.5 -36t-26.5 -132v-303q0 -149 -59.5 -237t-186.5 -88h-133v202h62q90 0 90 148v323q0 110 39.5 167.5t87.5 66.5v4q-48 9 -87.5 66t-39.5 167v324q0 147 -90 147h-62v203h133q127 0 186.5 -88t59.5 -237v-304q0 -96 26.5 -132t78.5 -36v-225z" />
    <glyph glyph-name="asciitilde" unicode="~" horiz-adv-x="1363" 
d="M1214 588v-4q-56 -95 -121.5 -150t-162.5 -55q-62 0 -113 18t-117 60q-66 41 -115.5 59.5t-103.5 18.5q-102 0 -172 -144l-135 213q104 203 281 203q118 0 245 -76q142 -82 203 -82q51 0 91.5 38t86.5 108z" />
    <glyph glyph-name="uni00A0" unicode="&#xa0;" horiz-adv-x="409" 
 />
    <glyph glyph-name="exclamdown" unicode="&#xa1;" horiz-adv-x="671" 
d="M496 604v-956h-318v956h318zM510 932q0 -77 -49.5 -132t-124.5 -55q-74 0 -123 55t-49 132t49 130.5t123 53.5q76 0 125 -53t49 -131z" />
    <glyph glyph-name="cent" unicode="&#xa2;" horiz-adv-x="1075" 
d="M670 1085q126 -16 202 -100l-129 -246q-42 62 -104 62t-100.5 -70.5t-38.5 -193.5q0 -124 38.5 -193.5t106.5 -69.5q63 0 103 64l129 -244q-77 -90 -207 -108v-115h-131v117q-164 26 -258 176q-91 148 -91 373q0 221 92 368.5t257 177.5v111h131v-109z" />
    <glyph glyph-name="sterling" unicode="&#xa3;" horiz-adv-x="1083" 
d="M582 872h231v-239h-231v-346h358v-287h-834v287h156v346h-149v239h149v129q0 69 14 135.5t47 131.5t82 114t124.5 79t168.5 30q96 0 176 -29t127 -71l-149 -244q-40 43 -117 43q-153 0 -153 -217v-101z" />
    <glyph glyph-name="currency" unicode="&#xa4;" horiz-adv-x="1945" 
d="M1460 940q86 -133 86 -307q0 -184 -92 -318l191 -190l-172 -172q-44 42 -199 197q-132 -80 -299 -80q-159 0 -301 84q-135 -135 -203 -201l-172 172l197 197q-86 128 -86 311q0 171 79 301l-190 190q59 57 174 172q33 -33 98.5 -97t96.5 -95q139 84 307 84q169 0 307 -80
l188 188q29 -28 88 -85.5t87 -86.5zM975 903q-113 0 -185.5 -79t-72.5 -191q0 -116 72 -195.5t186 -79.5q115 0 187.5 79.5t72.5 195.5q0 111 -73.5 190.5t-186.5 79.5z" />
    <glyph glyph-name="yen" unicode="&#xa5;" horiz-adv-x="1083" 
d="M805 877h160v-215h-273v-156h273v-215h-273v-291h-321v291h-265v215h265v156h-265v215h166l-247 573h333l183 -547l180 547h328z" />
    <glyph glyph-name="brokenbar" unicode="&#xa6;" horiz-adv-x="493" 
d="M381 641h-268v741h268v-741zM381 -358h-268v741h268v-741z" />
    <glyph glyph-name="section" unicode="&#xa7;" horiz-adv-x="1056" 
d="M692 553q0 53 -36 85.5t-107 66.5l-109 49q-33 -11 -57.5 -40.5t-24.5 -74.5q0 -30 10 -52t33.5 -40t43 -28.5t57.5 -26.5l106 -50q35 8 59.5 37t24.5 74zM434 227l-78 31q-133 53 -194.5 131.5t-61.5 212.5q0 98 48 170t110 105q-102 77 -102 231q0 159 114 270t293 111
q256 0 379 -170l-188 -176q-29 43 -77.5 67.5t-103.5 24.5q-56 0 -93.5 -29.5t-37.5 -89.5q0 -49 32 -74t124 -66q16 -7 25 -11l63 -29q137 -62 203.5 -144t66.5 -214q0 -94 -45 -162.5t-114 -98.5q51 -35 80.5 -95t29.5 -132q0 -85 -25.5 -153t-66.5 -112t-97 -73.5
t-113 -42t-118 -12.5q-127 0 -239.5 43.5t-184.5 126.5l173 207q46 -58 111 -90.5t136 -32.5q56 0 94.5 28t38.5 84q0 55 -39 89t-143 75z" />
    <glyph glyph-name="dieresis" unicode="&#xa8;" 
d="M244 1364q0 -71 -44 -119.5t-108 -48.5q-67 0 -109 48t-42 120q0 70 42.5 119t108.5 49q65 0 108.5 -49t43.5 -119zM621 1364q0 -71 -44 -119.5t-108 -48.5q-67 0 -109.5 48.5t-42.5 119.5q0 70 43 119t109 49q65 0 108.5 -49t43.5 -119z" />
    <glyph glyph-name="copyright" unicode="&#xa9;" horiz-adv-x="1310" 
d="M793 545l118 -158q-83 -129 -225 -129q-153 0 -244.5 129.5t-91.5 343.5q0 215 90.5 345t239.5 130q74 0 133.5 -32t95.5 -89l-112 -161q-34 67 -103 67q-56 0 -90.5 -73t-34.5 -187q0 -112 34.5 -185t90.5 -73q64 0 99 72zM655 -41q-260 0 -420.5 209t-160.5 559
t160.5 559t420.5 209t421 -209t161 -559t-161 -559t-421 -209zM655 1405q-144 0 -252.5 -88t-165.5 -241.5t-57 -348.5t57 -348.5t165.5 -241.5t252.5 -88t252.5 88t165.5 241.5t57 348.5t-57 348.5t-165.5 241.5t-252.5 88z" />
    <glyph glyph-name="ordfeminine" unicode="&#xaa;" horiz-adv-x="655" 
d="M553 811h-158v72h-4q-13 -39 -51 -64.5t-94 -25.5q-71 0 -122.5 49t-51.5 145q0 63 22 109t61 71t84 36t99 11h33v15q0 43 -19.5 59.5t-56.5 16.5q-25 0 -57 -14.5t-56 -35.5l-86 131q42 42 101.5 66.5t117.5 24.5q126 0 182 -77.5t56 -225.5v-363zM373 1049v34h-31
q-98 0 -98 -86q0 -31 15.5 -49t39.5 -18q37 0 55.5 35t18.5 84z" />
    <glyph glyph-name="guillemotleft" unicode="&#xab;" horiz-adv-x="851" 
d="M461 150l-164 -87l-223 474l223 473l164 -86l-180 -387zM778 150l-164 -87l-223 474l223 473l164 -86l-180 -387z" />
    <glyph glyph-name="logicalnot" unicode="&#xac;" horiz-adv-x="1363" 
d="M1241 297h-266v375h-871v252h1137v-627z" />
    <glyph glyph-name="uni00AD" unicode="&#xad;" horiz-adv-x="507" 
d="M451 444h-394v244h394v-244z" />
    <glyph glyph-name="registered" unicode="&#xae;" horiz-adv-x="983" 
d="M469 1061h33q19 0 31 18t12 47q0 21 -12.5 34.5t-30.5 13.5h-33v-113zM709 760h-154l-68 190h-18v-190h-145v545h184q75 0 126.5 -41.5t51.5 -135.5q0 -119 -68 -151zM492 561q-157 0 -253 125t-96 336t96 336t253 125q156 0 252 -125t96 -336t-96 -336t-252 -125z
M492 1430q-130 0 -207.5 -114t-77.5 -294t77.5 -294t207.5 -114t207 114t77 294t-77 294t-207 114z" />
    <glyph glyph-name="macron" unicode="&#xaf;" 
d="M582 1255h-602v158h602v-158z" />
    <glyph glyph-name="degree" unicode="&#xb0;" horiz-adv-x="655" 
d="M590 1147q0 -143 -71.5 -247.5t-190.5 -104.5t-190.5 104.5t-71.5 247.5q0 142 71.5 244t190.5 102t190.5 -102t71.5 -244zM449 1147q0 89 -33 148t-88 59q-56 0 -88.5 -58.5t-32.5 -148.5q0 -94 32.5 -153.5t88.5 -59.5q55 0 88 59.5t33 153.5z" />
    <glyph glyph-name="plusminus" unicode="&#xb1;" horiz-adv-x="1363" 
d="M1262 678h-435v-270h-266v270h-436v260h436v270h266v-270h435v-260zM1262 63h-1137v261h1137v-261z" />
    <glyph glyph-name="twosuperior" unicode="&#xb2;" horiz-adv-x="665" 
d="M627 1198q0 -55 -23 -109t-47 -85t-70 -84l-172 -191h301v-182h-548v190l278 316q72 85 72 143q0 39 -19 64.5t-57 25.5q-36 0 -61 -30t-29 -85l-201 19q17 138 95.5 209t201.5 71q130 0 204.5 -73t74.5 -199z" />
    <glyph glyph-name="threesuperior" unicode="&#xb3;" horiz-adv-x="665" 
d="M627 813q0 -135 -81.5 -211t-207.5 -76q-119 0 -198 60t-105 176l190 47q10 -43 38 -71.5t69 -28.5q44 0 69 31.5t25 78.5q0 57 -33 86t-92 29h-49v160h55q50 0 77.5 29t27.5 81q0 36 -21 63t-61 27q-31 0 -55 -23t-33 -59l-185 48q32 111 110.5 164t174.5 53
q111 0 189.5 -64t78.5 -182q0 -78 -35.5 -133t-93.5 -74v-2q67 -20 106.5 -77.5t39.5 -131.5z" />
    <glyph glyph-name="acute" unicode="&#xb4;" 
d="M561 1481l-229 -295h-221l184 295h266z" />
    <glyph glyph-name="mu" unicode="&#xb5;" horiz-adv-x="1363" 
d="M182 1020h332v-508q0 -32 3 -62t13.5 -66.5t26.5 -63t46 -44.5t69 -18q97 0 141.5 63t44.5 164v535h332v-1020h-318v117h-2q-75 -131 -227 -131q-85 0 -129 41v-490h-332v1483z" />
    <glyph glyph-name="paragraph" unicode="&#xb6;" horiz-adv-x="1265" 
d="M1137 -264h-238v1509h-174v-1509h-238v950q-200 4 -319 106.5t-119 268.5q0 389 500 389h588v-1714z" />
    <glyph glyph-name="periodcentered" unicode="&#xb7;" horiz-adv-x="552" 
d="M451 551q0 -77 -50.5 -130.5t-124.5 -53.5q-76 0 -125 53t-49 131q0 77 49.5 131.5t124.5 54.5q74 0 124.5 -55t50.5 -131z" />
    <glyph glyph-name="cedilla" unicode="&#xb8;" 
d="M526 -285q0 -57 -27 -98t-71.5 -61.5t-88.5 -29.5t-91 -9q-130 0 -225 45l49 127q68 -35 157 -35q99 0 99 65q0 29 -25.5 42.5t-60.5 13.5q-42 0 -90 -19l-64 58l133 186h172l-96 -125q16 4 47 4q33 0 62.5 -7.5t58 -25t45 -51t16.5 -80.5z" />
    <glyph glyph-name="onesuperior" unicode="&#xb9;" horiz-adv-x="665" 
d="M506 543h-217v655l-137 -100l-93 166l246 186h201v-907z" />
    <glyph glyph-name="ordmasculine" unicode="&#xba;" horiz-adv-x="655" 
d="M594 1130q0 -153 -71 -248.5t-195 -95.5q-123 0 -196 96t-73 248q0 155 72.5 251t196.5 96t195 -96t71 -251zM403 1133q0 72 -18.5 117.5t-56.5 45.5t-57 -45.5t-19 -117.5t19 -118t57 -46t56.5 45.5t18.5 118.5z" />
    <glyph glyph-name="guillemotright" unicode="&#xbb;" horiz-adv-x="851" 
d="M391 150l180 387l-180 387l164 86l223 -473l-223 -474zM74 150l180 387l-180 387l164 86l223 -473l-223 -474z" />
    <glyph glyph-name="onequarter" unicode="&#xbc;" horiz-adv-x="1536" 
d="M1473 180h-91v-180h-190v180h-348v180l268 549h270v-553h91v-176zM1196 356v357h-2l-164 -357h166zM1135 1456l-555 -1495l-160 49l553 1499zM506 543h-217v655l-137 -100l-93 166l246 186h201v-907z" />
    <glyph glyph-name="onehalf" unicode="&#xbd;" horiz-adv-x="1536" 
d="M1489 651q0 -42 -10.5 -80t-34 -75t-42 -60.5t-52.5 -62.5l-172 -191h301v-182h-549v190l278 316q72 85 72 143q0 39 -19 64.5t-57 25.5q-37 0 -61.5 -29.5t-28.5 -84.5l-201 18q17 138 95.5 209.5t201.5 71.5q130 0 204.5 -73.5t74.5 -199.5zM1135 1456l-555 -1495
l-160 49l553 1499zM506 543h-217v655l-137 -100l-93 166l246 186h201v-907z" />
    <glyph glyph-name="threequarters" unicode="&#xbe;" horiz-adv-x="1536" 
d="M1473 180h-91v-180h-190v180h-348v180l268 549h270v-553h91v-176zM1196 356v357h-2l-164 -357h166zM627 813q0 -135 -81.5 -211t-207.5 -76q-119 0 -198 60t-105 176l190 47q10 -43 38 -71.5t69 -28.5q44 0 69 31.5t25 78.5q0 57 -33 86t-92 29h-49v160h55q50 0 77.5 29
t27.5 81q0 36 -21 63t-61 27q-31 0 -55 -23t-33 -59l-185 48q32 111 110.5 164t174.5 53q111 0 189.5 -64t78.5 -182q0 -78 -35.5 -133t-93.5 -74v-2q67 -20 106.5 -77.5t39.5 -131.5zM1135 1456l-555 -1495l-160 49l553 1499z" />
    <glyph glyph-name="questiondown" unicode="&#xbf;" horiz-adv-x="876" 
d="M303 553v57h270v-86q0 -102 -34.5 -174t-106.5 -139l-35 -37q-71 -75 -71 -141q0 -142 112 -142q43 0 73.5 28.5t43.5 63t18 72.5l269 -47q-9 -65 -29.5 -122.5t-55.5 -109t-82 -88t-112 -58t-143 -21.5q-182 0 -288.5 105.5t-106.5 295.5q0 121 46.5 201.5t143.5 165.5
q51 46 69.5 85t18.5 91zM250 932q0 78 49 131t125 53t125 -53t49 -131q0 -77 -49.5 -132t-124.5 -55t-124.5 55t-49.5 132z" />
    <glyph glyph-name="Agrave" unicode="&#xc0;" horiz-adv-x="1112" 
d="M1114 0h-342l-59 264h-326l-59 -264h-328l352 1450h412zM672 518l-117 617h-8l-123 -617h248zM283 1860h266l184 -295h-221z" />
    <glyph glyph-name="Aacute" unicode="&#xc1;" horiz-adv-x="1112" 
d="M1114 0h-342l-59 264h-326l-59 -264h-328l352 1450h412zM672 518l-117 617h-8l-123 -617h248zM831 1860l-229 -295h-221l184 295h266z" />
    <glyph glyph-name="Acircumflex" unicode="&#xc2;" horiz-adv-x="1112" 
d="M1114 0h-342l-59 264h-326l-59 -264h-328l352 1450h412zM672 518l-117 617h-8l-123 -617h248zM913 1565h-221l-137 174l-135 -174h-219l235 295h244z" />
    <glyph glyph-name="Atilde" unicode="&#xc3;" horiz-adv-x="1112" 
d="M1114 0h-342l-59 264h-326l-59 -264h-328l352 1450h412zM672 518l-117 617h-8l-123 -617h248zM872 1835q-5 -119 -53 -188.5t-129 -69.5q-66 0 -141 47q-44 28 -66.5 36.5t-48.5 8.5q-58 0 -67 -90h-119q6 116 54 187t128 71q64 0 143 -49q45 -27 68 -36t49 -9
q30 0 45 21t21 71h116z" />
    <glyph glyph-name="Adieresis" unicode="&#xc4;" horiz-adv-x="1112" 
d="M1114 0h-342l-59 264h-326l-59 -264h-328l352 1450h412zM672 518l-117 617h-8l-123 -617h248zM520 1743q0 -71 -43.5 -119.5t-107.5 -48.5q-67 0 -109.5 48.5t-42.5 119.5q0 70 43 119t109 49q65 0 108 -49t43 -119zM897 1743q0 -71 -44 -119.5t-108 -48.5q-67 0 -109 48
t-42 120q0 70 42.5 119t108.5 49q65 0 108.5 -49t43.5 -119z" />
    <glyph glyph-name="Aring" unicode="&#xc5;" horiz-adv-x="1112" 
d="M1114 0h-342l-59 264h-326l-59 -264h-328l352 1450h412zM672 518l-117 617h-8l-123 -617h248zM760 1751q0 -96 -58 -159.5t-151 -63.5q-92 0 -148.5 63t-56.5 160t56.5 160t148.5 63q93 0 151 -63.5t58 -159.5zM662 1751q0 57 -29.5 95t-81.5 38t-79.5 -38t-27.5 -95
t27.5 -95t79.5 -38t81.5 38t29.5 95z" />
    <glyph glyph-name="AE" unicode="&#xc6;" horiz-adv-x="1474" 
d="M1413 0h-702v268h-293l-88 -268h-336l504 1450h893v-289h-379v-284h346v-271h-346v-313h401v-293zM711 526v643h-11l-206 -643h217z" />
    <glyph glyph-name="Ccedilla" unicode="&#xc7;" horiz-adv-x="1048" 
d="M1034 158q-130 -179 -356 -195l-68 -88q16 4 47 4q33 0 63 -7.5t58 -25t45 -51t17 -80.5q0 -57 -27 -98t-71.5 -61.5t-89 -29.5t-91.5 -9q-130 0 -225 45l49 127q68 -35 158 -35q98 0 98 65q0 29 -25.5 42.5t-60.5 13.5q-43 0 -90 -19l-64 58l115 161q-204 47 -325 250.5
t-121 499.5q0 225 70.5 399t198.5 269.5t294 95.5q263 0 399 -182l-176 -238q-79 107 -199 107q-84 0 -144 -60.5t-89 -161t-29 -229.5q0 -127 29 -227.5t90 -162t145 -61.5q62 0 111.5 31t81.5 80z" />
    <glyph glyph-name="Egrave" unicode="&#xc8;" horiz-adv-x="917" 
d="M854 0h-725v1450h700v-289h-387v-284h357v-271h-357v-313h412v-293zM156 1860h266l184 -295h-221z" />
    <glyph glyph-name="Eacute" unicode="&#xc9;" horiz-adv-x="917" 
d="M854 0h-725v1450h700v-289h-387v-284h357v-271h-357v-313h412v-293zM786 1860l-229 -295h-221l184 295h266z" />
    <glyph glyph-name="Ecircumflex" unicode="&#xca;" horiz-adv-x="917" 
d="M854 0h-725v1450h700v-289h-387v-284h357v-271h-357v-313h412v-293zM838 1565h-222l-137 174l-135 -174h-219l235 295h244z" />
    <glyph glyph-name="Edieresis" unicode="&#xcb;" horiz-adv-x="917" 
d="M854 0h-725v1450h700v-289h-387v-284h357v-271h-357v-313h412v-293zM444 1743q0 -71 -43.5 -119.5t-107.5 -48.5q-67 0 -109.5 48.5t-42.5 119.5q0 70 43 119t109 49q65 0 108 -49t43 -119zM821 1743q0 -71 -43.5 -119.5t-107.5 -48.5q-67 0 -109.5 48.5t-42.5 119.5
q0 70 43 119t109 49q65 0 108 -49t43 -119z" />
    <glyph glyph-name="Igrave" unicode="&#xcc;" horiz-adv-x="587" 
d="M459 0h-330v1450h330v-1450zM6 1860h266l185 -295h-221z" />
    <glyph glyph-name="Iacute" unicode="&#xcd;" horiz-adv-x="587" 
d="M459 0h-330v1450h330v-1450zM584 1860l-230 -295h-221l184 295h267z" />
    <glyph glyph-name="Icircumflex" unicode="&#xce;" horiz-adv-x="587" 
d="M459 0h-330v1450h330v-1450zM651 1565h-221l-137 174l-135 -174h-219l235 295h244z" />
    <glyph glyph-name="Idieresis" unicode="&#xcf;" horiz-adv-x="587" 
d="M459 0h-330v1450h330v-1450zM256 1743q0 -71 -44 -119.5t-108 -48.5q-67 0 -109 48t-42 120q0 70 42.5 119t108.5 49q65 0 108.5 -49t43.5 -119zM633 1743q0 -71 -44 -119.5t-108 -48.5q-67 0 -109 48t-42 120q0 70 42.5 119t108.5 49q65 0 108.5 -49t43.5 -119z" />
    <glyph glyph-name="Eth" unicode="&#xd0;" horiz-adv-x="1218" 
d="M129 631h-100v215h100v604h408q303 0 452.5 -191.5t149.5 -537.5q0 -223 -63 -382t-199.5 -249t-339.5 -90h-408v631zM461 846h194v-215h-194v-344h80q121 0 194.5 114t73.5 320q0 213 -73 327.5t-195 114.5h-80v-317z" />
    <glyph glyph-name="Ntilde" unicode="&#xd1;" horiz-adv-x="1234" 
d="M1106 0h-350l-336 883h-6l8 -883h-293v1450h360l334 -895h6l-6 895h283v-1450zM938 1835q-5 -119 -53 -188.5t-129 -69.5q-67 0 -142 47q-44 28 -66 36.5t-48 8.5q-59 0 -68 -90h-119q6 115 54.5 186.5t128.5 71.5q64 0 143 -49q45 -27 68 -36t49 -9q30 0 44.5 21
t20.5 71h117z" />
    <glyph glyph-name="Ograve" unicode="&#xd2;" horiz-adv-x="1253" 
d="M1184 729q0 -348 -150.5 -558t-406.5 -210t-406.5 210t-150.5 558q0 347 149 553.5t408 206.5q170 0 296.5 -94t193.5 -266t67 -400zM848 729q0 128 -24 226.5t-75 157t-122 58.5q-108 0 -164.5 -122t-56.5 -320q0 -199 56.5 -322.5t164.5 -123.5q106 0 163.5 124.5
t57.5 321.5zM309 1860h266l185 -295h-221z" />
    <glyph glyph-name="Oacute" unicode="&#xd3;" horiz-adv-x="1253" 
d="M1184 729q0 -348 -150.5 -558t-406.5 -210t-406.5 210t-150.5 558q0 347 149 553.5t408 206.5q170 0 296.5 -94t193.5 -266t67 -400zM848 729q0 128 -24 226.5t-75 157t-122 58.5q-108 0 -164.5 -122t-56.5 -320q0 -199 56.5 -322.5t164.5 -123.5q106 0 163.5 124.5
t57.5 321.5zM924 1860l-230 -295h-221l184 295h267z" />
    <glyph glyph-name="Ocircumflex" unicode="&#xd4;" horiz-adv-x="1253" 
d="M1184 729q0 -348 -150.5 -558t-406.5 -210t-406.5 210t-150.5 558q0 347 149 553.5t408 206.5q170 0 296.5 -94t193.5 -266t67 -400zM848 729q0 128 -24 226.5t-75 157t-122 58.5q-108 0 -164.5 -122t-56.5 -320q0 -199 56.5 -322.5t164.5 -123.5q106 0 163.5 124.5
t57.5 321.5zM983 1565h-221l-137 174l-136 -174h-219l236 295h244z" />
    <glyph glyph-name="Otilde" unicode="&#xd5;" horiz-adv-x="1253" 
d="M1184 729q0 -348 -150.5 -558t-406.5 -210t-406.5 210t-150.5 558q0 347 149 553.5t408 206.5q170 0 296.5 -94t193.5 -266t67 -400zM848 729q0 128 -24 226.5t-75 157t-122 58.5q-108 0 -164.5 -122t-56.5 -320q0 -199 56.5 -322.5t164.5 -123.5q106 0 163.5 124.5
t57.5 321.5zM940 1835q-5 -119 -53 -188.5t-129 -69.5q-67 0 -142 47q-44 28 -66 36.5t-48 8.5q-59 0 -68 -90h-119q6 115 54.5 186.5t128.5 71.5q64 0 143 -49q45 -27 68 -36t49 -9q30 0 44.5 21t20.5 71h117z" />
    <glyph glyph-name="Odieresis" unicode="&#xd6;" horiz-adv-x="1253" 
d="M1184 729q0 -348 -150.5 -558t-406.5 -210t-406.5 210t-150.5 558q0 347 149 553.5t408 206.5q170 0 296.5 -94t193.5 -266t67 -400zM848 729q0 128 -24 226.5t-75 157t-122 58.5q-108 0 -164.5 -122t-56.5 -320q0 -199 56.5 -322.5t164.5 -123.5q106 0 163.5 124.5
t57.5 321.5zM590 1743q0 -71 -44 -119.5t-108 -48.5q-67 0 -109 48t-42 120q0 70 42.5 119t108.5 49q65 0 108.5 -49t43.5 -119zM967 1743q0 -71 -44 -119.5t-108 -48.5q-67 0 -109 48t-42 120q0 70 42.5 119t108.5 49q65 0 108.5 -49t43.5 -119z" />
    <glyph glyph-name="multiply" unicode="&#xd7;" horiz-adv-x="1363" 
d="M1237 266l-193 -190l-362 354l-360 -354l-191 182l363 358l-365 357l193 186l362 -354l356 352l187 -178l-357 -354z" />
    <glyph glyph-name="Oslash" unicode="&#xd8;" horiz-adv-x="1259" 
d="M1184 729q0 -348 -150.5 -558t-406.5 -210q-150 0 -279 82l-65 -141l-160 73l98 193q-151 208 -151 561q0 347 149 553.5t408 206.5q146 0 270 -78l70 148l157 -72l-98 -195q158 -210 158 -563zM860 729q0 135 -26 236l-332 -650q55 -55 125 -55q76 0 129.5 63t78.5 167
t25 239zM393 729q0 -131 23 -229l325 645q-49 49 -114 49q-114 0 -174 -129t-60 -336z" />
    <glyph glyph-name="Ugrave" unicode="&#xd9;" horiz-adv-x="1189" 
d="M1085 537q0 -123 -28 -225t-86 -182t-155 -124.5t-226 -44.5t-224.5 44t-151.5 124t-83 181.5t-27 226.5v913h330v-885q0 -137 36 -213t126 -76t126 76t36 213v885h327v-913zM303 1860h266l185 -295h-222z" />
    <glyph glyph-name="Uacute" unicode="&#xda;" horiz-adv-x="1189" 
d="M1085 537q0 -123 -28 -225t-86 -182t-155 -124.5t-226 -44.5t-224.5 44t-151.5 124t-83 181.5t-27 226.5v913h330v-885q0 -137 36 -213t126 -76t126 76t36 213v885h327v-913zM907 1860l-229 -295h-221l184 295h266z" />
    <glyph glyph-name="Ucircumflex" unicode="&#xdb;" horiz-adv-x="1189" 
d="M1085 537q0 -123 -28 -225t-86 -182t-155 -124.5t-226 -44.5t-224.5 44t-151.5 124t-83 181.5t-27 226.5v913h330v-885q0 -137 36 -213t126 -76t126 76t36 213v885h327v-913zM954 1565h-221l-137 174l-135 -174h-219l235 295h244z" />
    <glyph glyph-name="Udieresis" unicode="&#xdc;" horiz-adv-x="1189" 
d="M1085 537q0 -123 -28 -225t-86 -182t-155 -124.5t-226 -44.5t-224.5 44t-151.5 124t-83 181.5t-27 226.5v913h330v-885q0 -137 36 -213t126 -76t126 76t36 213v885h327v-913zM561 1743q0 -71 -43.5 -119.5t-107.5 -48.5q-67 0 -109.5 48.5t-42.5 119.5q0 70 43 119
t109 49q65 0 108 -49t43 -119zM938 1743q0 -71 -44 -119.5t-108 -48.5q-67 0 -109 48t-42 120q0 70 42.5 119t108.5 49q65 0 108.5 -49t43.5 -119z" />
    <glyph glyph-name="Yacute" unicode="&#xdd;" horiz-adv-x="1007" 
d="M1032 1450l-368 -928v-522h-322v522l-367 928h355l174 -600h4l176 600h348zM817 1860l-229 -295h-221l184 295h266z" />
    <glyph glyph-name="Thorn" unicode="&#xde;" horiz-adv-x="1114" 
d="M1051 756q0 -98 -25 -176t-67.5 -130t-103 -86.5t-128.5 -49.5t-147 -15h-129v-299h-322v1450h322v-248h135q465 0 465 -446zM737 754q0 178 -190 178h-96v-365h90q90 0 143 45t53 142z" />
    <glyph glyph-name="germandbls" unicode="&#xdf;" horiz-adv-x="1081" 
d="M776 852v-2q111 -25 185.5 -129.5t74.5 -269.5q0 -101 -22 -183.5t-68 -148.5t-125.5 -102.5t-187.5 -36.5q-52 0 -129 16v256q25 -10 65 -10q85 0 126.5 60t41.5 167q0 115 -51.5 176.5t-136.5 61.5h-37v256h35q63 0 103 49.5t40 132.5q0 71 -30.5 117.5t-92.5 46.5
q-41 0 -68.5 -21t-41.5 -60t-19.5 -82t-5.5 -99v-1047h-311v1038q0 117 25 212t76.5 168.5t140 114t208.5 40.5q194 0 299 -111.5t105 -292.5q0 -122 -57.5 -205.5t-141.5 -111.5z" />
    <glyph glyph-name="agrave" unicode="&#xe0;" horiz-adv-x="952" 
d="M561 408v59h-57q-178 0 -178 -145q0 -60 26.5 -91.5t67.5 -31.5q70 0 105.5 62.5t35.5 146.5zM575 133h-4q-21 -73 -82.5 -116.5t-154.5 -43.5q-50 0 -96.5 17t-89.5 53t-69 102t-26 154q0 85 26.5 151t69.5 107.5t103.5 68.5t123.5 37.5t134 10.5h41v16q0 74 -35 111
t-96 37q-110 0 -191 -95l-141 197q63 76 160.5 120t195.5 44q211 0 303.5 -124t92.5 -370v-610h-265v133zM184 1481h267l184 -295h-221z" />
    <glyph glyph-name="aacute" unicode="&#xe1;" horiz-adv-x="952" 
d="M561 408v59h-57q-178 0 -178 -145q0 -60 26.5 -91.5t67.5 -31.5q70 0 105.5 62.5t35.5 146.5zM575 133h-4q-21 -73 -82.5 -116.5t-154.5 -43.5q-50 0 -96.5 17t-89.5 53t-69 102t-26 154q0 85 26.5 151t69.5 107.5t103.5 68.5t123.5 37.5t134 10.5h41v16q0 74 -35 111
t-96 37q-110 0 -191 -95l-141 197q63 76 160.5 120t195.5 44q211 0 303.5 -124t92.5 -370v-610h-265v133zM782 1479l-229 -295h-221l184 295h266z" />
    <glyph glyph-name="acircumflex" unicode="&#xe2;" horiz-adv-x="952" 
d="M561 408v59h-57q-178 0 -178 -145q0 -60 26.5 -91.5t67.5 -31.5q70 0 105.5 62.5t35.5 146.5zM575 133h-4q-21 -73 -82.5 -116.5t-154.5 -43.5q-50 0 -96.5 17t-89.5 53t-69 102t-26 154q0 85 26.5 151t69.5 107.5t103.5 68.5t123.5 37.5t134 10.5h41v16q0 74 -35 111
t-96 37q-110 0 -191 -95l-141 197q63 76 160.5 120t195.5 44q211 0 303.5 -124t92.5 -370v-610h-265v133zM819 1186h-221l-137 174l-135 -174h-220l236 295h244z" />
    <glyph glyph-name="atilde" unicode="&#xe3;" horiz-adv-x="952" 
d="M561 408v59h-57q-178 0 -178 -145q0 -60 26.5 -91.5t67.5 -31.5q70 0 105.5 62.5t35.5 146.5zM575 133h-4q-21 -73 -82.5 -116.5t-154.5 -43.5q-50 0 -96.5 17t-89.5 53t-69 102t-26 154q0 85 26.5 151t69.5 107.5t103.5 68.5t123.5 37.5t134 10.5h41v16q0 74 -35 111
t-96 37q-110 0 -191 -95l-141 197q63 76 160.5 120t195.5 44q211 0 303.5 -124t92.5 -370v-610h-265v133zM778 1456q-5 -119 -53 -188.5t-129 -69.5q-66 0 -141 47q-44 28 -66.5 36.5t-48.5 8.5q-59 0 -68 -90h-118q6 116 53 184q49 74 129 74q64 0 143 -49q45 -27 68 -36
t49 -9q30 0 45 21t21 71h116z" />
    <glyph glyph-name="adieresis" unicode="&#xe4;" horiz-adv-x="952" 
d="M561 408v59h-57q-178 0 -178 -145q0 -60 26.5 -91.5t67.5 -31.5q70 0 105.5 62.5t35.5 146.5zM575 133h-4q-21 -73 -82.5 -116.5t-154.5 -43.5q-50 0 -96.5 17t-89.5 53t-69 102t-26 154q0 85 26.5 151t69.5 107.5t103.5 68.5t123.5 37.5t134 10.5h41v16q0 74 -35 111
t-96 37q-110 0 -191 -95l-141 197q63 76 160.5 120t195.5 44q211 0 303.5 -124t92.5 -370v-610h-265v133zM426 1364q0 -71 -44 -119.5t-108 -48.5q-67 0 -109 48t-42 120q0 70 42.5 119t108.5 49q65 0 108.5 -49t43.5 -119zM803 1364q0 -71 -44 -119.5t-108 -48.5
q-67 0 -109 48t-42 120q0 70 42.5 119t108.5 49q65 0 108.5 -49t43.5 -119z" />
    <glyph glyph-name="aring" unicode="&#xe5;" horiz-adv-x="952" 
d="M561 408v59h-57q-178 0 -178 -145q0 -60 26.5 -91.5t67.5 -31.5q70 0 105.5 62.5t35.5 146.5zM575 133h-4q-21 -73 -82.5 -116.5t-154.5 -43.5q-50 0 -96.5 17t-89.5 53t-69 102t-26 154q0 85 26.5 151t69.5 107.5t103.5 68.5t123.5 37.5t134 10.5h41v16q0 74 -35 111
t-96 37q-110 0 -191 -95l-141 197q63 76 160.5 120t195.5 44q211 0 303.5 -124t92.5 -370v-610h-265v133zM670 1372q0 -96 -58 -159.5t-151 -63.5q-92 0 -148.5 63t-56.5 160t56.5 160t148.5 63q93 0 151 -63.5t58 -159.5zM571 1372q0 57 -29 95t-81 38t-79.5 -38t-27.5 -95
t27.5 -95t79.5 -38t81 38t29 95z" />
    <glyph glyph-name="ae" unicode="&#xe6;" horiz-adv-x="1437" 
d="M444 1110q200 0 273 -147q87 147 270 147q101 0 178 -45t122.5 -124.5t68 -179t22.5 -216.5v-90h-536q2 -92 41.5 -155.5t103.5 -63.5q89 0 137 116l236 -133q-118 -258 -379 -258q-94 0 -172 46t-115 122q-32 -76 -110.5 -122t-196.5 -46q-70 0 -128 18t-105.5 56
t-74 104.5t-26.5 155.5q0 85 26.5 150.5t69.5 106t103.5 66.5t123 36t134.5 10h41v32q0 74 -35 111t-96 37q-111 0 -191 -94l-141 196q63 76 160.5 120t195.5 44zM561 408v47h-57q-40 0 -68.5 -5t-55 -18t-40.5 -41t-14 -69q0 -60 26.5 -91.5t67.5 -31.5q71 0 106 59.5
t35 149.5zM1083 664q0 92 -27.5 146t-86.5 54t-93 -63.5t-36 -136.5h243z" />
    <glyph glyph-name="ccedilla" unicode="&#xe7;" horiz-adv-x="739" 
d="M748 82q-69 -81 -181 -105l-78 -102q16 4 48 4q33 0 62.5 -7.5t58 -25t45 -51t16.5 -80.5q0 -57 -27 -98t-71.5 -61.5t-89 -29.5t-91.5 -9q-130 0 -225 45l49 127q68 -35 158 -35q98 0 98 65q0 29 -25.5 42.5t-60.5 13.5q-43 0 -90 -19l-63 58l114 163
q-159 32 -246.5 182.5t-87.5 377.5q0 254 112.5 410.5t311.5 156.5q83 0 150 -30.5t108 -76.5l-129 -249q-41 61 -104 61q-61 0 -100 -73t-39 -199q0 -127 38.5 -199t106.5 -72q62 0 102 64z" />
    <glyph glyph-name="egrave" unicode="&#xe8;" horiz-adv-x="968" 
d="M909 455h-536q2 -92 41.5 -155.5t103.5 -63.5q89 0 137 116l236 -133q-118 -258 -385 -258q-196 0 -320.5 150.5t-124.5 420.5q0 262 121.5 420t315.5 158q108 0 188.5 -42t128.5 -119t71 -177.5t23 -226.5v-90zM614 664q0 92 -27.5 146t-86.5 54t-93 -63.5t-36 -136.5
h243zM186 1481h267l184 -295h-221z" />
    <glyph glyph-name="eacute" unicode="&#xe9;" horiz-adv-x="968" 
d="M909 455h-536q2 -92 41.5 -155.5t103.5 -63.5q89 0 137 116l236 -133q-118 -258 -385 -258q-196 0 -320.5 150.5t-124.5 420.5q0 262 121.5 420t315.5 158q108 0 188.5 -42t128.5 -119t71 -177.5t23 -226.5v-90zM614 664q0 92 -27.5 146t-86.5 54t-93 -63.5t-36 -136.5
h243zM811 1481l-229 -295h-222l185 295h266z" />
    <glyph glyph-name="ecircumflex" unicode="&#xea;" horiz-adv-x="968" 
d="M909 455h-536q2 -92 41.5 -155.5t103.5 -63.5q89 0 137 116l236 -133q-118 -258 -385 -258q-196 0 -320.5 150.5t-124.5 420.5q0 262 121.5 420t315.5 158q108 0 188.5 -42t128.5 -119t71 -177.5t23 -226.5v-90zM614 664q0 92 -27.5 146t-86.5 54t-93 -63.5t-36 -136.5
h243zM881 1186h-222l-137 174l-135 -174h-219l235 295h244z" />
    <glyph glyph-name="edieresis" unicode="&#xeb;" horiz-adv-x="968" 
d="M909 455h-536q2 -92 41.5 -155.5t103.5 -63.5q89 0 137 116l236 -133q-118 -258 -385 -258q-196 0 -320.5 150.5t-124.5 420.5q0 262 121.5 420t315.5 158q108 0 188.5 -42t128.5 -119t71 -177.5t23 -226.5v-90zM614 664q0 92 -27.5 146t-86.5 54t-93 -63.5t-36 -136.5
h243zM475 1364q0 -71 -43.5 -119.5t-107.5 -48.5q-67 0 -109.5 48.5t-42.5 119.5q0 70 43 119t109 49q65 0 108 -49t43 -119zM852 1364q0 -71 -44 -119.5t-108 -48.5q-67 0 -109 48t-42 120q0 70 42.5 119t108.5 49q65 0 108.5 -49t43.5 -119z" />
    <glyph glyph-name="igrave" unicode="&#xec;" horiz-adv-x="565" 
d="M442 0h-319v1071h319v-1071zM-12 1481h266l184 -295h-221z" />
    <glyph glyph-name="iacute" unicode="&#xed;" horiz-adv-x="565" 
d="M442 0h-319v1071h319v-1071zM578 1481l-230 -295h-221l184 295h267z" />
    <glyph glyph-name="icircumflex" unicode="&#xee;" horiz-adv-x="565" 
d="M442 0h-319v1071h319v-1071zM641 1186h-221l-137 174l-136 -174h-219l236 295h244z" />
    <glyph glyph-name="idieresis" unicode="&#xef;" horiz-adv-x="565" 
d="M442 0h-319v1071h319v-1071zM250 1364q0 -71 -44 -119.5t-108 -48.5q-67 0 -109 48t-42 120q0 70 42.5 119t108.5 49q65 0 108.5 -49t43.5 -119zM627 1364q0 -71 -44 -119.5t-108 -48.5q-67 0 -109 48t-42 120q0 70 42.5 119t108.5 49q65 0 108.5 -49t43.5 -119z" />
    <glyph glyph-name="eth" unicode="&#xf0;" horiz-adv-x="1001" 
d="M938 530q0 -259 -123 -414t-315 -155q-196 0 -317.5 155t-121.5 419q0 239 115 387.5t297 148.5q52 0 86 -24l6 2q-53 109 -133 196l-205 -100l-129 137l211 98q-35 37 -157 127l258 117q122 -105 153 -141l185 88l141 -135l-217 -99q123 -158 194.5 -366.5t71.5 -440.5z
M645 535q0 124 -38 204t-107 80t-105.5 -79.5t-36.5 -204.5q0 -124 36.5 -204.5t105.5 -80.5q70 0 107.5 80.5t37.5 204.5z" />
    <glyph glyph-name="ntilde" unicode="&#xf1;" horiz-adv-x="1105" 
d="M127 1071h313v-151h4q28 81 98 135.5t165 54.5q71 0 123 -25.5t82.5 -66t48.5 -102.5t24 -122.5t6 -138.5v-655h-321v657q0 170 -97 170q-58 0 -91 -53.5t-33 -142.5v-631h-322v1071zM866 1440q-5 -119 -53 -188.5t-129 -69.5q-66 0 -141 47q-44 28 -66.5 36.5t-48.5 8.5
q-59 0 -68 -90h-118q6 116 54 187t128 71q64 0 143 -49q45 -27 68 -36t49 -9q30 0 45 21t21 71h116z" />
    <glyph glyph-name="ograve" unicode="&#xf2;" horiz-adv-x="1013" 
d="M952 535q0 -167 -52 -296.5t-153.5 -203.5t-238.5 -74q-204 0 -325.5 160t-121.5 414q0 256 120.5 415.5t326.5 159.5q137 0 238.5 -74t153.5 -203.5t52 -297.5zM645 537q0 129 -34 209.5t-103 80.5q-67 0 -101 -80.5t-34 -209.5t34 -210t101 -81q46 0 77.5 39.5
t45.5 103.5t14 148zM209 1481h266l184 -295h-221z" />
    <glyph glyph-name="oacute" unicode="&#xf3;" horiz-adv-x="1013" 
d="M952 535q0 -167 -52 -296.5t-153.5 -203.5t-238.5 -74q-204 0 -325.5 160t-121.5 414q0 256 120.5 415.5t326.5 159.5q137 0 238.5 -74t153.5 -203.5t52 -297.5zM645 537q0 129 -34 209.5t-103 80.5q-67 0 -101 -80.5t-34 -209.5t34 -210t101 -81q46 0 77.5 39.5
t45.5 103.5t14 148zM811 1481l-229 -295h-222l185 295h266z" />
    <glyph glyph-name="ocircumflex" unicode="&#xf4;" horiz-adv-x="1013" 
d="M952 535q0 -167 -52 -296.5t-153.5 -203.5t-238.5 -74q-204 0 -325.5 160t-121.5 414q0 256 120.5 415.5t326.5 159.5q137 0 238.5 -74t153.5 -203.5t52 -297.5zM645 537q0 129 -34 209.5t-103 80.5q-67 0 -101 -80.5t-34 -209.5t34 -210t101 -81q46 0 77.5 39.5
t45.5 103.5t14 148zM864 1186h-221l-137 174l-135 -174h-219l235 295h244z" />
    <glyph glyph-name="otilde" unicode="&#xf5;" horiz-adv-x="1013" 
d="M952 535q0 -167 -52 -296.5t-153.5 -203.5t-238.5 -74q-204 0 -325.5 160t-121.5 414q0 256 120.5 415.5t326.5 159.5q137 0 238.5 -74t153.5 -203.5t52 -297.5zM645 537q0 129 -34 209.5t-103 80.5q-67 0 -101 -80.5t-34 -209.5t34 -210t101 -81q46 0 77.5 39.5
t45.5 103.5t14 148zM821 1456q-5 -119 -53 -188.5t-129 -69.5q-66 0 -141 47q-44 28 -66.5 36.5t-48.5 8.5q-59 0 -68 -90h-118q6 116 53 184q49 74 129 74q64 0 143 -49q45 -27 68 -36t49 -9q30 0 45 21t21 71h116z" />
    <glyph glyph-name="odieresis" unicode="&#xf6;" horiz-adv-x="1013" 
d="M952 535q0 -167 -52 -296.5t-153.5 -203.5t-238.5 -74q-204 0 -325.5 160t-121.5 414q0 256 120.5 415.5t326.5 159.5q137 0 238.5 -74t153.5 -203.5t52 -297.5zM645 537q0 129 -34 209.5t-103 80.5q-67 0 -101 -80.5t-34 -209.5t34 -210t101 -81q46 0 77.5 39.5
t45.5 103.5t14 148zM471 1364q0 -71 -44 -119.5t-108 -48.5q-67 0 -109 48t-42 120q0 70 42.5 119t108.5 49q65 0 108.5 -49t43.5 -119zM848 1364q0 -71 -44 -119.5t-108 -48.5q-67 0 -109 48t-42 120q0 70 42.5 119t108.5 49q65 0 108.5 -49t43.5 -119z" />
    <glyph glyph-name="divide" unicode="&#xf7;" horiz-adv-x="1363" 
d="M504 1001q0 70 53 121.5t125 51.5t124 -51t52 -122q0 -72 -52 -123t-124 -51t-125 51t-53 123zM504 240q0 70 53 121t125 51t124 -51t52 -121q0 -71 -52 -122.5t-124 -51.5t-125 52t-53 122zM1200 492h-1038v260h1038v-260z" />
    <glyph glyph-name="oslash" unicode="&#xf8;" horiz-adv-x="1013" 
d="M895 1116l-76 -149q133 -158 133 -432q0 -167 -52 -296.5t-153.5 -203.5t-238.5 -74q-118 0 -207 53l-53 -116l-137 65l75 152q-125 159 -125 420q0 256 120.5 415.5t326.5 159.5q111 0 194 -47l58 117zM668 537q0 72 -13 145l-225 -442q31 -31 78 -31q54 0 91 45
t53 116.5t16 166.5zM352 537q0 -74 8 -123l215 428q-28 22 -67 22q-78 0 -117 -91t-39 -236z" />
    <glyph glyph-name="ugrave" unicode="&#xf9;" horiz-adv-x="1105" 
d="M979 0h-313v152h-4q-28 -82 -98 -136.5t-165 -54.5q-71 0 -123 25.5t-82.5 66t-48.5 102.5t-24 122.5t-6 138.5v655h321v-655q0 -170 96 -170q58 0 91.5 53.5t33.5 142.5v629h322v-1071zM254 1481h266l185 -295h-222z" />
    <glyph glyph-name="uacute" unicode="&#xfa;" horiz-adv-x="1105" 
d="M979 0h-313v152h-4q-28 -82 -98 -136.5t-165 -54.5q-71 0 -123 25.5t-82.5 66t-48.5 102.5t-24 122.5t-6 138.5v655h321v-655q0 -170 96 -170q58 0 91.5 53.5t33.5 142.5v629h322v-1071zM852 1481l-229 -295h-222l185 295h266z" />
    <glyph glyph-name="ucircumflex" unicode="&#xfb;" horiz-adv-x="1105" 
d="M979 0h-313v152h-4q-28 -82 -98 -136.5t-165 -54.5q-71 0 -123 25.5t-82.5 66t-48.5 102.5t-24 122.5t-6 138.5v655h321v-655q0 -170 96 -170q58 0 91.5 53.5t33.5 142.5v629h322v-1071zM905 1186h-221l-137 174l-135 -174h-219l235 295h244z" />
    <glyph glyph-name="udieresis" unicode="&#xfc;" horiz-adv-x="1105" 
d="M979 0h-313v152h-4q-28 -82 -98 -136.5t-165 -54.5q-71 0 -123 25.5t-82.5 66t-48.5 102.5t-24 122.5t-6 138.5v655h321v-655q0 -170 96 -170q58 0 91.5 53.5t33.5 142.5v629h322v-1071zM512 1364q0 -71 -44 -119.5t-108 -48.5q-67 0 -109 48t-42 120q0 70 42.5 119
t108.5 49q65 0 108.5 -49t43.5 -119zM889 1364q0 -71 -44 -119.5t-108 -48.5q-67 0 -109 48t-42 120q0 70 42.5 119t108.5 49q65 0 108.5 -49t43.5 -119z" />
    <glyph glyph-name="yacute" unicode="&#xfd;" horiz-adv-x="974" 
d="M969 1071l-303 -1108q-19 -69 -36.5 -119t-43.5 -106.5t-58 -94.5t-74 -70.5t-98.5 -48.5t-124.5 -16q-77 0 -180 21l43 291q42 -17 86 -17q99 0 129 111l17 59l-320 1098h338l154 -715h4l141 715h326zM801 1481l-230 -295h-221l185 295h266z" />
    <glyph glyph-name="thorn" unicode="&#xfe;" horiz-adv-x="1081" 
d="M127 1561h309v-617h6q64 160 224 160q111 0 192.5 -74t121.5 -199t40 -284q0 -164 -40 -294t-121.5 -208t-192.5 -78q-85 0 -141.5 42.5t-78.5 105.5h-4v-607h-315v2053zM430 537q0 -127 35.5 -209t101.5 -82q70 0 104 81t34 210q0 130 -34 210t-104 80q-66 0 -101.5 -81
t-35.5 -209z" />
    <glyph glyph-name="ydieresis" unicode="&#xff;" horiz-adv-x="974" 
d="M969 1071l-303 -1108q-19 -69 -36.5 -119t-43.5 -106.5t-58 -94.5t-74 -70.5t-98.5 -48.5t-124.5 -16q-77 0 -180 21l43 291q42 -17 86 -17q99 0 129 111l17 59l-320 1098h338l154 -715h4l141 715h326zM463 1364q0 -71 -44 -119.5t-108 -48.5q-67 0 -109 48t-42 120
q0 70 42.5 119t108.5 49q65 0 108.5 -49t43.5 -119zM840 1364q0 -71 -44 -119.5t-108 -48.5q-67 0 -109 48t-42 120q0 70 42.5 119t108.5 49q65 0 108.5 -49t43.5 -119z" />
    <glyph glyph-name="Amacron" unicode="&#x100;" horiz-adv-x="1112" 
d="M1114 0h-342l-59 264h-326l-59 -264h-328l352 1450h412zM672 518l-117 617h-8l-123 -617h248zM850 1634h-602v158h602v-158z" />
    <glyph glyph-name="amacron" unicode="&#x101;" horiz-adv-x="952" 
d="M561 408v59h-57q-178 0 -178 -145q0 -60 26.5 -91.5t67.5 -31.5q70 0 105.5 62.5t35.5 146.5zM575 133h-4q-21 -73 -82.5 -116.5t-154.5 -43.5q-50 0 -96.5 17t-89.5 53t-69 102t-26 154q0 85 26.5 151t69.5 107.5t103.5 68.5t123.5 37.5t134 10.5h41v16q0 74 -35 111
t-96 37q-110 0 -191 -95l-141 197q63 76 160.5 120t195.5 44q211 0 303.5 -124t92.5 -370v-610h-265v133zM764 1255h-602v158h602v-158z" />
    <glyph glyph-name="Abreve" unicode="&#x102;" horiz-adv-x="1112" 
d="M1114 0h-342l-59 264h-326l-59 -264h-328l352 1450h412zM672 518l-117 617h-8l-123 -617h248zM854 1853q-6 -78 -32.5 -134.5t-69.5 -88.5t-93.5 -46.5t-111.5 -14.5q-58 0 -108 14.5t-93 46t-70 88.5t-32 135h159q7 -59 49 -86.5t95 -27.5q131 0 147 114h160z" />
    <glyph glyph-name="abreve" unicode="&#x103;" horiz-adv-x="952" 
d="M561 408v59h-57q-178 0 -178 -145q0 -60 26.5 -91.5t67.5 -31.5q70 0 105.5 62.5t35.5 146.5zM575 133h-4q-21 -73 -82.5 -116.5t-154.5 -43.5q-50 0 -96.5 17t-89.5 53t-69 102t-26 154q0 85 26.5 151t69.5 107.5t103.5 68.5t123.5 37.5t134 10.5h41v16q0 74 -35 111
t-96 37q-110 0 -191 -95l-141 197q63 76 160.5 120t195.5 44q211 0 303.5 -124t92.5 -370v-610h-265v133zM780 1475q-6 -78 -32.5 -135t-69.5 -88.5t-93.5 -46.5t-111.5 -15q-58 0 -108 15t-93 46.5t-70 88.5t-32 135h160q7 -59 48.5 -87t94.5 -28q58 0 99 27t49 88h159z
" />
    <glyph glyph-name="Aogonek" unicode="&#x104;" horiz-adv-x="1112" 
d="M1016 -401q-108 -82 -228 -82q-39 0 -74.5 9.5t-67.5 30t-51.5 58.5t-19.5 88q0 45 17 86.5t51 81t62.5 66t74.5 63.5h-8l-59 264h-326l-59 -264h-328l352 1450h412l350 -1450h-135q-110 -94 -153.5 -147.5t-43.5 -98.5q0 -63 60 -63q58 0 110 43zM672 518l-117 617h-8
l-123 -617h248z" />
    <glyph glyph-name="aogonek" unicode="&#x105;" horiz-adv-x="952" 
d="M575 133h-4q-21 -73 -82.5 -116.5t-154.5 -43.5q-50 0 -96.5 17t-89.5 53t-69 102t-26 154q0 85 26.5 151t69.5 107.5t103.5 68.5t123.5 37.5t134 10.5h41v16q0 74 -35 111t-96 37q-110 0 -191 -95l-141 197q63 76 160.5 120t195.5 44q211 0 303.5 -124t92.5 -370v-610
h-56q-108 -91 -151 -145.5t-43 -100.5q0 -63 59 -63t111 43l63 -135q-108 -82 -227 -82q-39 0 -74.5 9.5t-67.5 30t-51.5 58.5t-19.5 88q0 45 17 87t50 81t62 66t74 63h-11v133zM561 408v59h-57q-178 0 -178 -145q0 -60 26.5 -91.5t67.5 -31.5q70 0 105.5 62.5t35.5 146.5z
" />
    <glyph glyph-name="Cacute" unicode="&#x106;" horiz-adv-x="1048" 
d="M1034 158q-142 -197 -401 -197q-167 0 -295.5 97t-198 270.5t-69.5 396.5q0 225 70.5 399t198.5 269.5t294 95.5q263 0 399 -182l-176 -238q-79 107 -199 107q-84 0 -144 -60.5t-89 -161t-29 -229.5q0 -127 29 -227.5t90 -162t145 -61.5q62 0 111.5 31t81.5 80zM915 1860
l-229 -295h-221l184 295h266z" />
    <glyph glyph-name="cacute" unicode="&#x107;" horiz-adv-x="739" 
d="M748 82q-94 -115 -267 -115q-198 0 -309 157t-111 413q0 254 112.5 410.5t311.5 156.5q83 0 150 -30.5t108 -76.5l-129 -249q-41 61 -104 61q-61 0 -100 -73t-39 -199q0 -127 38.5 -199t106.5 -72q62 0 102 64zM768 1481l-229 -295h-222l185 295h266z" />
    <glyph glyph-name="Ccircumflex" unicode="&#x108;" horiz-adv-x="1048" 
d="M1034 158q-142 -197 -401 -197q-167 0 -295.5 97t-198 270.5t-69.5 396.5q0 225 70.5 399t198.5 269.5t294 95.5q263 0 399 -182l-176 -238q-79 107 -199 107q-84 0 -144 -60.5t-89 -161t-29 -229.5q0 -127 29 -227.5t90 -162t145 -61.5q62 0 111.5 31t81.5 80zM999 1565
h-221l-137 174l-135 -174h-219l235 295h244z" />
    <glyph glyph-name="ccircumflex" unicode="&#x109;" horiz-adv-x="739" 
d="M748 82q-94 -115 -267 -115q-198 0 -309 157t-111 413q0 254 112.5 410.5t311.5 156.5q83 0 150 -30.5t108 -76.5l-129 -249q-41 61 -104 61q-61 0 -100 -73t-39 -199q0 -127 38.5 -199t106.5 -72q62 0 102 64zM838 1186h-222l-137 174l-135 -174h-219l235 295h244z" />
    <glyph glyph-name="Cdotaccent" unicode="&#x10a;" horiz-adv-x="1048" 
d="M1034 158q-142 -197 -401 -197q-167 0 -295.5 97t-198 270.5t-69.5 396.5q0 225 70.5 399t198.5 269.5t294 95.5q263 0 399 -182l-176 -238q-79 107 -199 107q-84 0 -144 -60.5t-89 -161t-29 -229.5q0 -127 29 -227.5t90 -162t145 -61.5q62 0 111.5 31t81.5 80zM815 1741
q0 -79 -50 -133t-126 -54q-77 0 -126.5 54t-49.5 133q0 78 49.5 133t126.5 55t126.5 -55t49.5 -133z" />
    <glyph glyph-name="cdotaccent" unicode="&#x10b;" horiz-adv-x="739" 
d="M748 82q-94 -115 -267 -115q-198 0 -309 157t-111 413q0 254 112.5 410.5t311.5 156.5q83 0 150 -30.5t108 -76.5l-129 -249q-41 61 -104 61q-61 0 -100 -73t-39 -199q0 -127 38.5 -199t106.5 -72q62 0 102 64zM659 1362q0 -79 -50 -132.5t-126 -53.5q-77 0 -126.5 53.5
t-49.5 132.5q0 78 49.5 133t126.5 55t126.5 -55t49.5 -133z" />
    <glyph glyph-name="Ccaron" unicode="&#x10c;" horiz-adv-x="1048" 
d="M1034 158q-142 -197 -401 -197q-167 0 -295.5 97t-198 270.5t-69.5 396.5q0 225 70.5 399t198.5 269.5t294 95.5q263 0 399 -182l-176 -238q-79 107 -199 107q-84 0 -144 -60.5t-89 -161t-29 -229.5q0 -127 29 -227.5t90 -162t145 -61.5q62 0 111.5 31t81.5 80zM283 1860
h221l137 -174l135 174h219l-235 -295h-244z" />
    <glyph glyph-name="ccaron" unicode="&#x10d;" horiz-adv-x="739" 
d="M748 82q-94 -115 -267 -115q-198 0 -309 157t-111 413q0 254 112.5 410.5t311.5 156.5q83 0 150 -30.5t108 -76.5l-129 -249q-41 61 -104 61q-61 0 -100 -73t-39 -199q0 -127 38.5 -199t106.5 -72q62 0 102 64zM127 1481h221l137 -174l136 174h219l-236 -295h-244z" />
    <glyph glyph-name="Dcaron" unicode="&#x10e;" horiz-adv-x="1208" 
d="M1139 721q0 -223 -63 -382t-199.5 -249t-339.5 -90h-408v1450h408q303 0 452.5 -191.5t149.5 -537.5zM809 721q0 213 -73 327.5t-195 114.5h-80v-876h80q121 0 194.5 114t73.5 320zM203 1860h221l137 -174l135 174h219l-235 -295h-244z" />
    <glyph glyph-name="dcaron" unicode="&#x10f;" horiz-adv-x="1333" 
d="M954 0h-309v129h-4q-57 -162 -225 -162q-109 0 -191 79t-123 210t-41 295q0 160 40 283.5t121.5 196.5t193.5 73q77 0 136.5 -40.5t78.5 -100.5h6v585h317v-1548zM651 537q0 128 -35.5 209t-101.5 81q-69 0 -103 -80.5t-34 -209.5q0 -128 34.5 -209.5t102.5 -81.5
q66 0 101.5 82t35.5 209zM1370 1450l-127 -383h-215l102 383h240z" />
    <glyph glyph-name="Dcroat" unicode="&#x110;" horiz-adv-x="1218" 
d="M129 631h-100v215h100v604h408q303 0 452.5 -191.5t149.5 -537.5q0 -223 -63 -382t-199.5 -249t-339.5 -90h-408v631zM461 846h194v-215h-194v-344h80q121 0 194.5 114t73.5 320q0 213 -73 327.5t-195 114.5h-80v-317z" />
    <glyph glyph-name="dcroat" unicode="&#x111;" horiz-adv-x="1081" 
d="M954 0h-309v129h-4q-57 -162 -225 -162q-109 0 -191 79t-123 210t-41 295q0 160 40 283.5t121.5 196.5t193.5 73q77 0 136.5 -40.5t78.5 -100.5h6v245h-205v158h205v182h317v-182h80v-158h-80v-1208zM651 537q0 128 -35.5 209t-101.5 81q-69 0 -103 -80.5t-34 -209.5
q0 -128 34.5 -209.5t102.5 -81.5q66 0 101.5 82t35.5 209z" />
    <glyph glyph-name="Emacron" unicode="&#x112;" horiz-adv-x="917" 
d="M854 0h-725v1450h700v-289h-387v-284h357v-271h-357v-313h412v-293zM774 1634h-602v158h602v-158z" />
    <glyph glyph-name="emacron" unicode="&#x113;" horiz-adv-x="968" 
d="M909 455h-536q2 -92 41.5 -155.5t103.5 -63.5q89 0 137 116l236 -133q-118 -258 -385 -258q-196 0 -320.5 150.5t-124.5 420.5q0 262 121.5 420t315.5 158q108 0 188.5 -42t128.5 -119t71 -177.5t23 -226.5v-90zM614 664q0 92 -27.5 146t-86.5 54t-93 -63.5t-36 -136.5
h243zM807 1255h-602v158h602v-158z" />
    <glyph glyph-name="Ebreve" unicode="&#x114;" horiz-adv-x="917" 
d="M854 0h-725v1450h700v-289h-387v-284h357v-271h-357v-313h412v-293zM780 1853q-6 -78 -32.5 -134.5t-69.5 -88.5t-93.5 -46.5t-111.5 -14.5q-58 0 -108 14.5t-93 46t-70 88.5t-32 135h160q7 -59 48.5 -86.5t94.5 -27.5q132 0 148 114h159z" />
    <glyph glyph-name="ebreve" unicode="&#x115;" horiz-adv-x="968" 
d="M909 455h-536q2 -92 41.5 -155.5t103.5 -63.5q89 0 137 116l236 -133q-118 -258 -385 -258q-196 0 -320.5 150.5t-124.5 420.5q0 262 121.5 420t315.5 158q108 0 188.5 -42t128.5 -119t71 -177.5t23 -226.5v-90zM614 664q0 92 -27.5 146t-86.5 54t-93 -63.5t-36 -136.5
h243zM811 1475q-6 -78 -32.5 -135t-69.5 -88.5t-93.5 -46.5t-111.5 -15q-58 0 -108 15t-93 46.5t-70 88.5t-32 135h159q7 -59 49 -87t95 -28q131 0 147 115h160z" />
    <glyph glyph-name="Edotaccent" unicode="&#x116;" horiz-adv-x="917" 
d="M854 0h-725v1450h700v-289h-387v-284h357v-271h-357v-313h412v-293zM657 1741q0 -79 -50 -133t-126 -54q-77 0 -126.5 54t-49.5 133q0 78 49.5 133t126.5 55t126.5 -55t49.5 -133z" />
    <glyph glyph-name="edotaccent" unicode="&#x117;" horiz-adv-x="968" 
d="M909 455h-536q2 -92 41.5 -155.5t103.5 -63.5q89 0 137 116l236 -133q-118 -258 -385 -258q-196 0 -320.5 150.5t-124.5 420.5q0 262 121.5 420t315.5 158q108 0 188.5 -42t128.5 -119t71 -177.5t23 -226.5v-90zM614 664q0 92 -27.5 146t-86.5 54t-93 -63.5t-36 -136.5
h243zM678 1362q0 -79 -50 -132.5t-126 -53.5q-77 0 -126.5 53.5t-49.5 132.5q0 78 49.5 133t126.5 55t126.5 -55t49.5 -133z" />
    <glyph glyph-name="Eogonek" unicode="&#x118;" horiz-adv-x="917" 
d="M848 -401q-108 -82 -227 -82q-39 0 -74.5 9.5t-67.5 30t-51.5 58.5t-19.5 88q0 45 17 87t50.5 81t62.5 65.5t74 63.5h-483v1450h700v-289h-387v-284h357v-271h-357v-313h412v-293h-43q-110 -94 -153.5 -147.5t-43.5 -98.5q0 -63 60 -63q58 0 110 43z" />
    <glyph glyph-name="eogonek" unicode="&#x119;" horiz-adv-x="968" 
d="M909 455h-536q2 -92 41.5 -155.5t103.5 -63.5q89 0 137 116l236 -133q-88 -189 -256 -239q-96 -84 -134 -133.5t-38 -92.5q0 -63 59 -63t111 43l63 -135q-108 -82 -227 -82q-39 0 -74.5 9.5t-67.5 30t-51.5 58.5t-19.5 88q0 74 44.5 138t121.5 128q-162 30 -261.5 177
t-99.5 386q0 262 121.5 420t315.5 158q108 0 188.5 -42t128.5 -119t71 -177.5t23 -226.5v-90zM614 664q0 92 -27.5 146t-86.5 54t-93 -63.5t-36 -136.5h243z" />
    <glyph glyph-name="Ecaron" unicode="&#x11a;" horiz-adv-x="917" 
d="M854 0h-725v1450h700v-289h-387v-284h357v-271h-357v-313h412v-293zM121 1860h221l137 -174l135 174h220l-236 -295h-244z" />
    <glyph glyph-name="ecaron" unicode="&#x11b;" horiz-adv-x="968" 
d="M909 455h-536q2 -92 41.5 -155.5t103.5 -63.5q89 0 137 116l236 -133q-118 -258 -385 -258q-196 0 -320.5 150.5t-124.5 420.5q0 262 121.5 420t315.5 158q108 0 188.5 -42t128.5 -119t71 -177.5t23 -226.5v-90zM614 664q0 92 -27.5 146t-86.5 54t-93 -63.5t-36 -136.5
h243zM145 1481h222l137 -174l135 174h219l-235 -295h-244z" />
    <glyph glyph-name="Gcircumflex" unicode="&#x11c;" horiz-adv-x="1146" 
d="M1051 86q-152 -119 -400 -119q-180 0 -312 95.5t-200.5 266.5t-68.5 396t69.5 398.5t197 269.5t294.5 96q139 0 240.5 -48t162.5 -128l-178 -240q-74 103 -201 103q-128 1 -195 -127t-67 -324q0 -127 25.5 -226.5t85 -163t145.5 -63.5q73 0 115 31v270h-156v285h443v-772
zM1001 1565h-221l-137 174l-135 -174h-219l235 295h244z" />
    <glyph glyph-name="gcircumflex" unicode="&#x11d;" horiz-adv-x="1079" 
d="M645 1071h307v-995q0 -568 -479 -568q-110 0 -217 39t-178 101l149 237q104 -94 226 -94q95 0 141.5 66.5t46.5 177.5v88h-4q-23 -57 -83.5 -97t-135.5 -40q-113 0 -195 73.5t-122 197t-40 282.5q0 164 41.5 291t123 200.5t192.5 73.5q164 0 221 -160h6v127zM651 537
q0 129 -35 209.5t-102 80.5q-69 0 -103 -80.5t-34 -209.5q0 -128 34.5 -209.5t102.5 -81.5q66 0 101.5 82t35.5 209zM895 1186h-221l-137 174l-136 -174h-219l236 295h244z" />
    <glyph glyph-name="Gbreve" unicode="&#x11e;" horiz-adv-x="1146" 
d="M1051 86q-152 -119 -400 -119q-180 0 -312 95.5t-200.5 266.5t-68.5 396t69.5 398.5t197 269.5t294.5 96q139 0 240.5 -48t162.5 -128l-178 -240q-74 103 -201 103q-128 1 -195 -127t-67 -324q0 -127 25.5 -226.5t85 -163t145.5 -63.5q73 0 115 31v270h-156v285h443v-772
zM944 1853q-6 -78 -32.5 -134.5t-69.5 -88.5t-93.5 -46.5t-111.5 -14.5q-58 0 -108 14.5t-93 46t-70 88.5t-32 135h160q7 -59 48.5 -86.5t94.5 -27.5q131 0 147 114h160z" />
    <glyph glyph-name="gbreve" unicode="&#x11f;" horiz-adv-x="1079" 
d="M645 1071h307v-995q0 -568 -479 -568q-110 0 -217 39t-178 101l149 237q104 -94 226 -94q95 0 141.5 66.5t46.5 177.5v88h-4q-23 -57 -83.5 -97t-135.5 -40q-113 0 -195 73.5t-122 197t-40 282.5q0 164 41.5 291t123 200.5t192.5 73.5q164 0 221 -160h6v127zM651 537
q0 129 -35 209.5t-102 80.5q-69 0 -103 -80.5t-34 -209.5q0 -128 34.5 -209.5t102.5 -81.5q66 0 101.5 82t35.5 209zM852 1475q-6 -78 -32.5 -135t-69.5 -88.5t-93.5 -46.5t-111.5 -15q-58 0 -108 15t-93 46.5t-70 88.5t-32 135h159q7 -59 49 -87t95 -28q131 0 147 115h160z
" />
    <glyph glyph-name="Gdotaccent" unicode="&#x120;" horiz-adv-x="1146" 
d="M1051 86q-152 -119 -400 -119q-180 0 -312 95.5t-200.5 266.5t-68.5 396t69.5 398.5t197 269.5t294.5 96q139 0 240.5 -48t162.5 -128l-178 -240q-74 103 -201 103q-128 1 -195 -127t-67 -324q0 -127 25.5 -226.5t85 -163t145.5 -63.5q73 0 115 31v270h-156v285h443v-772
zM829 1741q0 -79 -50 -133t-126 -54q-77 0 -126.5 54t-49.5 133q0 78 49.5 133t126.5 55t126.5 -55t49.5 -133z" />
    <glyph glyph-name="gdotaccent" unicode="&#x121;" horiz-adv-x="1079" 
d="M645 1071h307v-995q0 -568 -479 -568q-110 0 -217 39t-178 101l149 237q104 -94 226 -94q95 0 141.5 66.5t46.5 177.5v88h-4q-23 -57 -83.5 -97t-135.5 -40q-113 0 -195 73.5t-122 197t-40 282.5q0 164 41.5 291t123 200.5t192.5 73.5q164 0 221 -160h6v127zM651 537
q0 129 -35 209.5t-102 80.5q-69 0 -103 -80.5t-34 -209.5q0 -128 34.5 -209.5t102.5 -81.5q66 0 101.5 82t35.5 209zM729 1362q0 -79 -50 -132.5t-126 -53.5q-77 0 -126.5 53.5t-49.5 132.5q0 78 49.5 133t126.5 55t126.5 -55t49.5 -133z" />
    <glyph glyph-name="Gcommaaccent" unicode="&#x122;" horiz-adv-x="1146" 
d="M1051 86q-152 -119 -400 -119q-180 0 -312 95.5t-200.5 266.5t-68.5 396t69.5 398.5t197 269.5t294.5 96q139 0 240.5 -48t162.5 -128l-178 -240q-74 103 -201 103q-128 1 -195 -127t-67 -324q0 -127 25.5 -226.5t85 -163t145.5 -63.5q73 0 115 31v270h-156v285h443v-772
zM778 -92l-127 -383h-215l103 383h239z" />
    <glyph glyph-name="gcommaaccent" unicode="&#x123;" horiz-adv-x="1079" 
d="M645 1071h307v-995q0 -568 -479 -568q-110 0 -217 39t-178 101l149 237q104 -94 226 -94q95 0 141.5 66.5t46.5 177.5v88h-4q-23 -57 -83.5 -97t-135.5 -40q-113 0 -195 73.5t-122 197t-40 282.5q0 164 41.5 291t123 200.5t192.5 73.5q164 0 221 -160h6v127zM651 537
q0 129 -35 209.5t-102 80.5q-69 0 -103 -80.5t-34 -209.5q0 -128 34.5 -209.5t102.5 -81.5q66 0 101.5 82t35.5 209zM440 1186l127 383h215l-102 -383h-240z" />
    <glyph glyph-name="Hcircumflex" unicode="&#x124;" horiz-adv-x="1247" 
d="M1118 0h-325v606h-338v-606h-326v1450h326v-551h338v551h325v-1450zM983 1565h-221l-137 174l-136 -174h-219l236 295h244z" />
    <glyph glyph-name="hcircumflex" unicode="&#x125;" horiz-adv-x="1101" 
d="M444 631v-631h-321v1548h321v-620h7q27 77 93 129.5t158 52.5q71 0 124 -25.5t83.5 -66t49 -102t24.5 -122.5t6 -139v-655h-321v657q0 170 -99 170q-58 0 -91.5 -53.5t-33.5 -142.5zM909 1630h-221l-137 174l-135 -174h-219l235 295h244z" />
    <glyph glyph-name="Hbar" unicode="&#x126;" horiz-adv-x="1247" 
d="M1118 0h-325v606h-338v-606h-326v1450h326v-236h338v236h325v-1450zM455 899h338v158h-338v-158z" />
    <glyph glyph-name="hbar" unicode="&#x127;" horiz-adv-x="1101" 
d="M649 1208h-205v-280h7q27 77 93 129.5t158 52.5q71 0 124 -25.5t83.5 -66t49 -102t24.5 -122.5t6 -139v-655h-321v655q0 170 -99 170q-58 0 -91.5 -53.5t-33.5 -142.5v-629h-321v1208h-76v158h76v182h321v-182h205v-158z" />
    <glyph glyph-name="Itilde" unicode="&#x128;" horiz-adv-x="587" 
d="M459 0h-330v1450h330v-1450zM606 1835q-5 -119 -53 -188.5t-129 -69.5q-66 0 -141 47q-44 28 -66.5 36.5t-48.5 8.5q-59 0 -68 -90h-118q6 116 54 187t128 71q64 0 143 -49q45 -27 68 -36t49 -9q30 0 44.5 21t20.5 71h117z" />
    <glyph glyph-name="itilde" unicode="&#x129;" horiz-adv-x="565" 
d="M442 0h-319v1071h319v-1071zM598 1456q-5 -119 -53 -188.5t-129 -69.5q-67 0 -142 47q-44 28 -66 36.5t-48 8.5q-59 0 -68 -90h-119q6 114 54 184q49 74 129 74q64 0 143 -49q45 -27 68 -36t49 -9q30 0 44.5 21t20.5 71h117z" />
    <glyph glyph-name="Imacron" unicode="&#x12a;" horiz-adv-x="587" 
d="M459 0h-330v1450h330v-1450zM594 1634h-602v158h602v-158z" />
    <glyph glyph-name="imacron" unicode="&#x12b;" horiz-adv-x="565" 
d="M442 0h-319v1071h319v-1071zM584 1255h-602v158h602v-158z" />
    <glyph glyph-name="Iogonek" unicode="&#x12e;" horiz-adv-x="587" 
d="M483 -401q-108 -82 -227 -82q-39 0 -74.5 9.5t-67.5 30t-51.5 58.5t-19.5 88q0 45 17 86.5t51 81t62.5 66t74.5 63.5h-119v1450h330v-1450h-13q-110 -93 -153 -147t-43 -99q0 -63 59 -63t111 43z" />
    <glyph glyph-name="iogonek" unicode="&#x12f;" horiz-adv-x="565" 
d="M471 -401q-108 -82 -227 -82q-39 0 -74.5 9.5t-67.5 30t-51.5 58.5t-19.5 88q0 45 17 86.5t51 81t62.5 66t74.5 63.5h-115v1071h323v-1071h-10q-110 -93 -153 -147t-43 -99q0 -63 59 -63t111 43zM459 1362q0 -79 -50 -132.5t-126 -53.5q-77 0 -127 53.5t-50 132.5
q0 78 50 133t127 55t126.5 -55t49.5 -133z" />
    <glyph glyph-name="Idotaccent" unicode="&#x130;" horiz-adv-x="587" 
d="M459 0h-330v1450h330v-1450zM473 1741q0 -79 -50 -133t-126 -54q-77 0 -126.5 54t-49.5 133q0 78 49.5 133t126.5 55t126.5 -55t49.5 -133z" />
    <glyph glyph-name="dotlessi" unicode="&#x131;" horiz-adv-x="565" 
d="M442 0h-319v1071h319v-1071z" />
    <glyph glyph-name="Jcircumflex" unicode="&#x134;" horiz-adv-x="911" 
d="M788 457q0 -234 -103.5 -362t-315.5 -128q-149 0 -257 86.5t-141 227.5l267 118q13 -54 42 -88.5t72 -34.5q64 0 87.5 51.5t23.5 157.5v965h325v-993zM981 1565h-221l-137 174l-136 -174h-219l236 295h244z" />
    <glyph glyph-name="jcircumflex" unicode="&#x135;" horiz-adv-x="612" 
d="M446 -72q0 -420 -358 -420q-76 0 -143 13l16 280q27 -10 57 -10q60 0 81.5 41.5t21.5 124.5v1114h325v-1143zM641 1186h-221l-137 174l-136 -174h-219l236 295h244z" />
    <glyph glyph-name="Kcommaaccent" unicode="&#x136;" horiz-adv-x="1163" 
d="M1153 0h-379l-309 674h-6v-674h-330v1450h330v-604h6l299 604h366l-372 -664zM756 -92l-127 -383h-215l102 383h240z" />
    <glyph glyph-name="kcommaaccent" unicode="&#x137;" horiz-adv-x="1024" 
d="M1030 0h-371l-208 492h-5v-492h-319v1548h319v-909h5l196 432h377l-270 -491zM694 -92l-127 -383h-215l103 383h239z" />
    <glyph glyph-name="Lacute" unicode="&#x139;" horiz-adv-x="866" 
d="M848 0h-719v1450h332v-1147h387v-303zM627 1860l-230 -295h-221l184 295h267z" />
    <glyph glyph-name="lacute" unicode="&#x13a;" horiz-adv-x="581" 
d="M455 0h-328v1548h328v-1548zM582 1948l-230 -295h-221l184 295h267z" />
    <glyph glyph-name="Lcommaaccent" unicode="&#x13b;" horiz-adv-x="866" 
d="M848 0h-719v1450h332v-1147h387v-303zM631 -92l-127 -383h-215l102 383h240z" />
    <glyph glyph-name="lcommaaccent" unicode="&#x13c;" horiz-adv-x="581" 
d="M455 0h-328v1548h328v-1548zM428 -92l-127 -383h-215l102 383h240z" />
    <glyph glyph-name="Lcaron" unicode="&#x13d;" horiz-adv-x="866" 
d="M848 0h-719v1450h332v-1147h387v-303zM893 1450l-127 -383h-215l102 383h240z" />
    <glyph glyph-name="lcaron" unicode="&#x13e;" horiz-adv-x="833" 
d="M455 0h-328v1548h328v-1548zM850 1450l-127 -383h-215l102 383h240z" />
    <glyph glyph-name="Ldot" unicode="&#x13f;" horiz-adv-x="897" 
d="M848 0h-719v1450h332v-1147h387v-303zM905 911q0 -79 -50 -132.5t-126 -53.5q-77 0 -126.5 53.5t-49.5 132.5q0 78 50 133.5t126 55.5t126 -55.5t50 -133.5z" />
    <glyph glyph-name="ldot" unicode="&#x140;" horiz-adv-x="870" 
d="M455 0h-328v1548h328v-1548zM879 973q0 -79 -50.5 -133t-126.5 -54q-77 0 -126.5 54t-49.5 133q0 78 49.5 133t126.5 55t127 -55t50 -133z" />
    <glyph glyph-name="Lslash" unicode="&#x141;" horiz-adv-x="868" 
d="M848 0h-719v410l-90 -84v288l90 84v752h332v-512l241 223v-289l-241 -223v-346h387v-303z" />
    <glyph glyph-name="lslash" unicode="&#x142;" horiz-adv-x="585" 
d="M547 866l-92 -82v-784h-328v553l-84 -74v271l84 73v725h328v-495l92 84v-271z" />
    <glyph glyph-name="Nacute" unicode="&#x143;" horiz-adv-x="1234" 
d="M1106 0h-350l-336 883h-6l8 -883h-293v1450h360l334 -895h6l-6 895h283v-1450zM928 1860l-230 -295h-221l185 295h266z" />
    <glyph glyph-name="nacute" unicode="&#x144;" horiz-adv-x="1105" 
d="M127 1071h313v-151h4q28 81 98 135.5t165 54.5q71 0 123 -25.5t82.5 -66t48.5 -102.5t24 -122.5t6 -138.5v-655h-321v657q0 170 -97 170q-58 0 -91 -53.5t-33 -142.5v-631h-322v1071zM831 1481l-229 -295h-221l184 295h266z" />
    <glyph glyph-name="Ncommaaccent" unicode="&#x145;" horiz-adv-x="1234" 
d="M1106 0h-350l-336 883h-6l8 -883h-293v1450h360l334 -895h6l-6 895h283v-1450zM766 -92l-127 -383h-215l102 383h240z" />
    <glyph glyph-name="ncommaaccent" unicode="&#x146;" horiz-adv-x="1105" 
d="M127 1071h313v-151h4q28 81 98 135.5t165 54.5q71 0 123 -25.5t82.5 -66t48.5 -102.5t24 -122.5t6 -138.5v-655h-321v657q0 170 -97 170q-58 0 -91 -53.5t-33 -142.5v-631h-322v1071zM694 -92l-127 -383h-215l103 383h239z" />
    <glyph glyph-name="Ncaron" unicode="&#x147;" horiz-adv-x="1234" 
d="M1106 0h-350l-336 883h-6l8 -883h-293v1450h360l334 -895h6l-6 895h283v-1450zM260 1860h221l137 -174l136 174h219l-236 -295h-243z" />
    <glyph glyph-name="ncaron" unicode="&#x148;" horiz-adv-x="1105" 
d="M127 1071h313v-151h4q28 81 98 135.5t165 54.5q71 0 123 -25.5t82.5 -66t48.5 -102.5t24 -122.5t6 -138.5v-655h-321v657q0 170 -97 170q-58 0 -91 -53.5t-33 -142.5v-631h-322v1071zM190 1481h222l137 -174l135 174h219l-235 -295h-244z" />
    <glyph glyph-name="Omacron" unicode="&#x14c;" horiz-adv-x="1253" 
d="M1184 729q0 -348 -150.5 -558t-406.5 -210t-406.5 210t-150.5 558q0 347 149 553.5t408 206.5q170 0 296.5 -94t193.5 -266t67 -400zM848 729q0 128 -24 226.5t-75 157t-122 58.5q-108 0 -164.5 -122t-56.5 -320q0 -199 56.5 -322.5t164.5 -123.5q106 0 163.5 124.5
t57.5 321.5zM928 1634h-602v158h602v-158z" />
    <glyph glyph-name="omacron" unicode="&#x14d;" horiz-adv-x="1013" 
d="M952 535q0 -167 -52 -296.5t-153.5 -203.5t-238.5 -74q-204 0 -325.5 160t-121.5 414q0 256 120.5 415.5t326.5 159.5q137 0 238.5 -74t153.5 -203.5t52 -297.5zM645 537q0 129 -34 209.5t-103 80.5q-67 0 -101 -80.5t-34 -209.5t34 -210t101 -81q46 0 77.5 39.5
t45.5 103.5t14 148zM809 1255h-602v158h602v-158z" />
    <glyph glyph-name="Obreve" unicode="&#x14e;" horiz-adv-x="1253" 
d="M1184 729q0 -348 -150.5 -558t-406.5 -210t-406.5 210t-150.5 558q0 347 149 553.5t408 206.5q170 0 296.5 -94t193.5 -266t67 -400zM848 729q0 128 -24 226.5t-75 157t-122 58.5q-108 0 -164.5 -122t-56.5 -320q0 -199 56.5 -322.5t164.5 -123.5q106 0 163.5 124.5
t57.5 321.5zM930 1853q-6 -78 -32.5 -134.5t-69.5 -88.5t-93.5 -46.5t-111.5 -14.5q-46 0 -87 8.5t-79.5 29.5t-67 53t-47.5 81t-23 112h160q7 -59 49 -86.5t95 -27.5q131 0 147 114h160z" />
    <glyph glyph-name="obreve" unicode="&#x14f;" horiz-adv-x="1013" 
d="M952 535q0 -167 -52 -296.5t-153.5 -203.5t-238.5 -74q-204 0 -325.5 160t-121.5 414q0 256 120.5 415.5t326.5 159.5q137 0 238.5 -74t153.5 -203.5t52 -297.5zM645 537q0 129 -34 209.5t-103 80.5q-67 0 -101 -80.5t-34 -209.5t34 -210t101 -81q46 0 77.5 39.5
t45.5 103.5t14 148zM813 1475q-6 -78 -32.5 -135t-69.5 -88.5t-93.5 -46.5t-111.5 -15q-58 0 -108 15t-93 46.5t-70 88.5t-32 135h159q7 -59 49 -87t95 -28q131 0 147 115h160z" />
    <glyph glyph-name="Ohungarumlaut" unicode="&#x150;" horiz-adv-x="1253" 
d="M1184 729q0 -348 -150.5 -558t-406.5 -210t-406.5 210t-150.5 558q0 347 149 553.5t408 206.5q170 0 296.5 -94t193.5 -266t67 -400zM848 729q0 128 -24 226.5t-75 157t-122 58.5q-108 0 -164.5 -122t-56.5 -320q0 -199 56.5 -322.5t164.5 -123.5q106 0 163.5 124.5
t57.5 321.5zM805 1860l-230 -295h-210l184 295h256zM1118 1860l-229 -295h-211l184 295h256z" />
    <glyph glyph-name="ohungarumlaut" unicode="&#x151;" horiz-adv-x="1013" 
d="M952 535q0 -167 -52 -296.5t-153.5 -203.5t-238.5 -74q-204 0 -325.5 160t-121.5 414q0 256 120.5 415.5t326.5 159.5q137 0 238.5 -74t153.5 -203.5t52 -297.5zM645 537q0 129 -34 209.5t-103 80.5q-67 0 -101 -80.5t-34 -209.5t34 -210t101 -81q46 0 77.5 39.5
t45.5 103.5t14 148zM690 1481l-229 -295h-211l184 295h256zM1004 1481l-230 -295h-211l185 295h256z" />
    <glyph glyph-name="OE" unicode="&#x152;" horiz-adv-x="1486" 
d="M1423 0h-751q-303 0 -452.5 191.5t-149.5 537.5q0 167 36 298t108.5 226.5t188.5 146t269 50.5h729v-289h-379v-284h346v-271h-346v-313h401v-293zM715 287v876h-47q-121 0 -195 -114t-74 -320q0 -213 73.5 -327.5t195.5 -114.5h47z" />
    <glyph glyph-name="oe" unicode="&#x153;" horiz-adv-x="1529" 
d="M1075 1110q86 0 154 -30t113.5 -81.5t76 -124t43.5 -154t13 -175.5v-90h-537q2 -92 41.5 -155.5t103.5 -63.5q90 0 138 116l235 -133q-118 -258 -385 -258q-90 0 -164.5 44.5t-115.5 123.5q-37 -80 -114.5 -124t-172.5 -44q-204 0 -325.5 160t-121.5 414
q0 256 120.5 415.5t326.5 159.5q98 0 175.5 -44t113.5 -126q38 80 110 125t172 45zM643 537q0 129 -34 209.5t-103 80.5q-67 0 -101 -80.5t-34 -209.5t34 -210t101 -81q46 0 77.5 39.5t45.5 103.5t14 148zM1180 664q0 92 -28 146t-87 54t-93 -63.5t-36 -136.5h244z" />
    <glyph glyph-name="Racute" unicode="&#x154;" horiz-adv-x="1107" 
d="M1081 0h-346l-194 578h-97v-578h-315v1450h465q213 0 328.5 -111t115.5 -325q0 -148 -61.5 -243t-142.5 -124zM715 995q0 52 -15 89.5t-41 56.5t-53 27t-59 8h-103v-367h97q75 0 124.5 46.5t49.5 139.5zM844 1860l-230 -295h-221l185 295h266z" />
    <glyph glyph-name="racute" unicode="&#x155;" horiz-adv-x="704" 
d="M127 0v1071h313v-180h2q57 213 215 213q34 0 52 -6l-21 -322q-33 10 -70 10q-76 0 -121.5 -75.5t-45.5 -180.5v-530h-324zM676 1481l-230 -295h-221l185 295h266z" />
    <glyph glyph-name="Rcommaaccent" unicode="&#x156;" horiz-adv-x="1107" 
d="M1081 0h-346l-194 578h-97v-578h-315v1450h465q213 0 328.5 -111t115.5 -325q0 -148 -61.5 -243t-142.5 -124zM715 995q0 52 -15 89.5t-41 56.5t-53 27t-59 8h-103v-367h97q75 0 124.5 46.5t49.5 139.5zM717 -92l-127 -383h-215l102 383h240z" />
    <glyph glyph-name="rcommaaccent" unicode="&#x157;" horiz-adv-x="704" 
d="M127 0v1071h313v-180h2q57 213 215 213q34 0 52 -6l-21 -322q-33 10 -70 10q-76 0 -121.5 -75.5t-45.5 -180.5v-530h-324zM428 -92l-127 -383h-215l102 383h240z" />
    <glyph glyph-name="Rcaron" unicode="&#x158;" horiz-adv-x="1107" 
d="M1081 0h-346l-194 578h-97v-578h-315v1450h465q213 0 328.5 -111t115.5 -325q0 -148 -61.5 -243t-142.5 -124zM715 995q0 52 -15 89.5t-41 56.5t-53 27t-59 8h-103v-367h97q75 0 124.5 46.5t49.5 139.5zM193 1860h221l137 -174l135 174h219l-235 -295h-244z" />
    <glyph glyph-name="rcaron" unicode="&#x159;" horiz-adv-x="704" 
d="M127 0v1071h313v-180h2q57 213 215 213q34 0 52 -6l-21 -322q-33 10 -70 10q-76 0 -121.5 -75.5t-45.5 -180.5v-530h-324zM53 1481h221l138 -174l135 174h219l-236 -295h-243z" />
    <glyph glyph-name="Sacute" unicode="&#x15a;" horiz-adv-x="944" 
d="M899 1343l-170 -241q-77 90 -188 90q-61 0 -102.5 -37.5t-41.5 -112.5q0 -44 22 -77t56 -55t100 -56q49 -24 84.5 -45t80.5 -59t73.5 -79.5t49 -104t20.5 -134.5q0 -114 -37 -205t-99.5 -148.5t-143 -87.5t-171.5 -30q-124 0 -233.5 46.5t-178.5 117.5l168 246
q46 -50 109 -79.5t125 -29.5q61 0 101 40t40 108q0 66 -44.5 109t-147.5 93q-53 26 -91.5 50.5t-78 60.5t-64 77.5t-40 100.5t-15.5 129q0 93 26 171t70 130t102 88.5t120.5 53t127.5 16.5q116 0 211.5 -38.5t159.5 -107.5zM791 1860l-230 -295h-221l184 295h267z" />
    <glyph glyph-name="sacute" unicode="&#x15b;" horiz-adv-x="819" 
d="M784 973l-155 -203q-82 82 -174 82q-40 0 -67.5 -25.5t-27.5 -66.5q0 -39 29 -59t113 -46q262 -80 262 -323q0 -76 -23 -138.5t-60 -103.5t-86 -69.5t-99.5 -41t-102.5 -12.5q-106 0 -206 39.5t-171 108.5l160 204q99 -102 203 -102q44 0 70 26.5t26 69.5q0 47 -36 71
t-128 54q-38 12 -69.5 27t-64 41t-55 58t-36.5 80t-14 106q0 87 32.5 157t85.5 111.5t116 63.5t130 22q97 0 187.5 -34.5t160.5 -96.5zM739 1481l-229 -295h-221l184 295h266z" />
    <glyph glyph-name="Scircumflex" unicode="&#x15c;" horiz-adv-x="944" 
d="M899 1343l-170 -241q-77 90 -188 90q-61 0 -102.5 -37.5t-41.5 -112.5q0 -44 22 -77t56 -55t100 -56q49 -24 84.5 -45t80.5 -59t73.5 -79.5t49 -104t20.5 -134.5q0 -114 -37 -205t-99.5 -148.5t-143 -87.5t-171.5 -30q-124 0 -233.5 46.5t-178.5 117.5l168 246
q46 -50 109 -79.5t125 -29.5q61 0 101 40t40 108q0 66 -44.5 109t-147.5 93q-53 26 -91.5 50.5t-78 60.5t-64 77.5t-40 100.5t-15.5 129q0 93 26 171t70 130t102 88.5t120.5 53t127.5 16.5q116 0 211.5 -38.5t159.5 -107.5zM885 1565h-221l-138 174l-135 -174h-219l236 295
h243z" />
    <glyph glyph-name="scircumflex" unicode="&#x15d;" horiz-adv-x="819" 
d="M784 973l-155 -203q-82 82 -174 82q-40 0 -67.5 -25.5t-27.5 -66.5q0 -39 29 -59t113 -46q262 -80 262 -323q0 -76 -23 -138.5t-60 -103.5t-86 -69.5t-99.5 -41t-102.5 -12.5q-106 0 -206 39.5t-171 108.5l160 204q99 -102 203 -102q44 0 70 26.5t26 69.5q0 47 -36 71
t-128 54q-38 12 -69.5 27t-64 41t-55 58t-36.5 80t-14 106q0 87 32.5 157t85.5 111.5t116 63.5t130 22q97 0 187.5 -34.5t160.5 -96.5zM795 1186h-222l-137 174l-135 -174h-219l235 295h244z" />
    <glyph glyph-name="Scedilla" unicode="&#x15e;" horiz-adv-x="944" 
d="M899 1343l-170 -241q-77 90 -188 90q-61 0 -102.5 -37.5t-41.5 -112.5q0 -44 22 -77t56 -55t100 -56q49 -24 84.5 -45t80.5 -59t73.5 -79.5t49 -104t20.5 -134.5q0 -182 -88.5 -298.5t-229.5 -153.5l-80 -105q16 4 47 4q33 0 63 -7.5t58 -25t45 -51t17 -80.5
q0 -57 -27 -98t-71.5 -61.5t-89 -29.5t-91.5 -9q-130 0 -225 45l49 127q68 -35 158 -35q98 0 98 65q0 29 -25.5 42.5t-60.5 13.5q-42 0 -90 -19l-64 58l107 149q-110 9 -205.5 53.5t-157.5 108.5l168 246q46 -50 109 -79.5t125 -29.5q61 0 101 40t40 108q0 66 -44.5 109
t-147.5 93q-53 26 -91.5 50.5t-78 60.5t-64 77.5t-40 100.5t-15.5 129q0 93 26 171t70 130t102 88.5t120.5 53t127.5 16.5q116 0 211.5 -38.5t159.5 -107.5z" />
    <glyph glyph-name="scedilla" unicode="&#x15f;" horiz-adv-x="819" 
d="M784 973l-155 -203q-82 82 -174 82q-40 0 -67.5 -25.5t-27.5 -66.5q0 -39 29 -59t113 -46q262 -80 262 -323q0 -138 -68.5 -224t-175.5 -120l-86 -113q16 4 47 4q33 0 63 -7.5t58 -25t45 -51t17 -80.5q0 -57 -27 -98t-71.5 -61.5t-89 -29.5t-91.5 -9q-130 0 -225 45
l49 127q68 -35 158 -35q98 0 98 65q0 29 -25.5 42.5t-60.5 13.5q-42 0 -90 -19l-64 58l111 155q-90 9 -174 47.5t-146 98.5l160 204q99 -102 203 -102q44 0 70 26.5t26 69.5q0 47 -36 71t-128 54q-38 12 -69.5 27t-64 41t-55 58t-36.5 80t-14 106q0 87 32.5 157t85.5 111.5
t116 63.5t130 22q97 0 187.5 -34.5t160.5 -96.5z" />
    <glyph glyph-name="Scaron" unicode="&#x160;" horiz-adv-x="944" 
d="M899 1343l-170 -241q-77 90 -188 90q-61 0 -102.5 -37.5t-41.5 -112.5q0 -44 22 -77t56 -55t100 -56q49 -24 84.5 -45t80.5 -59t73.5 -79.5t49 -104t20.5 -134.5q0 -114 -37 -205t-99.5 -148.5t-143 -87.5t-171.5 -30q-124 0 -233.5 46.5t-178.5 117.5l168 246
q46 -50 109 -79.5t125 -29.5q61 0 101 40t40 108q0 66 -44.5 109t-147.5 93q-53 26 -91.5 50.5t-78 60.5t-64 77.5t-40 100.5t-15.5 129q0 93 26 171t70 130t102 88.5t120.5 53t127.5 16.5q116 0 211.5 -38.5t159.5 -107.5zM168 1860h221l137 -174l136 174h219l-236 -295
h-244z" />
    <glyph glyph-name="scaron" unicode="&#x161;" horiz-adv-x="819" 
d="M784 973l-155 -203q-82 82 -174 82q-40 0 -67.5 -25.5t-27.5 -66.5q0 -39 29 -59t113 -46q262 -80 262 -323q0 -76 -23 -138.5t-60 -103.5t-86 -69.5t-99.5 -41t-102.5 -12.5q-106 0 -206 39.5t-171 108.5l160 204q99 -102 203 -102q44 0 70 26.5t26 69.5q0 47 -36 71
t-128 54q-38 12 -69.5 27t-64 41t-55 58t-36.5 80t-14 106q0 87 32.5 157t85.5 111.5t116 63.5t130 22q97 0 187.5 -34.5t160.5 -96.5zM84 1481h221l137 -174l136 174h219l-236 -295h-244z" />
    <glyph glyph-name="Tcommaaccent" unicode="&#x162;" horiz-adv-x="849" 
d="M852 1171h-266v-1171h-322v1171h-266v279h854v-279zM563 -92l-127 -383h-215l103 383h239z" />
    <glyph glyph-name="tcommaaccent" unicode="&#x163;" horiz-adv-x="645" 
d="M625 8q-28 -14 -77 -24.5t-97 -10.5q-159 0 -234.5 87.5t-75.5 261.5v499h-129v250h127v258h312v-258h184v-250h-184v-426q0 -78 24 -113.5t78 -35.5q44 0 72 14v-252zM516 -92l-127 -383h-215l102 383h240z" />
    <glyph glyph-name="Tcaron" unicode="&#x164;" horiz-adv-x="849" 
d="M852 1171h-266v-1171h-322v1171h-266v279h854v-279zM70 1860h221l137 -174l135 174h219l-235 -295h-244z" />
    <glyph glyph-name="tcaron" unicode="&#x165;" horiz-adv-x="819" 
d="M625 8q-28 -14 -77 -24.5t-97 -10.5q-159 0 -234.5 87.5t-75.5 261.5v499h-129v250h127v258h312v-258h184v-250h-184v-426q0 -78 24 -113.5t78 -35.5q44 0 72 14v-252zM868 1518l-127 -383h-215l103 383h239z" />
    <glyph glyph-name="Tbar" unicode="&#x166;" horiz-adv-x="849" 
d="M723 805h-137v-805h-322v805h-143v158h143v208h-266v279h854v-279h-266v-208h137v-158z" />
    <glyph glyph-name="tbar" unicode="&#x167;" horiz-adv-x="645" 
d="M575 522h-124v-127q0 -78 24 -113.5t78 -35.5q42 0 70 14l2 -252q-28 -14 -77 -24.5t-97 -10.5q-159 0 -234.5 87.5t-75.5 261.5v200h-98v158h98v141h-129v250h127v258h312v-258h184v-250h-184v-141h124v-158z" />
    <glyph glyph-name="Utilde" unicode="&#x168;" horiz-adv-x="1189" 
d="M1085 537q0 -123 -28 -225t-86 -182t-155 -124.5t-226 -44.5t-224.5 44t-151.5 124t-83 181.5t-27 226.5v913h330v-885q0 -137 36 -213t126 -76t126 76t36 213v885h327v-913zM909 1835q-5 -119 -53 -188.5t-129 -69.5q-66 0 -141 47q-44 28 -66.5 36.5t-48.5 8.5
q-59 0 -68 -90h-118q6 116 54 187t128 71q64 0 143 -49q45 -27 68 -36t49 -9q30 0 45 21t21 71h116z" />
    <glyph glyph-name="utilde" unicode="&#x169;" horiz-adv-x="1105" 
d="M979 0h-313v152h-4q-28 -82 -98 -136.5t-165 -54.5q-71 0 -123 25.5t-82.5 66t-48.5 102.5t-24 122.5t-6 138.5v655h321v-655q0 -170 96 -170q58 0 91.5 53.5t33.5 142.5v629h322v-1071zM860 1456q-5 -119 -53 -188.5t-129 -69.5q-66 0 -141 47q-44 28 -66.5 36.5
t-48.5 8.5q-59 0 -68 -90h-118q6 116 53 184q49 74 129 74q64 0 143 -49q45 -27 68 -36t49 -9q30 0 44.5 21t20.5 71h117z" />
    <glyph glyph-name="Umacron" unicode="&#x16a;" horiz-adv-x="1189" 
d="M1085 537q0 -123 -28 -225t-86 -182t-155 -124.5t-226 -44.5t-224.5 44t-151.5 124t-83 181.5t-27 226.5v913h330v-885q0 -137 36 -213t126 -76t126 76t36 213v885h327v-913zM899 1634h-602v158h602v-158z" />
    <glyph glyph-name="umacron" unicode="&#x16b;" horiz-adv-x="1105" 
d="M979 0h-313v152h-4q-28 -82 -98 -136.5t-165 -54.5q-71 0 -123 25.5t-82.5 66t-48.5 102.5t-24 122.5t-6 138.5v655h321v-655q0 -170 96 -170q58 0 91.5 53.5t33.5 142.5v629h322v-1071zM848 1255h-602v158h602v-158z" />
    <glyph glyph-name="Ubreve" unicode="&#x16c;" horiz-adv-x="1189" 
d="M1085 537q0 -123 -28 -225t-86 -182t-155 -124.5t-226 -44.5t-224.5 44t-151.5 124t-83 181.5t-27 226.5v913h330v-885q0 -137 36 -213t126 -76t126 76t36 213v885h327v-913zM899 1853q-6 -78 -32.5 -134.5t-69.5 -88.5t-93.5 -46.5t-111.5 -14.5q-58 0 -108 14.5t-93 46
t-70 88.5t-32 135h160q7 -59 48.5 -86.5t94.5 -27.5q131 0 147 114h160z" />
    <glyph glyph-name="ubreve" unicode="&#x16d;" horiz-adv-x="1105" 
d="M979 0h-313v152h-4q-28 -82 -98 -136.5t-165 -54.5q-71 0 -123 25.5t-82.5 66t-48.5 102.5t-24 122.5t-6 138.5v655h321v-655q0 -170 96 -170q58 0 91.5 53.5t33.5 142.5v629h322v-1071zM852 1475q-6 -78 -32.5 -135t-69.5 -88.5t-93.5 -46.5t-111.5 -15q-58 0 -108 15
t-93 46.5t-70 88.5t-32 135h159q7 -59 49 -87t95 -28q131 0 147 115h160z" />
    <glyph glyph-name="Uring" unicode="&#x16e;" horiz-adv-x="1189" 
d="M1085 537q0 -123 -28 -225t-86 -182t-155 -124.5t-226 -44.5t-224.5 44t-151.5 124t-83 181.5t-27 226.5v913h330v-885q0 -137 36 -213t126 -76t126 76t36 213v885h327v-913zM805 1751q0 -96 -58 -159.5t-151 -63.5q-92 0 -148.5 63t-56.5 160t56.5 160t148.5 63
q93 0 151 -63.5t58 -159.5zM707 1751q0 57 -29.5 95t-81.5 38t-79.5 -38t-27.5 -95t27.5 -95t79.5 -38t81.5 38t29.5 95z" />
    <glyph glyph-name="uring" unicode="&#x16f;" horiz-adv-x="1105" 
d="M979 0h-313v152h-4q-28 -82 -98 -136.5t-165 -54.5q-71 0 -123 25.5t-82.5 66t-48.5 102.5t-24 122.5t-6 138.5v655h321v-655q0 -170 96 -170q58 0 91.5 53.5t33.5 142.5v629h322v-1071zM756 1372q0 -96 -58 -159.5t-151 -63.5q-92 0 -148.5 63t-56.5 160t56.5 160
t148.5 63q93 0 151 -63.5t58 -159.5zM657 1372q0 57 -29 95t-81 38t-79.5 -38t-27.5 -95t27.5 -95t79.5 -38t81 38t29 95z" />
    <glyph glyph-name="Uhungarumlaut" unicode="&#x170;" horiz-adv-x="1189" 
d="M1085 537q0 -123 -28 -225t-86 -182t-155 -124.5t-226 -44.5t-224.5 44t-151.5 124t-83 181.5t-27 226.5v913h330v-885q0 -137 36 -213t126 -76t126 76t36 213v885h327v-913zM766 1860l-229 -295h-211l184 295h256zM1079 1860l-229 -295h-211l184 295h256z" />
    <glyph glyph-name="uhungarumlaut" unicode="&#x171;" horiz-adv-x="1105" 
d="M979 0h-313v152h-4q-28 -82 -98 -136.5t-165 -54.5q-71 0 -123 25.5t-82.5 66t-48.5 102.5t-24 122.5t-6 138.5v655h321v-655q0 -170 96 -170q58 0 91.5 53.5t33.5 142.5v629h322v-1071zM721 1481l-229 -295h-211l184 295h256zM1034 1481l-229 -295h-211l184 295h256z
" />
    <glyph glyph-name="Uogonek" unicode="&#x172;" horiz-adv-x="1189" 
d="M813 -401q-108 -82 -227 -82q-39 0 -74.5 9.5t-67.5 30t-51.5 58.5t-19.5 88q0 124 162 262q-114 9 -199 56.5t-134.5 125.5t-73.5 175t-24 215v913h330v-885q0 -137 36 -213t126 -76t126 76t36 213v885h327v-913q0 -135 -32.5 -244t-107 -190.5t-185.5 -114.5
q-100 -87 -140 -138.5t-40 -95.5q0 -63 59 -63t111 43z" />
    <glyph glyph-name="uogonek" unicode="&#x173;" horiz-adv-x="1107" 
d="M979 0h-111q-110 -93 -153 -147t-43 -99q0 -63 59 -63t111 43l63 -135q-108 -82 -227 -82q-39 0 -74.5 9.5t-67.5 30t-51.5 58.5t-19.5 88q0 45 17 86.5t51 81t62.5 66t74.5 63.5h-4v152h-4q-28 -82 -98 -136.5t-165 -54.5q-71 0 -123 25.5t-82.5 66t-48.5 102.5
t-24 122.5t-6 138.5v655h321v-655q0 -170 96 -170q58 0 91.5 53.5t33.5 142.5v629h322v-1071z" />
    <glyph glyph-name="Wcircumflex" unicode="&#x174;" horiz-adv-x="1636" 
d="M1620 1450l-274 -1450h-349l-178 973h-4l-176 -973h-348l-273 1450h334l150 -1010h8l158 1010h317l164 -1010h6l148 1010h317zM1182 1565h-221l-138 174l-135 -174h-219l236 295h243z" />
    <glyph glyph-name="wcircumflex" unicode="&#x175;" horiz-adv-x="1417" 
d="M1405 1071l-242 -1071h-325l-136 614h-4l-133 -614h-315l-238 1071h328l104 -670h5l122 670h275l127 -670h4l104 670h324zM1065 1186h-221l-137 174l-136 -174h-219l236 295h243z" />
    <glyph glyph-name="Ycircumflex" unicode="&#x176;" horiz-adv-x="1007" 
d="M1032 1450l-368 -928v-522h-322v522l-367 928h355l174 -600h4l176 600h348zM862 1565h-221l-137 174l-135 -174h-219l235 295h244z" />
    <glyph glyph-name="ycircumflex" unicode="&#x177;" horiz-adv-x="974" 
d="M969 1071l-303 -1108q-19 -69 -36.5 -119t-43.5 -106.5t-58 -94.5t-74 -70.5t-98.5 -48.5t-124.5 -16q-77 0 -180 21l43 291q42 -17 86 -17q99 0 129 111l17 59l-320 1098h338l154 -715h4l141 715h326zM856 1186h-221l-137 174l-136 -174h-219l236 295h244z" />
    <glyph glyph-name="Ydieresis" unicode="&#x178;" horiz-adv-x="1007" 
d="M1032 1450l-368 -928v-522h-322v522l-367 928h355l174 -600h4l176 600h348zM471 1743q0 -71 -44 -119.5t-108 -48.5q-67 0 -109 48t-42 120q0 70 42.5 119t108.5 49q65 0 108.5 -49t43.5 -119zM848 1743q0 -71 -44 -119.5t-108 -48.5q-67 0 -109 48t-42 120
q0 70 42.5 119t108.5 49q65 0 108.5 -49t43.5 -119z" />
    <glyph glyph-name="Zacute" unicode="&#x179;" horiz-adv-x="937" 
d="M868 0h-819v266l445 895h-408v289h782v-260l-442 -893h442v-297zM772 1860l-229 -295h-221l184 295h266z" />
    <glyph glyph-name="zacute" unicode="&#x17a;" horiz-adv-x="817" 
d="M764 0h-709v264l359 537h-338v270h684v-254l-361 -547h365v-270zM731 1481l-229 -295h-221l184 295h266z" />
    <glyph glyph-name="Zdotaccent" unicode="&#x17b;" horiz-adv-x="937" 
d="M868 0h-819v266l445 895h-408v289h782v-260l-442 -893h442v-297zM655 1741q0 -79 -50 -133t-126 -54q-77 0 -126.5 54t-49.5 133q0 78 49.5 133t126.5 55t126.5 -55t49.5 -133z" />
    <glyph glyph-name="zdotaccent" unicode="&#x17c;" horiz-adv-x="817" 
d="M764 0h-709v264l359 537h-338v270h684v-254l-361 -547h365v-270zM596 1362q0 -79 -50 -132.5t-126 -53.5q-77 0 -126.5 53.5t-49.5 132.5q0 78 49.5 133t126.5 55t126.5 -55t49.5 -133z" />
    <glyph glyph-name="Zcaron" unicode="&#x17d;" horiz-adv-x="937" 
d="M868 0h-819v266l445 895h-408v289h782v-260l-442 -893h442v-297zM129 1860h221l137 -174l136 174h219l-236 -295h-244z" />
    <glyph glyph-name="zcaron" unicode="&#x17e;" horiz-adv-x="817" 
d="M764 0h-709v264l359 537h-338v270h684v-254l-361 -547h365v-270zM68 1481h221l137 -174l135 174h219l-235 -295h-244z" />
    <glyph glyph-name="florin" unicode="&#x192;" horiz-adv-x="1083" 
d="M1038 1432l-84 -258q-54 28 -98 28q-55 0 -85 -35.5t-44 -115.5l-27 -150h209v-233h-245l-103 -602q-63 -353 -358 -353q-113 0 -183 27l62 266q22 -14 59 -14q53 0 78.5 42.5t38.5 127.5l84 506h-186v233h211l22 133q13 83 31 146.5t50 123t75.5 98.5t109 62t148.5 23
q141 0 235 -55z" />
    <glyph glyph-name="Scommaaccent" unicode="&#x218;" horiz-adv-x="944" 
d="M899 1343l-170 -241q-77 90 -188 90q-61 0 -102.5 -37.5t-41.5 -112.5q0 -44 22 -77t56 -55t100 -56q49 -24 84.5 -45t80.5 -59t73.5 -79.5t49 -104t20.5 -134.5q0 -114 -37 -205t-99.5 -148.5t-143 -87.5t-171.5 -30q-124 0 -233.5 46.5t-178.5 117.5l168 246
q46 -50 109 -79.5t125 -29.5q61 0 101 40t40 108q0 66 -44.5 109t-147.5 93q-53 26 -91.5 50.5t-78 60.5t-64 77.5t-40 100.5t-15.5 129q0 93 26 171t70 130t102 88.5t120.5 53t127.5 16.5q116 0 211.5 -38.5t159.5 -107.5zM573 -92l-127 -383h-215l103 383h239z" />
    <glyph glyph-name="scommaaccent" unicode="&#x219;" horiz-adv-x="819" 
d="M784 973l-155 -203q-82 82 -174 82q-40 0 -67.5 -25.5t-27.5 -66.5q0 -39 29 -59t113 -46q262 -80 262 -323q0 -76 -23 -138.5t-60 -103.5t-86 -69.5t-99.5 -41t-102.5 -12.5q-106 0 -206 39.5t-171 108.5l160 204q99 -102 203 -102q44 0 70 26.5t26 69.5q0 47 -36 71
t-128 54q-38 12 -69.5 27t-64 41t-55 58t-36.5 80t-14 106q0 87 32.5 157t85.5 111.5t116 63.5t130 22q97 0 187.5 -34.5t160.5 -96.5zM526 -92l-127 -383h-215l103 383h239z" />
    <glyph glyph-name="uni021A" unicode="&#x21a;" horiz-adv-x="849" 
d="M852 1171h-266v-1171h-322v1171h-266v279h854v-279zM563 -92l-127 -383h-215l103 383h239z" />
    <glyph glyph-name="uni021B" unicode="&#x21b;" horiz-adv-x="645" 
d="M625 8q-28 -14 -77 -24.5t-97 -10.5q-159 0 -234.5 87.5t-75.5 261.5v499h-129v250h127v258h312v-258h184v-250h-184v-426q0 -78 24 -113.5t78 -35.5q44 0 72 14v-252zM528 -92l-127 -383h-215l103 383h239z" />
    <glyph glyph-name="circumflex" unicode="&#x2c6;" 
d="M637 1186h-221l-137 174l-136 -174h-219l236 295h243z" />
    <glyph glyph-name="caron" unicode="&#x2c7;" 
d="M-76 1481h221l138 -174l135 174h219l-236 -295h-243z" />
    <glyph glyph-name="uni02C9" unicode="&#x2c9;" 
d="M582 1634h-602v158h602v-158z" />
    <glyph glyph-name="breve" unicode="&#x2d8;" 
d="M586 1475q-6 -78 -32.5 -135t-69.5 -88.5t-93.5 -46.5t-111.5 -15q-58 0 -108 15t-93.5 46.5t-70.5 88.5t-32 135h160q7 -59 49 -87t95 -28q131 0 147 115h160z" />
    <glyph glyph-name="dotaccent" unicode="&#x2d9;" 
d="M457 1362q0 -79 -50 -132.5t-126 -53.5q-77 0 -127 53.5t-50 132.5q0 78 50 133t127 55t126.5 -55t49.5 -133z" />
    <glyph glyph-name="ring" unicode="&#x2da;" 
d="M489 1372q0 -97 -57.5 -160t-150.5 -63q-92 0 -148.5 63t-56.5 160t56.5 160t148.5 63q93 0 150.5 -63t57.5 -160zM391 1372q0 57 -29 95t-81 38t-79.5 -38t-27.5 -95t27.5 -95t79.5 -38t81 38t29 95z" />
    <glyph glyph-name="ogonek" unicode="&#x2db;" 
d="M483 -401q-108 -82 -227 -82q-39 0 -74.5 9.5t-67.5 30t-51.5 58.5t-19.5 88q0 45 17 86.5t51 81t62.5 66t74.5 63.5h198q-110 -93 -153 -147t-43 -99q0 -63 59 -63t111 43z" />
    <glyph glyph-name="tilde" unicode="&#x2dc;" 
d="M594 1456q-5 -119 -53 -188.5t-129 -69.5q-67 0 -142 47q-44 28 -66 36.5t-48 8.5q-59 0 -68 -90h-119q6 114 54 184q49 74 129 74q64 0 143 -49q45 -27 68 -36t49 -9q30 0 44.5 21t20.5 71h117z" />
    <glyph glyph-name="hungarumlaut" unicode="&#x2dd;" 
d="M377 1481l-230 -295h-210l184 295h256zM690 1481l-229 -295h-211l184 295h256z" />
    <glyph glyph-name="uni0394" unicode="&#x394;" horiz-adv-x="1454" 
d="M1436 0h-1418l549 1450h287zM987 297l-282 733l-267 -733h549z" />
    <glyph glyph-name="uni03A9" unicode="&#x3a9;" horiz-adv-x="1579" 
d="M1475 0h-596v449q129 29 200 137q68 103 68 243q0 106 -50.5 189.5t-130.5 126.5t-173 43q-95 0 -176 -43t-132 -126.5t-51 -191.5q0 -139 73.5 -240.5t192.5 -137.5v-449h-596v295h342v22q-159 49 -249 189q-93 142 -93 323q0 142 54.5 264t147 205.5t217.5 131
t265 47.5q189 0 344.5 -78.5t249 -226.5t93.5 -338t-89 -329.5t-253 -187.5v-22h342v-295z" />
    <glyph glyph-name="uni03BC" unicode="&#x3bc;" horiz-adv-x="1363" 
d="M182 1020h332v-508q0 -32 3 -62t13.5 -66.5t26.5 -63t46 -44.5t69 -18q97 0 141.5 63t44.5 164v535h332v-1020h-318v117h-2q-75 -131 -227 -131q-85 0 -129 41v-490h-332v1483z" />
    <glyph glyph-name="pi" unicode="&#x3c0;" horiz-adv-x="1363" 
d="M1284 37q-102 -51 -244 -51q-73 0 -124 21t-78.5 61t-39.5 88.5t-12 111.5v471h-235v-739h-340v739h-141v281h1210v-281h-160v-411q0 -88 72 -88q36 0 92 24v-227z" />
    <glyph glyph-name="endash" unicode="&#x2013;" horiz-adv-x="737" 
d="M688 463h-639v209h639v-209z" />
    <glyph glyph-name="emdash" unicode="&#x2014;" horiz-adv-x="942" 
d="M893 463h-844v209h844v-209z" />
    <glyph glyph-name="quoteleft" unicode="&#x2018;" horiz-adv-x="468" 
d="M406 1450l-103 -528h-240l130 528h213z" />
    <glyph glyph-name="quoteright" unicode="&#x2019;" horiz-adv-x="468" 
d="M63 922l103 528h240l-130 -528h-213z" />
    <glyph glyph-name="quotesinglbase" unicode="&#x201a;" horiz-adv-x="468" 
d="M406 293l-127 -529h-216l103 529h240z" />
    <glyph glyph-name="quotedblleft" unicode="&#x201c;" horiz-adv-x="815" 
d="M752 1450l-103 -528h-239l127 528h215zM406 1450l-103 -528h-240l130 528h213z" />
    <glyph glyph-name="quotedblright" unicode="&#x201d;" horiz-adv-x="813" 
d="M63 922l103 528h240l-127 -528h-216zM410 922l102 528h240l-129 -528h-213z" />
    <glyph glyph-name="quotedblbase" unicode="&#x201e;" horiz-adv-x="813" 
d="M63 -236l103 529h240l-127 -529h-216zM410 -236l102 529h240l-129 -529h-213z" />
    <glyph glyph-name="dagger" unicode="&#x2020;" horiz-adv-x="907" 
d="M868 772h-276v-1040h-273v1040h-276v268h274v410h275v-410h276v-268z" />
    <glyph glyph-name="daggerdbl" unicode="&#x2021;" horiz-adv-x="907" 
d="M868 98h-274v-366h-275v366h-276v258h276v469h-276v258h274v367h275v-367h276v-258h-276v-469h276v-258z" />
    <glyph glyph-name="bullet" unicode="&#x2022;" horiz-adv-x="1024" 
d="M874 725q0 -151 -105.5 -257t-256.5 -106t-256.5 106t-105.5 257t105.5 256.5t256.5 105.5t256.5 -105.5t105.5 -256.5z" />
    <glyph glyph-name="ellipsis" unicode="&#x2026;" horiz-adv-x="1843" 
d="M481 166q0 -77 -50 -130.5t-124 -53.5q-76 0 -125 53t-49 131q0 77 49.5 131.5t124.5 54.5q74 0 124 -55t50 -131zM1710 166q0 -77 -50 -130.5t-124 -53.5q-76 0 -125 53t-49 131q0 77 49.5 131.5t124.5 54.5q74 0 124 -55t50 -131zM1096 166q0 -77 -50 -130.5
t-124 -53.5q-76 0 -125 53t-49 131q0 77 49.5 131.5t124.5 54.5q74 0 124 -55t50 -131z" />
    <glyph glyph-name="perthousand" unicode="&#x2030;" horiz-adv-x="1978" 
d="M623 1104q0 -161 -76.5 -264t-206.5 -103q-128 0 -204.5 103t-76.5 264q0 163 76.5 267t204.5 104q130 0 206.5 -104t76.5 -267zM434 1106q0 85 -24 137.5t-70 52.5q-44 0 -67 -52.5t-23 -137.5q0 -83 23 -137t67 -54q45 0 69.5 54t24.5 137zM1292 342q0 -162 -76 -264.5
t-206 -102.5q-128 0 -204.5 103t-76.5 264q0 163 76.5 267t204.5 104q130 0 206 -104t76 -267zM1104 344q0 85 -24 138t-70 53q-44 0 -67 -52.5t-23 -138.5q0 -83 23 -136.5t67 -53.5q45 0 69.5 54t24.5 136zM1923 342q0 -161 -76.5 -264t-206.5 -103q-128 0 -204 103
t-76 264q0 163 76 267t204 104q130 0 206.5 -104t76.5 -267zM1735 344q0 85 -24.5 138t-70.5 53q-44 0 -67 -52.5t-23 -138.5q0 -83 23 -136.5t67 -53.5q45 0 70 54t25 136zM1065 1452l-619 -1495l-149 55l618 1499z" />
    <glyph glyph-name="guilsinglleft" unicode="&#x2039;" horiz-adv-x="534" 
d="M461 150l-164 -87l-223 474l223 473l164 -86l-180 -387z" />
    <glyph glyph-name="guilsinglright" unicode="&#x203a;" horiz-adv-x="534" 
d="M74 150l180 387l-180 387l164 86l223 -473l-223 -474z" />
    <glyph glyph-name="fraction" unicode="&#x2044;" horiz-adv-x="204" 
d="M469 1456l-555 -1495l-160 49l553 1499z" />
    <glyph glyph-name="Euro" unicode="&#x20ac;" horiz-adv-x="1083" 
d="M973 1188q-74 31 -172 31q-95 0 -161.5 -57t-92.5 -163h397l-53 -202h-389q-4 -25 -4 -70t2 -68h370l-47 -202h-291q21 -99 91 -156t163 -57q110 0 187 43l37 -273q-37 -21 -106 -37t-156 -16q-213 0 -356 133t-185 363h-160l49 202h92q-2 23 -2 68t2 70h-137l49 202h111
q56 241 206 365.5t371 124.5q65 0 136 -13t116 -32z" />
    <glyph glyph-name="afii61289" unicode="&#x2113;" horiz-adv-x="1024" 
d="M946 113q-170 -142 -364 -142q-164 0 -256.5 87t-92.5 221v61l-110 -94h-4l-109 166l221 176v481q0 173 109 290.5t276 117.5q147 0 234.5 -86.5t87.5 -227.5q0 -156 -97 -305t-302 -317v-213q0 -68 35 -100.5t85 -32.5q81 0 181 75h4zM688 1145q0 54 -20.5 91.5
t-53.5 37.5q-32 0 -53.5 -42t-21.5 -106v-329q149 154 149 348z" />
    <glyph glyph-name="trademark" unicode="&#x2122;" horiz-adv-x="1556" 
d="M233 606v645h-161v199h528v-199h-160v-645h-207zM676 606v844h276l125 -549l117 549h279v-844h-191v535h-4l-129 -535h-160l-125 535h-4v-535h-184z" />
    <glyph glyph-name="Omega" unicode="&#x2126;" horiz-adv-x="1579" 
d="M1475 0h-596v449q129 29 200 137q68 103 68 243q0 106 -50.5 189.5t-130.5 126.5t-173 43q-95 0 -176 -43t-132 -126.5t-51 -191.5q0 -139 73.5 -240.5t192.5 -137.5v-449h-596v295h342v22q-159 49 -249 189q-93 142 -93 323q0 142 54.5 264t147 205.5t217.5 131
t265 47.5q189 0 344.5 -78.5t249 -226.5t93.5 -338t-89 -329.5t-253 -187.5v-22h342v-295z" />
    <glyph glyph-name="estimated" unicode="&#x212e;" horiz-adv-x="1236" 
d="M1149 530h-827v-370q121 -121 296 -121q128 0 224 59t172 187l71 -43q-95 -148 -201.5 -212.5t-265.5 -64.5q-157 0 -278.5 75.5t-185.5 203.5t-64 286q0 159 64 287t185.5 203.5t278.5 75.5q235 0 382 -158t149 -408zM322 604h596v297q-129 123 -302 123
q-171 0 -294 -123v-297z" />
    <glyph glyph-name="partialdiff" unicode="&#x2202;" horiz-adv-x="1363" 
d="M874 877q-1 57 -17 111t-46.5 100.5t-82.5 75t-118 28.5q-78 0 -145.5 -28t-134.5 -107l-158 229q191 191 440 191q132 0 236.5 -44.5t170.5 -117t109 -171.5t60.5 -199.5t17.5 -209.5q0 -75 -6 -144.5t-23 -147.5t-43.5 -144t-70 -127.5t-100.5 -104.5t-138 -68.5
t-178 -25.5q-223 0 -364.5 139t-141.5 357q0 207 132.5 337t359.5 130q132 0 241 -59zM860 598q-96 74 -188 74q-91 0 -141 -59.5t-50 -157.5q0 -92 48 -150.5t124 -58.5q71 0 119.5 49.5t68 120t19.5 155.5v27z" />
    <glyph glyph-name="Delta" unicode="&#x2206;" horiz-adv-x="1454" 
d="M1436 0h-1418l549 1450h287zM987 297l-282 733l-267 -733h549z" />
    <glyph glyph-name="product" unicode="&#x220f;" horiz-adv-x="1542" 
d="M1423 -438h-311v1775h-682v-1775h-309v2048h1302v-2048z" />
    <glyph glyph-name="summation" unicode="&#x2211;" horiz-adv-x="1363" 
d="M1319 -438h-1266v227l598 809l-573 784v228h1216v-273h-823l524 -737l-559 -766h883v-272z" />
    <glyph glyph-name="minus" unicode="&#x2212;" horiz-adv-x="1363" 
d="M1225 496h-1086v252h1086v-252z" />
    <glyph glyph-name="uni2215" unicode="&#x2215;" horiz-adv-x="204" 
d="M469 1456l-555 -1495l-160 49l553 1499z" />
    <glyph glyph-name="uni2219" unicode="&#x2219;" horiz-adv-x="552" 
d="M451 551q0 -77 -50.5 -130.5t-124.5 -53.5q-76 0 -125 53t-49 131q0 77 49.5 131.5t124.5 54.5q74 0 124.5 -55t50.5 -131z" />
    <glyph glyph-name="radical" unicode="&#x221a;" horiz-adv-x="1165" 
d="M1186 1610l-438 -2048h-259l-296 614l-105 -49l-111 233l359 162l229 -489l324 1577h297z" />
    <glyph glyph-name="infinity" unicode="&#x221e;" horiz-adv-x="1714" 
d="M1622 545q0 -167 -101 -279t-274 -112q-115 0 -208 56.5t-181 154.5q-46 -49 -81 -80.5t-83.5 -64t-103 -48.5t-117.5 -16q-172 0 -276.5 110t-104.5 277q0 165 101.5 274t271.5 109q121 0 212 -59t181 -165q42 50 79 86t86 70t106 52t120 18q170 0 271.5 -109
t101.5 -274zM1380 539q0 64 -37 104.5t-100 40.5q-59 0 -116 -41.5t-117 -105.5q126 -140 239 -140q60 0 95.5 40t35.5 102zM705 537q-145 145 -240 145q-57 0 -94 -41.5t-37 -101.5q0 -63 37 -101.5t100 -38.5q106 0 234 138z" />
    <glyph glyph-name="integral" unicode="&#x222b;" horiz-adv-x="1296" 
d="M1063 1425q0 -58 -38 -97.5t-97 -39.5q-36 0 -61.5 17t-36.5 38t-24.5 42t-27.5 26q-5 -4 -8.5 -10t-5.5 -12t-4 -14.5t-2.5 -14t-1 -16t-0.5 -14.5v-14.5v-12.5q0 -29 2 -85t2 -85v-902q0 -155 -4 -231q-3 -71 -12 -129t-32.5 -117.5t-59.5 -100t-96.5 -66t-139.5 -25.5
q-41 0 -83 10.5t-81.5 31t-64.5 59t-25 87.5q0 20 10 37q11 41 46 67.5t81 26.5q36 0 60.5 -17t34 -37.5t22.5 -40.5t26 -24q25 13 25 97q1 31 -1.5 87t-2.5 77v69v946q0 50 0.5 84t4.5 85t10 87t18.5 81t30 76t44 62.5t60 51t79.5 31.5t101 12q38 0 79.5 -10t81.5 -30.5
t65.5 -57.5t25.5 -85z" />
    <glyph glyph-name="approxequal" unicode="&#x2248;" horiz-adv-x="1363" 
d="M1188 958q-17 -187 -103.5 -290t-226.5 -103q-55 0 -130 20.5t-136.5 45t-129 45t-108.5 20.5q-40 0 -67 -32.5t-37 -79.5h-197q6 74 27.5 137.5t59.5 118.5t101 86.5t144 31.5q70 0 162 -30t182.5 -60t157.5 -30q86 0 102 120h199zM1186 506q-6 -57 -19.5 -107.5
t-39 -101t-60.5 -87t-88 -59t-119 -22.5q-56 0 -132 21t-138 45.5t-129.5 45.5t-108.5 21t-69 -34.5t-37 -92.5h-197q5 59 19 113t40 105.5t61.5 89t88 60.5t115.5 23q57 0 128.5 -19.5t129 -43t129 -43t127.5 -19.5q75 0 100 105h199z" />
    <glyph glyph-name="notequal" unicode="&#x2260;" horiz-adv-x="1363" 
d="M1165 225h-559l-151 -299l-236 115l96 184h-209v260h343l88 172h-431v261h564l153 296l236 -112l-96 -184h202v-261h-336l-88 -172h424v-260z" />
    <glyph glyph-name="lessequal" unicode="&#x2264;" horiz-adv-x="1363" 
d="M1202 37h-1040v252h1040v-252zM1202 315l-1040 439v211l1040 438v-279l-627 -268l627 -260v-281z" />
    <glyph glyph-name="greaterequal" unicode="&#x2265;" horiz-adv-x="1363" 
d="M162 37v252h1040v-252h-1040zM162 315v281l626 260l-626 268v279l1040 -438v-211z" />
    <glyph glyph-name="lozenge" unicode="&#x25ca;" horiz-adv-x="1241" 
d="M1118 729l-377 -801h-245l-371 801l373 801h243zM829 729l-211 494l-206 -494l206 -493z" />
    <glyph glyph-name="uniF8FF" unicode="&#xf8ff;" horiz-adv-x="1048" 
d="M455 240h114v137h-114v-137zM461 479h94q0 107 12 148q11 38 88 106q75 69 102 123t27 123q0 120 -72 194t-182 74q-115 0 -189 -69.5t-87 -210.5l102 -17q11 100 56 147.5t112 47.5q64 0 110 -50.5t46 -123.5q0 -41 -19.5 -75.5t-82.5 -94.5q-67 -67 -95 -121
q-26 -51 -26 -166zM946 102h-844v1264h844v-1264zM1049 1470h-1049v-1470h1049v1470z" />
    <glyph glyph-name="ydieresis.sc" horiz-adv-x="913" 
d="M459 748h6l121 446h344l-316 -780v-414h-315v414l-315 780h350zM426 1462q0 -71 -44 -119.5t-108 -48.5q-67 0 -109 48t-42 120q0 70 42.5 119t108.5 49q65 0 108.5 -49t43.5 -119zM803 1462q0 -71 -44 -119.5t-108 -48.5q-67 0 -109 48t-42 120q0 70 42.5 119t108.5 49
q65 0 108.5 -49t43.5 -119z" />
    <glyph glyph-name="n.sc" horiz-adv-x="1114" 
d="M991 0h-327l-256 668h-9l11 -668h-287v1194h330l266 -664h6l-8 664h274v-1194z" />
    <glyph glyph-name="umacron.sc" horiz-adv-x="1073" 
d="M532 -33q-112 0 -196 38t-133.5 105.5t-73 152t-23.5 186.5v745h326v-719q0 -103 25.5 -153t81.5 -50q58 0 83 49.5t25 153.5v719h320v-745q0 -101 -24.5 -185.5t-75 -152.5t-136 -106t-199.5 -38zM842 1354h-602v157h602v-157z" />
    <glyph glyph-name="ohungarumlaut.sc" horiz-adv-x="1110" 
d="M555 1227q151 0 262 -80t168 -221t57 -326q0 -184 -57 -326.5t-168.5 -224.5t-261.5 -82t-261.5 82t-168.5 224.5t-57 326.5q0 185 57 326t168 221t262 80zM555 274q73 0 116.5 87.5t43.5 238.5q0 152 -43.5 238t-116.5 86t-116.5 -86t-43.5 -238q0 -151 43.5 -238.5
t116.5 -87.5zM731 1579l-229 -295h-211l184 295h256zM1044 1579l-229 -295h-211l184 295h256z" />
    <glyph glyph-name="iogonek.sc" horiz-adv-x="571" 
d="M123 0v1194h326v-1194q-110 -94 -153.5 -147.5t-43.5 -98.5q0 -63 59 -63t111 43l63 -135q-108 -82 -227 -82q-39 0 -74.5 9.5t-67.5 30t-51.5 58.5t-19.5 88q0 45 17 86.5t51 81t62.5 66t74.5 63.5h-127z" />
    <glyph glyph-name="p.sc" horiz-adv-x="956" 
d="M539 408h-97v-408h-319v1194h405q72 0 138.5 -21t125 -65t93.5 -123t35 -184q0 -98 -32.5 -175.5t-87 -123.5t-121.5 -70t-140 -24zM510 924h-68v-256h68q44 0 75 33t31 94q0 64 -30 96.5t-76 32.5z" />
    <glyph glyph-name="macron.sc" 
d="M582 1354h-602v157h602v-157z" />
    <glyph glyph-name="ugrave.sc" horiz-adv-x="1073" 
d="M532 -33q-112 0 -196 38t-133.5 105.5t-73 152t-23.5 186.5v745h326v-719q0 -103 25.5 -153t81.5 -50q58 0 83 49.5t25 153.5v719h320v-745q0 -101 -24.5 -185.5t-75 -152.5t-136 -106t-199.5 -38zM209 1579h266l184 -295h-221z" />
    <glyph glyph-name="oe.sc" horiz-adv-x="1312" 
d="M588 0q-262 0 -391 160t-129 440q0 277 129 435.5t391 158.5h629v-276h-312v-177h285v-262h-285v-196h330v-283h-647zM598 918h-12q-84 0 -139.5 -81t-55.5 -237q0 -160 55.5 -242t139.5 -82h12v642z" />
    <glyph glyph-name="udieresis.sc" horiz-adv-x="1073" 
d="M532 -33q-112 0 -196 38t-133.5 105.5t-73 152t-23.5 186.5v745h326v-719q0 -103 25.5 -153t81.5 -50q58 0 83 49.5t25 153.5v719h320v-745q0 -101 -24.5 -185.5t-75 -152.5t-136 -106t-199.5 -38zM504 1462q0 -71 -44 -119.5t-108 -48.5q-67 0 -109 48t-42 120
q0 70 42.5 119t108.5 49q65 0 108.5 -49t43.5 -119zM881 1462q0 -71 -44 -119.5t-108 -48.5q-67 0 -109 48t-42 120q0 70 42.5 119t108.5 49q65 0 108.5 -49t43.5 -119z" />
    <glyph glyph-name="grave.sc" 
d="M0 1579h266l185 -295h-222z" />
    <glyph glyph-name="hungarumlaut.cap" 
d="M377 1860l-230 -295h-210l184 295h256zM690 1860l-229 -295h-211l184 295h256z" />
    <glyph glyph-name="otilde.sc" horiz-adv-x="1110" 
d="M555 1227q151 0 262 -80t168 -221t57 -326q0 -184 -57 -326.5t-168.5 -224.5t-261.5 -82t-261.5 82t-168.5 224.5t-57 326.5q0 185 57 326t168 221t262 80zM555 274q73 0 116.5 87.5t43.5 238.5q0 152 -43.5 238t-116.5 86t-116.5 -86t-43.5 -238q0 -151 43.5 -238.5
t116.5 -87.5zM866 1554q-5 -119 -53 -188.5t-129 -69.5q-66 0 -141 47q-45 28 -67 37t-48 9q-58 0 -68 -91h-118q6 116 54 187t128 71q64 0 143 -49q45 -27 68 -36t49 -9q30 0 45 21t21 71h116z" />
    <glyph glyph-name="imacron.sc" horiz-adv-x="571" 
d="M123 0v1194h326v-1194h-326zM586 1354h-602v157h602v-157z" />
    <glyph glyph-name="ocircumflex.sc" horiz-adv-x="1110" 
d="M555 1227q151 0 262 -80t168 -221t57 -326q0 -184 -57 -326.5t-168.5 -224.5t-261.5 -82t-261.5 82t-168.5 224.5t-57 326.5q0 185 57 326t168 221t262 80zM555 274q73 0 116.5 87.5t43.5 238.5q0 152 -43.5 238t-116.5 86t-116.5 -86t-43.5 -238q0 -151 43.5 -238.5
t116.5 -87.5zM911 1284h-221l-137 174l-135 -174h-219l235 295h244z" />
    <glyph glyph-name="perthousand.sc" horiz-adv-x="1939" 
d="M1024 -31q-124 0 -195 93.5t-71 236.5q0 142 71.5 236t194.5 94q126 0 198 -94t72 -236q0 -143 -72 -236.5t-198 -93.5zM1024 432q-53 0 -53 -131q0 -135 53 -135q32 0 43.5 36t11.5 99q0 62 -11.5 96.5t-43.5 34.5zM330 565q-124 0 -195.5 94.5t-71.5 235.5
q0 143 71 236.5t196 93.5q126 0 197 -93t71 -237q0 -141 -71 -235.5t-197 -94.5zM330 1030q-49 0 -49 -133t49 -133q55 0 55 133t-55 133zM1608 -31q-125 0 -197 93.5t-72 236.5q0 142 72 236t197 94t197.5 -94t72.5 -236q0 -143 -72.5 -236.5t-197.5 -93.5zM1608 432
q-54 0 -54 -131q0 -135 54 -135q53 0 53 135q0 131 -53 131zM502 -43l-176 61l532 1233l174 -65z" />
    <glyph glyph-name="napostrophe.sc" horiz-adv-x="1353" 
d="M313 1194l-127 -383h-215l103 383h239zM1231 0h-328l-256 668h-8l10 -668h-287v1194h330l266 -664h7l-9 664h275v-1194z" />
    <glyph glyph-name="ij.sc" horiz-adv-x="1376" 
d="M123 0v1194h326v-1194h-326zM899 -33q-144 0 -235 77t-123 212l268 111q5 -45 24 -72t48 -27q41 0 54 31.5t13 103.5v791h322v-813q0 -194 -92.5 -304t-278.5 -110z" />
    <glyph glyph-name="percent.sc" horiz-adv-x="1355" 
d="M1024 -31q-124 0 -195 93.5t-71 236.5q0 142 71.5 236t194.5 94q126 0 198 -94t72 -236q0 -143 -72 -236.5t-198 -93.5zM1024 432q-53 0 -53 -131q0 -135 53 -135q32 0 43.5 36t11.5 99q0 62 -11.5 96.5t-43.5 34.5zM330 565q-124 0 -195.5 94.5t-71.5 235.5
q0 143 71 236.5t196 93.5q126 0 197 -93t71 -237q0 -141 -71 -235.5t-197 -94.5zM330 1030q-49 0 -49 -133t49 -133q55 0 55 133t-55 133zM502 -43l-176 61l532 1233l174 -65z" />
    <glyph glyph-name="obreve.sc" horiz-adv-x="1110" 
d="M555 1227q151 0 262 -80t168 -221t57 -326q0 -184 -57 -326.5t-168.5 -224.5t-261.5 -82t-261.5 82t-168.5 224.5t-57 326.5q0 185 57 326t168 221t262 80zM555 274q73 0 116.5 87.5t43.5 238.5q0 152 -43.5 238t-116.5 86t-116.5 -86t-43.5 -238q0 -151 43.5 -238.5
t116.5 -87.5zM858 1573q-6 -78 -32.5 -135t-69.5 -88.5t-93.5 -46.5t-111.5 -15q-58 0 -108 15t-93 46.5t-70 88.5t-32 135h160q8 -60 53 -90q42 -25 90 -25q131 0 147 115h160z" />
    <glyph glyph-name="two.onum" horiz-adv-x="1054" 
d="M121 0v287q283 207 364 278q128 111 150 194q6 23 6 46q0 70 -34.5 106.5t-90.5 36.5q-49 0 -93 -34t-69 -103l-268 88q53 151 166.5 239.5t271.5 88.5q193 0 309.5 -102t116.5 -287q0 -52 -13 -102t-30.5 -89t-53 -83t-64 -74t-79.5 -72t-83 -66t-92 -67v-6h417v-279
h-831z" />
    <glyph glyph-name="nine.sc" horiz-adv-x="978" 
d="M432 399q-16 -2 -26 -2q-85 0 -150.5 31t-106 86t-61 126t-20.5 155q0 193 115.5 312.5t297.5 119.5q186 0 303 -119.5t117 -321.5q0 -173 -106 -366l-232 -420h-356l227 399h-2zM483 633q42 0 74.5 44.5t32.5 117.5q0 75 -32 119t-75 44q-42 0 -72 -43.5t-30 -119.5
t29.5 -119t72.5 -43z" />
    <glyph glyph-name="oacute.sc" horiz-adv-x="1110" 
d="M555 1227q151 0 262 -80t168 -221t57 -326q0 -184 -57 -326.5t-168.5 -224.5t-261.5 -82t-261.5 82t-168.5 224.5t-57 326.5q0 185 57 326t168 221t262 80zM555 274q73 0 116.5 87.5t43.5 238.5q0 152 -43.5 238t-116.5 86t-116.5 -86t-43.5 -238q0 -151 43.5 -238.5
t116.5 -87.5zM879 1579l-230 -295h-221l184 295h267z" />
    <glyph glyph-name="idotaccent.sc" horiz-adv-x="571" 
d="M123 0v1194h326v-1194h-326zM457 1481q0 -79 -50 -133t-126 -54q-77 0 -127 54t-50 133q0 78 50 133t127 55t126.5 -55t49.5 -133z" />
    <glyph glyph-name="ucircumflex.sc" horiz-adv-x="1073" 
d="M532 -33q-112 0 -196 38t-133.5 105.5t-73 152t-23.5 186.5v745h326v-719q0 -103 25.5 -153t81.5 -50q58 0 83 49.5t25 153.5v719h320v-745q0 -101 -24.5 -185.5t-75 -152.5t-136 -106t-199.5 -38zM895 1284h-221l-137 174l-136 -174h-219l236 295h244z" />
    <glyph glyph-name="macron.cap" 
d="M582 1634h-602v158h602v-158z" />
    <glyph glyph-name="oslash.sc" horiz-adv-x="1110" 
d="M555 1227q121 0 215 -51l66 137l145 -70l-84 -170q145 -174 145 -473q0 -184 -57 -326.5t-168.5 -224.5t-261.5 -82q-118 0 -215 51l-55 -124l-148 71l76 158q-145 177 -145 477q0 185 57 326t168 221t262 80zM375 600q0 -89 16 -164l238 490q-35 24 -74 24
q-83 0 -131.5 -93t-48.5 -257zM555 248q82 0 131 94.5t49 257.5q0 86 -16 158l-240 -486q34 -24 76 -24z" />
    <glyph glyph-name="yacute.sc" horiz-adv-x="913" 
d="M459 748h6l121 446h344l-316 -780v-414h-315v414l-315 780h350zM788 1579l-229 -295h-221l184 295h266z" />
    <glyph glyph-name="uhungarumlaut.sc" horiz-adv-x="1073" 
d="M532 -33q-112 0 -196 38t-133.5 105.5t-73 152t-23.5 186.5v745h326v-719q0 -103 25.5 -153t81.5 -50q58 0 83 49.5t25 153.5v719h320v-745q0 -101 -24.5 -185.5t-75 -152.5t-136 -106t-199.5 -38zM725 1579l-229 -295h-211l184 295h256zM1038 1579l-229 -295h-211
l184 295h256z" />
    <glyph glyph-name="omacron.sc" horiz-adv-x="1110" 
d="M555 1227q151 0 262 -80t168 -221t57 -326q0 -184 -57 -326.5t-168.5 -224.5t-261.5 -82t-261.5 82t-168.5 224.5t-57 326.5q0 185 57 326t168 221t262 80zM555 274q73 0 116.5 87.5t43.5 238.5q0 152 -43.5 238t-116.5 86t-116.5 -86t-43.5 -238q0 -151 43.5 -238.5
t116.5 -87.5zM854 1354h-602v157h602v-157z" />
    <glyph glyph-name="z.sc" horiz-adv-x="825" 
d="M45 0v242l350 676h-319v276h696v-238l-348 -671h348v-285h-727z" />
    <glyph glyph-name="questiondown.sc" horiz-adv-x="794" 
d="M207 635q38 33 51.5 58.5t13.5 60.5v22h271v-45q0 -155 -117 -256q-44 -41 -65 -69t-21 -60q0 -43 20.5 -66.5t53.5 -23.5q39 0 63 36t27 97l270 -45q-8 -76 -34.5 -140.5t-72 -114.5t-114.5 -78.5t-156 -28.5q-162 0 -259 92.5t-97 253.5q0 103 40.5 169.5t125.5 137.5z
M217 1051q0 75 51.5 125.5t126.5 50.5q76 0 127 -50.5t51 -125.5q0 -74 -51 -126.5t-127 -52.5q-75 0 -126.5 52.5t-51.5 126.5z" />
    <glyph glyph-name="idieresis.sc" horiz-adv-x="571" 
d="M123 0v1194h326v-1194h-326zM250 1462q0 -71 -44 -119.5t-108 -48.5q-67 0 -109 48t-42 120q0 70 42.5 119t108.5 49q65 0 108.5 -49t43.5 -119zM627 1462q0 -71 -44 -119.5t-108 -48.5q-67 0 -109 48t-42 120q0 70 42.5 119t108.5 49q65 0 108.5 -49t43.5 -119z" />
    <glyph glyph-name="one.sc" horiz-adv-x="978" 
d="M391 0v819l-160 -114l-147 239l352 250h273v-1194h-318z" />
    <glyph glyph-name="question.sc" horiz-adv-x="794" 
d="M608 573q-38 -33 -51.5 -58t-13.5 -60v-23h-271v45q0 155 117 256q44 41 65 69t21 60q0 43 -20.5 66.5t-53.5 23.5q-39 0 -63 -36t-27 -97l-270 45q8 76 34.5 140.5t72 115t114.5 79t156 28.5q162 0 259 -92.5t97 -253.5q0 -104 -40.5 -170.5t-125.5 -137.5zM598 158
q0 -75 -51.5 -125.5t-126.5 -50.5q-76 0 -127 50.5t-51 125.5q0 74 51 126t127 52q75 0 126.5 -52t51.5 -126z" />
    <glyph glyph-name="iacute.sc" horiz-adv-x="571" 
d="M123 0v1194h326v-1194h-326zM618 1579l-229 -295h-221l184 295h266z" />
    <glyph glyph-name="three.sc" horiz-adv-x="978" 
d="M702 627v-9q93 -33 134 -106.5t41 -165.5q0 -179 -113.5 -279t-288.5 -100q-160 0 -273 85t-149 251l289 68q12 -62 43.5 -96.5t77.5 -34.5t72 34.5t26 87.5q0 62 -35.5 96t-99.5 34h-88v239h94q55 0 84 34t29 95q0 42 -21 68t-61 26q-76 0 -98 -112l-281 67
q38 156 146.5 237t250.5 81q71 0 136 -20.5t118 -59.5t85 -104t32 -146q0 -93 -38 -166t-112 -104z" />
    <glyph glyph-name="ordfeminine.sc" horiz-adv-x="655" 
d="M436 809l-28 115h-162l-29 -115h-203l191 668h252l188 -668h-209zM326 1296l-52 -231h103l-47 231h-4z" />
    <glyph glyph-name="l.sc" horiz-adv-x="778" 
d="M123 0v1194h328v-903h317v-291h-645z" />
    <glyph glyph-name="scommaaccent.sc" horiz-adv-x="819" 
d="M502 -92l-127 -383h-215l102 383h240zM614 854q-70 86 -157 86q-41 0 -66.5 -22t-25.5 -70q0 -38 28.5 -64t104.5 -63q39 -18 70 -36t70 -50t64.5 -67.5t43.5 -88.5t18 -114q0 -187 -115 -292.5t-280 -105.5q-108 0 -205 41.5t-168 110.5l168 237q101 -98 194 -98
q40 0 66.5 24.5t26.5 65.5q0 34 -22 61t-49 42.5t-78 40.5q-11 5 -17 8q-38 17 -68 35t-62 47.5t-53.5 63.5t-35 83.5t-13.5 108.5q0 79 23.5 144.5t62 110t90 75.5t106 45t111.5 14q102 0 190.5 -35t149.5 -102z" />
    <glyph glyph-name="uring.sc" horiz-adv-x="1073" 
d="M532 -33q-112 0 -196 38t-133.5 105.5t-73 152t-23.5 186.5v745h326v-719q0 -103 25.5 -153t81.5 -50q58 0 83 49.5t25 153.5v719h320v-745q0 -101 -24.5 -185.5t-75 -152.5t-136 -106t-199.5 -38zM745 1470q0 -97 -57.5 -160t-150.5 -63q-92 0 -148.5 63t-56.5 160
t56.5 160.5t148.5 63.5q93 0 150.5 -63.5t57.5 -160.5zM647 1470q0 57 -29 95.5t-81 38.5t-79.5 -38.5t-27.5 -95.5t27.5 -95t79.5 -38t81 38t29 95z" />
    <glyph glyph-name="i.sc" horiz-adv-x="571" 
d="M123 0v1194h326v-1194h-326z" />
    <glyph glyph-name="hcircumflex.sc" horiz-adv-x="1116" 
d="M672 0v479h-228v-479h-321v1194h321v-434h228v434h321v-1194h-321zM918 1284h-222l-137 174l-135 -174h-219l235 295h244z" />
    <glyph glyph-name="ograve.sc" horiz-adv-x="1110" 
d="M555 1227q151 0 262 -80t168 -221t57 -326q0 -184 -57 -326.5t-168.5 -224.5t-261.5 -82t-261.5 82t-168.5 224.5t-57 326.5q0 185 57 326t168 221t262 80zM555 274q73 0 116.5 87.5t43.5 238.5q0 152 -43.5 238t-116.5 86t-116.5 -86t-43.5 -238q0 -151 43.5 -238.5
t116.5 -87.5zM244 1579h266l184 -295h-221z" />
    <glyph glyph-name="ycircumflex.sc" horiz-adv-x="913" 
d="M459 748h6l121 446h344l-316 -780v-414h-315v414l-315 780h350zM819 1284h-221l-137 174l-135 -174h-220l236 295h244z" />
    <glyph glyph-name="o.sc" horiz-adv-x="1110" 
d="M555 1227q151 0 262 -80t168 -221t57 -326q0 -184 -57 -326.5t-168.5 -224.5t-261.5 -82t-261.5 82t-168.5 224.5t-57 326.5q0 185 57 326t168 221t262 80zM555 274q73 0 116.5 87.5t43.5 238.5q0 152 -43.5 238t-116.5 86t-116.5 -86t-43.5 -238q0 -151 43.5 -238.5
t116.5 -87.5z" />
    <glyph glyph-name="scircumflex.sc" horiz-adv-x="819" 
d="M614 854q-70 86 -157 86q-41 0 -66.5 -22t-25.5 -70q0 -38 28.5 -64t104.5 -63q39 -18 70 -36t70 -50t64.5 -67.5t43.5 -88.5t18 -114q0 -187 -115 -292.5t-280 -105.5q-108 0 -205 41.5t-168 110.5l168 237q101 -98 194 -98q40 0 66.5 24.5t26.5 65.5q0 34 -22 61
t-49 42.5t-78 40.5q-11 5 -17 8q-38 17 -68 35t-62 47.5t-53.5 63.5t-35 83.5t-13.5 108.5q0 79 23.5 144.5t62 110t90 75.5t106 45t111.5 14q102 0 190.5 -35t149.5 -102zM815 1284h-221l-137 174l-135 -174h-220l236 295h244z" />
    <glyph glyph-name="j.sc" horiz-adv-x="782" 
d="M305 -33q-144 0 -235 77t-123 212l268 111q5 -45 24 -72t48 -27q41 0 54 31.5t13 103.5v791h322v-813q0 -194 -92.5 -304t-278.5 -110z" />
    <glyph glyph-name="igrave.sc" horiz-adv-x="571" 
d="M123 0v1194h326v-1194h-326zM-45 1579h266l185 -295h-222z" />
    <glyph glyph-name="aring.sc" horiz-adv-x="972" 
d="M657 0l-47 209h-258l-43 -209h-313l303 1194h381l297 -1194h-320zM481 870l-82 -413h160l-74 413h-4zM692 1470q0 -96 -58 -159.5t-151 -63.5q-92 0 -148 63t-56 160t56 160.5t148 63.5q93 0 151 -64t58 -160zM594 1470q0 57 -29.5 95.5t-81.5 38.5q-51 0 -78.5 -38
t-27.5 -96q0 -57 27.5 -95t78.5 -38q52 0 81.5 38t29.5 95z" />
    <glyph glyph-name="ring.sc" 
d="M489 1470q0 -97 -57.5 -160t-150.5 -63q-92 0 -148.5 63t-56.5 160t56.5 160.5t148.5 63.5q93 0 150.5 -63.5t57.5 -160.5zM391 1470q0 57 -29 95.5t-81 38.5t-79.5 -38.5t-27.5 -95.5t27.5 -95t79.5 -38t81 38t29 95z" />
    <glyph glyph-name="hungarumlaut.sc" 
d="M377 1579l-230 -295h-210l184 295h256zM690 1579l-229 -295h-211l184 295h256z" />
    <glyph glyph-name="sterling.sc" horiz-adv-x="978" 
d="M745 891q-26 26 -47.5 36.5t-50.5 10.5q-102 0 -102 -145v-54h190v-239h-190v-221h297v-279h-740v279h129v221h-125v239h125v76q0 56 12 111.5t41 110.5t71.5 96.5t109.5 67.5t149 26q168 0 285 -99z" />
    <glyph glyph-name="nacute.sc" horiz-adv-x="1114" 
d="M991 0h-327l-256 668h-9l11 -668h-287v1194h330l266 -664h6l-8 664h274v-1194zM889 1579l-230 -295h-221l185 295h266z" />
    <glyph glyph-name="ubreve.sc" horiz-adv-x="1073" 
d="M532 -33q-112 0 -196 38t-133.5 105.5t-73 152t-23.5 186.5v745h326v-719q0 -103 25.5 -153t81.5 -50q58 0 83 49.5t25 153.5v719h320v-745q0 -101 -24.5 -185.5t-75 -152.5t-136 -106t-199.5 -38zM848 1573q-6 -78 -32.5 -135t-69.5 -88.5t-93.5 -46.5t-111.5 -15
q-58 0 -108 15t-93 46.5t-70 88.5t-32 135h159q8 -60 54 -90q42 -25 90 -25q131 0 147 115h160z" />
    <glyph glyph-name="seven.sc" horiz-adv-x="978" 
d="M510 0h-344l364 918h-436v276h776v-225z" />
    <glyph glyph-name="odieresis.sc" horiz-adv-x="1110" 
d="M555 1227q151 0 262 -80t168 -221t57 -326q0 -184 -57 -326.5t-168.5 -224.5t-261.5 -82t-261.5 82t-168.5 224.5t-57 326.5q0 185 57 326t168 221t262 80zM555 274q73 0 116.5 87.5t43.5 238.5q0 152 -43.5 238t-116.5 86t-116.5 -86t-43.5 -238q0 -151 43.5 -238.5
t116.5 -87.5zM518 1462q0 -71 -43.5 -119.5t-107.5 -48.5q-67 0 -109.5 48.5t-42.5 119.5q0 70 43 119t109 49q65 0 108 -49t43 -119zM895 1462q0 -71 -44 -119.5t-108 -48.5q-67 0 -109 48t-42 120q0 70 42.5 119t108.5 49q65 0 108.5 -49t43.5 -119z" />
    <glyph glyph-name="zcaron.sc" horiz-adv-x="825" 
d="M45 0v242l350 676h-319v276h696v-238l-348 -671h348v-285h-727zM68 1579h221l137 -174l135 174h219l-235 -295h-244z" />
    <glyph glyph-name="nine.onum" horiz-adv-x="1105" 
d="M449 -324q-261 142 -283 154q118 102 226 217.5t173 218.5l-2 2q-10 -6 -44.5 -10t-57.5 -4q-124 0 -212 63.5t-129.5 167.5t-41.5 238q0 121 37 219t102 161t151.5 96.5t186.5 33.5q208 0 340.5 -135t132.5 -375q0 -143 -47 -289.5t-131 -280t-182 -249t-219 -228.5z
M393 719q0 -107 42.5 -171.5t115.5 -64.5q69 0 115.5 67t46.5 169q0 103 -45 168t-115 65q-72 0 -116 -65t-44 -168z" />
    <glyph glyph-name="germandbls.sc" horiz-adv-x="1638" 
d="M614 854q-70 86 -157 86q-41 0 -66.5 -22t-25.5 -70q0 -38 28.5 -64t104.5 -63q39 -18 70 -36t70 -50t64.5 -67.5t43.5 -88.5t18 -114q0 -187 -115 -292.5t-280 -105.5q-108 0 -205 41.5t-168 110.5l168 237q101 -98 194 -98q40 0 66.5 24.5t26.5 65.5q0 34 -22 61
t-49 42.5t-78 40.5q-11 5 -17 8q-38 17 -68 35t-62 47.5t-53.5 63.5t-35 83.5t-13.5 108.5q0 79 23.5 144.5t62 110t90 75.5t106 45t111.5 14q102 0 190.5 -35t149.5 -102zM1434 854q-70 86 -158 86q-41 0 -66.5 -22t-25.5 -70q0 -38 28.5 -64t104.5 -63q39 -18 70 -36
t70 -50t64.5 -67.5t43.5 -88.5t18 -114q0 -187 -115 -292.5t-280 -105.5q-108 0 -205 41.5t-168 110.5l168 237q101 -98 195 -98q40 0 66 24t26 66q0 34 -22 61t-49 42.5t-78 40.5q-11 5 -17 8q-38 17 -68 35t-62 47.5t-53.5 63.5t-35 83.5t-13.5 108.5q0 79 23.5 144.5
t62 110t90 75.5t106.5 45t112 14q102 0 190.5 -35t149.5 -102z" />
    <glyph glyph-name="aacute.sc" horiz-adv-x="972" 
d="M657 0l-47 209h-258l-43 -209h-313l303 1194h381l297 -1194h-320zM481 870l-82 -413h160l-74 413h-4zM811 1579l-229 -295h-222l185 295h266z" />
    <glyph glyph-name="q.sc" horiz-adv-x="1110" 
d="M932 270l164 4v-274h-553q-224 0 -349.5 161.5t-125.5 440.5q0 183 58 324.5t168 221t257 79.5q149 0 259.5 -79.5t167 -217.5t56.5 -316q0 -96 -28.5 -191t-73.5 -153zM553 920q-70 0 -113 -84t-43 -234q0 -147 43 -231t113 -84q74 0 117 85t43 230q0 148 -44.5 233
t-115.5 85z" />
    <glyph glyph-name="exclamdown.sc" horiz-adv-x="581" 
d="M133 762h316v-762h-316v762zM469 1036q0 -74 -51.5 -126t-126.5 -52q-76 0 -127 52t-51 126q0 75 51 125.5t127 50.5q75 0 126.5 -50.5t51.5 -125.5z" />
    <glyph glyph-name="jcircumflex.sc" horiz-adv-x="782" 
d="M305 -33q-144 0 -235 77t-123 212l268 111q5 -45 24 -72t48 -27q41 0 54 31.5t13 103.5v791h322v-813q0 -194 -92.5 -304t-278.5 -110zM868 1284h-221l-137 174l-135 -174h-219l235 295h244z" />
    <glyph glyph-name="lacute.sc" horiz-adv-x="778" 
d="M123 0v1194h328v-903h317v-291h-645zM621 1579l-230 -295h-221l184 295h267z" />
    <glyph glyph-name="zacute.sc" horiz-adv-x="825" 
d="M45 0v242l350 676h-319v276h696v-238l-348 -671h348v-285h-727zM752 1579l-230 -295h-221l184 295h267z" />
    <glyph glyph-name="six.onum" horiz-adv-x="1105" 
d="M639 1513l283 -153q-254 -216 -369 -406l2 -2q10 6 41.5 10.5t52.5 4.5q124 0 211 -63.5t127.5 -169t40.5 -242.5q0 -244 -131 -383.5t-340 -139.5q-214 0 -346.5 137t-132.5 379q0 142 46 285t130 275t176 242.5t209 225.5zM713 496q0 107 -42.5 173t-115.5 66
q-69 0 -115.5 -68t-46.5 -171q0 -104 45.5 -172t114.5 -68q71 0 115.5 68t44.5 172z" />
    <glyph glyph-name="k.sc" horiz-adv-x="1036" 
d="M1036 0h-358l-234 528h-4v-528h-317v1194h317v-467h4l224 467h348l-303 -547z" />
    <glyph glyph-name="tcommaaccent.sc" horiz-adv-x="751" 
d="M496 -92l-127 -383h-215l102 383h240zM532 924v-924h-313v924h-221v270h756v-270h-222z" />
    <glyph glyph-name="r.sc" horiz-adv-x="1007" 
d="M649 0l-155 457h-58v-457h-313v1194h409q189 0 297.5 -95t108.5 -274q0 -112 -48.5 -191.5t-113.5 -113.5l207 -520h-334zM516 926h-80v-236h76q52 0 88.5 30t36.5 91q0 115 -121 115z" />
    <glyph glyph-name="lslash.sc" horiz-adv-x="778" 
d="M123 334l-111 -86v291l111 84v571h328v-320l208 162v-288l-208 -162v-295h317v-291h-645v334z" />
    <glyph glyph-name="scaron.sc" horiz-adv-x="819" 
d="M614 854q-70 86 -157 86q-41 0 -66.5 -22t-25.5 -70q0 -38 28.5 -64t104.5 -63q39 -18 70 -36t70 -50t64.5 -67.5t43.5 -88.5t18 -114q0 -187 -115 -292.5t-280 -105.5q-108 0 -205 41.5t-168 110.5l168 237q101 -98 194 -98q40 0 66.5 24.5t26.5 65.5q0 34 -22 61
t-49 42.5t-78 40.5q-11 5 -17 8q-38 17 -68 35t-62 47.5t-53.5 63.5t-35 83.5t-13.5 108.5q0 79 23.5 144.5t62 110t90 75.5t106 45t111.5 14q102 0 190.5 -35t149.5 -102zM100 1579h222l137 -174l135 174h219l-235 -295h-244z" />
    <glyph glyph-name="icircumflex.sc" horiz-adv-x="571" 
d="M123 0v1194h326v-1194h-326zM643 1284h-221l-137 174l-135 -174h-220l236 295h244z" />
    <glyph glyph-name="itilde.sc" horiz-adv-x="571" 
d="M123 0v1194h326v-1194h-326zM598 1554q-5 -119 -53 -188.5t-129 -69.5q-67 0 -142 47q-45 28 -66.5 37t-47.5 9q-58 0 -68 -91h-119q6 115 54.5 186.5t128.5 71.5q64 0 143 -49q45 -27 68 -36t49 -9q30 0 44.5 21t20.5 71h117z" />
    <glyph glyph-name="s.sc" horiz-adv-x="819" 
d="M614 854q-70 86 -157 86q-41 0 -66.5 -22t-25.5 -70q0 -38 28.5 -64t104.5 -63q39 -18 70 -36t70 -50t64.5 -67.5t43.5 -88.5t18 -114q0 -187 -115 -292.5t-280 -105.5q-108 0 -205 41.5t-168 110.5l168 237q101 -98 194 -98q40 0 66.5 24.5t26.5 65.5q0 34 -22 61
t-49 42.5t-78 40.5q-11 5 -17 8q-38 17 -68 35t-62 47.5t-53.5 63.5t-35 83.5t-13.5 108.5q0 79 23.5 144.5t62 110t90 75.5t106 45t111.5 14q102 0 190.5 -35t149.5 -102z" />
    <glyph glyph-name="hbar.sc" horiz-adv-x="1116" 
d="M672 0v451h-228v-451h-321v1194h321v-190h228v190h321v-1194h-321zM444 719h228v121h-228v-121z" />
    <glyph glyph-name="y.sc" horiz-adv-x="913" 
d="M459 748h6l121 446h344l-316 -780v-414h-315v414l-315 780h350z" />
    <glyph glyph-name="kcommaaccent.sc" horiz-adv-x="1036" 
d="M686 -92l-127 -383h-215l102 383h240zM1036 0h-358l-234 528h-4v-528h-317v1194h317v-467h4l224 467h348l-303 -547z" />
    <glyph glyph-name="zdotaccent.sc" horiz-adv-x="825" 
d="M45 0v242l350 676h-319v276h696v-238l-348 -671h348v-285h-727zM606 1481q0 -79 -50 -133t-126 -54q-77 0 -126.5 54t-49.5 133q0 78 49.5 133t126.5 55t126.5 -55t49.5 -133z" />
    <glyph glyph-name="exclam.sc" horiz-adv-x="581" 
d="M133 432v762h316v-762h-316zM469 158q0 -75 -51.5 -125.5t-126.5 -50.5q-76 0 -127 50.5t-51 125.5q0 74 51 126t127 52q75 0 126.5 -52t51.5 -126z" />
    <glyph glyph-name="a.sc" horiz-adv-x="972" 
d="M657 0l-47 209h-258l-43 -209h-313l303 1194h381l297 -1194h-320zM481 870l-82 -413h160l-74 413h-4z" />
    <glyph glyph-name="h.sc" horiz-adv-x="1116" 
d="M672 0v479h-228v-479h-321v1194h321v-434h228v434h321v-1194h-321z" />
    <glyph glyph-name="m.sc" horiz-adv-x="1431" 
d="M1309 0h-295l10 760h-6l-199 -760h-221l-192 760h-5l9 -760h-287v1194h424l168 -723h4l145 723h445v-1194z" />
    <glyph glyph-name="tilde.sc" 
d="M594 1554q-5 -119 -53 -188.5t-129 -69.5q-67 0 -142 47q-45 28 -66.5 37t-47.5 9q-58 0 -68 -91h-119q6 115 54.5 186.5t128.5 71.5q64 0 143 -49q45 -27 68 -36t49 -9q30 0 44.5 21t20.5 71h117z" />
    <glyph glyph-name="grave.cap" 
d="M0 1860h266l185 -295h-222z" />
    <glyph glyph-name="seven.onum" horiz-adv-x="983" 
d="M938 1196v-258q-273 -680 -477 -1270q-34 7 -144 31t-167 37q219 597 456 1171h-514v289h846z" />
    <glyph glyph-name="tbar.sc" horiz-adv-x="751" 
d="M532 924v-187h140v-184h-140v-553h-313v553h-139v184h139v187h-221v270h756v-270h-222z" />
    <glyph glyph-name="acute.cap" 
d="M561 1860l-229 -295h-221l184 295h266z" />
    <glyph glyph-name="wcircumflex.sc" horiz-adv-x="1531" 
d="M1520 1194l-263 -1194h-352l-147 686h-4l-144 -686h-340l-258 1194h355l114 -745h4l129 745h301l138 -745h4l110 745h353zM1122 1284h-221l-137 174l-135 -174h-219l235 295h244z" />
    <glyph glyph-name="ebreve.sc" horiz-adv-x="851" 
d="M123 0v1194h631v-276h-320v-177h293v-262h-293v-196h340v-283h-651zM745 1573q-6 -78 -32.5 -135t-69.5 -88.5t-93.5 -46.5t-111.5 -15q-58 0 -108 15t-93 46.5t-70 88.5t-32 135h160q8 -60 53 -90q42 -25 90 -25q58 0 99 27t49 88h159z" />
    <glyph glyph-name="ncommaaccent.sc" horiz-adv-x="1114" 
d="M702 -92l-127 -383h-215l103 383h239zM991 0h-327l-256 668h-9l11 -668h-287v1194h330l266 -664h6l-8 664h274v-1194z" />
    <glyph glyph-name="three.onum" horiz-adv-x="997" 
d="M164 356l-47 238q147 107 399 309v8h-414v285h783v-307q-196 -168 -357 -285v-6q24 4 41 4q70 0 133.5 -26t114 -75.5t81 -128.5t30.5 -177q0 -110 -33 -199.5t-88 -148.5t-130 -99.5t-155.5 -58t-167.5 -17.5q-136 0 -245 23l30 289q87 -21 187 -21q123 0 200.5 58.5
t77.5 171.5q0 96 -65.5 146t-173.5 50q-104 0 -201 -33z" />
    <glyph glyph-name="one.onum" horiz-adv-x="903" 
d="M379 0v819l-160 -114l-147 239l352 250h272v-1194h-317z" />
    <glyph glyph-name="ntilde.sc" horiz-adv-x="1114" 
d="M991 0h-327l-256 668h-9l11 -668h-287v1194h330l266 -664h6l-8 664h274v-1194zM870 1554q-5 -119 -53 -188.5t-129 -69.5q-66 0 -141 47q-45 28 -67 37t-48 9q-57 0 -67 -91h-119q6 116 54 187t128 71q64 0 143 -49q45 -27 68 -36t49 -9q30 0 45 21t21 71h116z" />
    <glyph glyph-name="w.sc" horiz-adv-x="1531" 
d="M1520 1194l-263 -1194h-352l-147 686h-4l-144 -686h-340l-258 1194h355l114 -745h4l129 745h301l138 -745h4l110 745h353z" />
    <glyph glyph-name="acute.sc" 
d="M561 1579l-229 -295h-221l184 295h266z" />
    <glyph glyph-name="four.sc" horiz-adv-x="978" 
d="M782 231v-231h-290v231h-439v248l344 715h385v-700h121v-263h-121zM496 842h-7l-151 -348h158v348z" />
    <glyph glyph-name="Euro.sc" horiz-adv-x="978" 
d="M860 928q-77 35 -164 35q-63 0 -110.5 -31.5t-67.5 -91.5h334l-57 -203h-318q-2 -16 -2 -39q0 -19 2 -39h314l-52 -199h-229q15 -54 64.5 -86t111.5 -32q90 0 176 45l39 -269q-93 -51 -244 -51q-182 0 -304.5 105t-164.5 288h-141l53 199h68q-2 20 -2 39q0 23 2 39h-119
l53 203h91q50 189 180 288t319 99q57 0 124.5 -13t111.5 -34z" />
    <glyph glyph-name="dotaccent.cap" 
d="M457 1741q0 -79 -50 -133t-126 -54q-77 0 -127 54t-50 133q0 78 50 133t127 55t126.5 -55t49.5 -133z" />
    <glyph glyph-name="aogonek.sc" horiz-adv-x="972" 
d="M893 -401q-108 -82 -227 -82q-39 0 -74.5 9.5t-67.5 30t-51.5 58.5t-19.5 88q0 45 17 87t50.5 81t62.5 65.5t74 63.5l-47 209h-258l-43 -209h-313l303 1194h381l297 -1194h-121q-110 -94 -153.5 -147.5t-43.5 -98.5q0 -63 60 -63q58 0 110 43zM481 870l-82 -413h160
l-74 413h-4z" />
    <glyph glyph-name="five.onum" horiz-adv-x="989" 
d="M102 -309l23 286q114 -16 170 -16q134 0 212.5 58t78.5 180q0 102 -69.5 153t-178.5 51q-118 0 -221 -32l51 825h723v-289h-447l-20 -264q46 8 74 8q185 0 298 -115t113 -327q0 -116 -33.5 -209t-89 -153t-131 -100.5t-154.5 -57.5t-165 -17q-98 0 -234 19z" />
    <glyph glyph-name="florin.sc" horiz-adv-x="978" 
d="M844 918q-34 34 -84 34q-76 0 -94 -104l-17 -90h166v-236h-207l-82 -456q-23 -138 -103.5 -221t-221.5 -83q-101 0 -181 27l72 268q34 -22 64 -22q15 0 26.5 6.5t18.5 14t13 26t8 29t7 36.5l64 375h-152v236h178q8 46 14 76t16.5 74t21.5 73t28.5 65.5t37 60t48 48.5
t61.5 39.5t76 23.5t93 9q118 0 213 -53z" />
    <glyph glyph-name="atilde.sc" horiz-adv-x="972" 
d="M657 0l-47 209h-258l-43 -209h-313l303 1194h381l297 -1194h-320zM481 870l-82 -413h160l-74 413h-4zM797 1554q-5 -119 -53.5 -188.5t-129.5 -69.5q-66 0 -141 47q-45 28 -67 37t-48 9q-57 0 -67 -91h-119q6 116 54 187t128 71q65 0 144 -49q46 -27 68.5 -36t47.5 -9
q30 0 45 21t21 71h117z" />
    <glyph glyph-name="dollar.sc" horiz-adv-x="978" 
d="M408 0q-186 15 -316 141l160 228q98 -95 186 -95q38 0 63 23t25 63q0 25 -9.5 44t-35 37.5t-42.5 28t-60 30.5l-12 6q-46 21 -80 44.5t-68.5 61t-53 92t-18.5 123.5q0 148 78 241t193 120v137h153v-131q178 -16 275 -125l-164 -225q-66 82 -150 82q-39 0 -63.5 -21
t-24.5 -67q0 -37 27 -61.5t100 -59.5q38 -18 66.5 -35t66 -47.5t62 -64.5t42 -84.5t17.5 -108.5q0 -145 -74 -242t-190 -129v-143h-153v137z" />
    <glyph glyph-name="ccedilla.sc" horiz-adv-x="921" 
d="M768 -285q0 -57 -27 -98t-71.5 -61.5t-89 -29.5t-91.5 -9q-130 0 -225 45l49 127q68 -35 158 -35q98 0 98 65q0 29 -25.5 42.5t-60.5 13.5q-43 0 -90 -19l-63 58l119 168q-175 41 -278 209t-103 405q0 182 60 325t172 224.5t257 81.5q119 0 208.5 -40.5t139.5 -103.5
l-178 -231q-48 76 -149 76q-87 0 -139 -90t-52 -242q0 -149 52 -237.5t139 -88.5q99 0 145 90l186 -223q-56 -71 -127.5 -114.5t-171.5 -53.5l-71 -94q16 4 47 4q33 0 62.5 -7.5t58 -25t45 -51t16.5 -80.5z" />
    <glyph glyph-name="gbreve.sc" horiz-adv-x="1024" 
d="M571 -33q-156 0 -271 82.5t-173.5 224t-58.5 322.5q0 182 59 325t170.5 224.5t257.5 81.5q236 0 365 -160l-179 -233q-40 53 -77.5 73.5t-88.5 20.5q-89 0 -138.5 -90.5t-49.5 -241.5t47.5 -243.5t134.5 -92.5q48 0 72 12v174h-129v275h414v-647q-142 -107 -355 -107z
M864 1573q-6 -78 -32.5 -135t-69.5 -88.5t-93.5 -46.5t-111.5 -15q-58 0 -108 15t-93 46.5t-70 88.5t-32 135h160q8 -60 53 -90q42 -25 90 -25q58 0 99 27t49 88h159z" />
    <glyph glyph-name="lcaron.sc" horiz-adv-x="868" 
d="M881 1194l-127 -383h-215l102 383h240zM123 0v1194h328v-903h317v-291h-645z" />
    <glyph glyph-name="racute.sc" horiz-adv-x="1007" 
d="M649 0l-155 457h-58v-457h-313v1194h409q189 0 297.5 -95t108.5 -274q0 -112 -48.5 -191.5t-113.5 -113.5l207 -520h-334zM516 926h-80v-236h76q52 0 88.5 30t36.5 91q0 115 -121 115zM807 1579l-229 -295h-222l185 295h266z" />
    <glyph glyph-name="dcroat.sc" horiz-adv-x="1075" 
d="M123 512h-94v205h94v477h364q133 0 233.5 -43t163 -123.5t93.5 -189.5t31 -246q0 -134 -31 -241.5t-94 -186.5t-163.5 -121.5t-232.5 -42.5h-364v512zM451 717h147v-205h-147v-236h38q84 0 140.5 81t56.5 235q0 161 -56.5 243.5t-140.5 82.5h-38v-201z" />
    <glyph glyph-name="four.onum" horiz-adv-x="1128" 
d="M635 283v411h295v-411h151v-275h-149v-336h-301v336h-561v303l430 916h323l-444 -944h256z" />
    <glyph glyph-name="tilde.cap" 
d="M594 1835q-5 -119 -53 -188.5t-129 -69.5q-67 0 -142 47q-44 28 -66 36.5t-48 8.5q-59 0 -68 -90h-119q6 115 54.5 186.5t128.5 71.5q64 0 143 -49q45 -27 68 -36t49 -9q30 0 44.5 21t20.5 71h117z" />
    <glyph glyph-name="utilde.sc" horiz-adv-x="1073" 
d="M532 -33q-112 0 -196 38t-133.5 105.5t-73 152t-23.5 186.5v745h326v-719q0 -103 25.5 -153t81.5 -50q58 0 83 49.5t25 153.5v719h320v-745q0 -101 -24.5 -185.5t-75 -152.5t-136 -106t-199.5 -38zM852 1554q-5 -119 -53 -188.5t-129 -69.5q-67 0 -142 47
q-45 28 -66.5 37t-47.5 9q-58 0 -68 -91h-119q6 115 54.5 186.5t128.5 71.5q64 0 143 -49q45 -27 68 -36t49 -9q30 0 44.5 21t20.5 71h117z" />
    <glyph glyph-name="acircumflex.sc" horiz-adv-x="972" 
d="M657 0l-47 209h-258l-43 -209h-313l303 1194h381l297 -1194h-320zM481 870l-82 -413h160l-74 413h-4zM842 1284h-221l-138 174l-135 -174h-219l236 295h243z" />
    <glyph glyph-name="fi.sc" horiz-adv-x="1380" 
d="M932 0v1194h325v-1194h-325zM449 909v-182h284v-270h-284v-457h-326v1194h635v-285h-309z" />
    <glyph glyph-name="ldot.sc" horiz-adv-x="878" 
d="M123 0v1194h328v-903h317v-291h-645zM887 702q0 -79 -50 -132.5t-126 -53.5q-77 0 -126.5 53.5t-49.5 132.5q0 78 50 133.5t126 55.5t126 -55.5t50 -133.5z" />
    <glyph glyph-name="zero.sc" horiz-adv-x="978" 
d="M911 596q0 -90 -10 -171.5t-39 -167.5t-74.5 -148t-122 -102t-176.5 -40q-73 0 -133.5 21t-103 55.5t-76 85t-53.5 104.5t-32.5 118.5t-17.5 123t-5 121.5q0 75 7 143.5t24 142.5t48.5 133.5t76.5 108.5t112.5 76t152.5 27q100 0 176.5 -40t122 -102t74.5 -148.5
t39 -168.5t10 -172zM600 596q0 61 -4.5 114.5t-15.5 109t-34.5 88t-56.5 32.5q-112 0 -112 -344q0 -338 112 -338q33 0 56.5 31.5t34.5 86t15.5 107t4.5 113.5z" />
    <glyph glyph-name="b.sc" horiz-adv-x="1026" 
d="M522 928h-96v-197h98q46 0 78.5 25.5t32.5 77.5q0 94 -113 94zM532 494h-106v-228h111q53 0 85.5 27.5t32.5 81.5q0 60 -36.5 89.5t-86.5 29.5zM776 625v-4q87 -29 131.5 -99t44.5 -172q0 -76 -22.5 -137t-59 -100t-86.5 -65t-102.5 -37t-108.5 -11h-450v1194h412
q42 0 82.5 -5.5t85.5 -18.5t82.5 -37.5t68.5 -59t48.5 -86.5t17.5 -117q0 -168 -144 -245z" />
    <glyph glyph-name="caron.cap" 
d="M-76 1860h221l138 -174l135 174h219l-236 -295h-243z" />
    <glyph glyph-name="two.sc" horiz-adv-x="978" 
d="M694 479l-196 -205h364v-274h-760v266l371 402q86 92 86 180q0 45 -20 69.5t-54 24.5q-83 0 -96 -149l-303 24q19 203 124.5 306.5t289.5 103.5q182 0 282.5 -101.5t100.5 -275.5q0 -56 -15.5 -109t-46.5 -101.5t-58.5 -82.5t-68.5 -78z" />
    <glyph glyph-name="dotaccent.sc" 
d="M457 1481q0 -79 -50 -133t-126 -54q-77 0 -127 54t-50 133q0 78 50 133t127 55t126.5 -55t49.5 -133z" />
    <glyph glyph-name="yen.sc" horiz-adv-x="978" 
d="M741 741h121v-213h-225v-88h225v-209h-225v-231h-318v231h-217v209h217v88h-217v213h125l-204 453h331l131 -430h4l125 430h328z" />
    <glyph glyph-name="scedilla.sc" horiz-adv-x="819" 
d="M614 854q-70 86 -157 86q-41 0 -66.5 -22t-25.5 -70q0 -38 28.5 -64t104.5 -63q39 -18 70 -36t70 -50t64.5 -67.5t43.5 -88.5t18 -114q0 -162 -87.5 -263.5t-223.5 -126.5l-76 -100q16 4 47 4q33 0 62.5 -7.5t58 -25t45 -51t16.5 -80.5q0 -57 -27 -98t-71.5 -61.5
t-88.5 -29.5t-91 -9q-131 0 -226 45l50 127q68 -35 157 -35q99 0 99 65q0 29 -25.5 42.5t-60.5 13.5q-44 0 -91 -19l-63 58l115 161q-170 27 -287 144l168 237q101 -98 194 -98q40 0 66.5 24.5t26.5 65.5q0 34 -22 61t-49 42.5t-78 40.5q-11 5 -17 8q-38 17 -68 35t-62 47.5
t-53.5 63.5t-35 83.5t-13.5 108.5q0 79 23.5 144.5t62 110t90 75.5t106 45t111.5 14q102 0 190.5 -35t149.5 -102z" />
    <glyph glyph-name="cent.sc" horiz-adv-x="978" 
d="M629 1085q126 -16 202 -100l-129 -246q-42 62 -104 62t-100.5 -70.5t-38.5 -193.5q0 -124 38.5 -193.5t106.5 -69.5q63 0 103 64l129 -244q-77 -90 -207 -108v-115h-131v117q-164 26 -258 176q-90 146 -90 373q0 222 91.5 369t256.5 177v111h131v-109z" />
    <glyph glyph-name="uogonek.sc" horiz-adv-x="1073" 
d="M748 -401q-108 -82 -228 -82q-39 0 -74.5 9.5t-67.5 30t-51.5 58.5t-19.5 88q0 76 45 139.5t123 128.5q-97 9 -169.5 50t-115.5 106.5t-63.5 146t-20.5 175.5v745h326v-719q0 -103 25.5 -153t81.5 -50q58 0 83 49.5t25 153.5v719h320v-745q0 -107 -26.5 -195.5t-87 -158
t-151.5 -101.5q-105 -90 -146.5 -142.5t-41.5 -97.5q0 -63 59 -63t111 43z" />
    <glyph glyph-name="emacron.sc" horiz-adv-x="851" 
d="M123 0v1194h631v-276h-320v-177h293v-262h-293v-196h340v-283h-651zM739 1354h-602v157h602v-157z" />
    <glyph glyph-name="rcaron.sc" horiz-adv-x="1007" 
d="M649 0l-155 457h-58v-457h-313v1194h409q189 0 297.5 -95t108.5 -274q0 -112 -48.5 -191.5t-113.5 -113.5l207 -520h-334zM516 926h-80v-236h76q52 0 88.5 30t36.5 91q0 115 -121 115zM166 1579h221l137 -174l135 174h220l-236 -295h-244z" />
    <glyph glyph-name="eth.sc" horiz-adv-x="1075" 
d="M123 512h-94v205h94v477h364q133 0 233.5 -43t163 -123.5t93.5 -189.5t31 -246q0 -134 -31 -241.5t-94 -186.5t-163.5 -121.5t-232.5 -42.5h-364v512zM451 717h147v-205h-147v-236h38q84 0 140.5 81t56.5 235q0 161 -56.5 243.5t-140.5 82.5h-38v-201z" />
    <glyph glyph-name="ampersand.sc" horiz-adv-x="1089" 
d="M729 0l-55 78q-107 -111 -260 -111q-169 0 -267 96t-98 269q0 225 191 334q-82 110 -82 239q0 151 93 236.5t243 85.5q143 0 231 -81.5t88 -227.5q0 -101 -60.5 -180t-152.5 -134l74 -100l67 143h299l-188 -342l238 -305h-361zM498 1006q-32 0 -52 -28.5t-20 -70.5
q0 -66 47 -131q38 20 64 56t26 75q0 42 -16.5 70.5t-48.5 28.5zM379 475q-23 -18 -38 -50.5t-15 -66.5q0 -64 28.5 -98.5t77.5 -34.5q61 0 86 51z" />
    <glyph glyph-name="eight.onum" horiz-adv-x="1085" 
d="M1016 408q0 -191 -130.5 -315t-346.5 -124q-213 0 -341 124t-128 315q0 138 65.5 229t161.5 125v4q-96 39 -147.5 120t-51.5 197q0 78 28 148.5t81 126.5t139 89.5t193 33.5q108 0 195 -33.5t141 -89.5t83 -127t29 -148q0 -115 -51 -197t-145 -120v-4q97 -37 161 -126.5
t64 -227.5zM674 1061q0 82 -35.5 133t-99.5 51q-63 0 -98 -51t-35 -133q0 -77 37 -133t96 -56q61 0 98 56t37 133zM686 426q0 93 -40.5 151t-106.5 58q-65 0 -106.5 -58.5t-41.5 -150.5q0 -91 40 -149t108 -58q69 0 108 57.5t39 149.5z" />
    <glyph glyph-name="ncaron.sc" horiz-adv-x="1114" 
d="M991 0h-327l-256 668h-9l11 -668h-287v1194h330l266 -664h6l-8 664h274v-1194zM207 1579h221l137 -174l135 174h220l-236 -295h-244z" />
    <glyph glyph-name="x.sc" horiz-adv-x="983" 
d="M641 0l-149 367l-148 -367h-348l301 629l-268 565h340l129 -322l133 322h332l-269 -559l293 -635h-346z" />
    <glyph glyph-name="breve.sc" 
d="M586 1573q-6 -78 -32.5 -135t-69.5 -88.5t-93.5 -46.5t-111.5 -15q-58 0 -108 15t-93.5 46.5t-70.5 88.5t-32 135h160q8 -60 53 -90q42 -25 91 -25q131 0 147 115h160z" />
    <glyph glyph-name="fl.sc" horiz-adv-x="1587" 
d="M932 0v1194h328v-903h317v-291h-645zM449 909v-182h284v-270h-284v-457h-326v1194h635v-285h-309z" />
    <glyph glyph-name="dcaron.sc" horiz-adv-x="1075" 
d="M123 0v1194h364q133 0 233.5 -43t163 -123.5t93.5 -189.5t31 -246q0 -134 -31 -241.5t-94 -186.5t-163.5 -121.5t-232.5 -42.5h-364zM451 918v-642h38q84 0 140.5 81t56.5 235q0 161 -56.5 243.5t-140.5 82.5h-38zM154 1579h221l137 -174l135 174h219l-235 -295h-244z
" />
    <glyph glyph-name="agrave.sc" horiz-adv-x="972" 
d="M657 0l-47 209h-258l-43 -209h-313l303 1194h381l297 -1194h-320zM481 870l-82 -413h160l-74 413h-4zM170 1579h266l185 -295h-222z" />
    <glyph glyph-name="rcommaaccent.sc" horiz-adv-x="1007" 
d="M672 -92l-127 -383h-215l102 383h240zM649 0l-155 457h-58v-457h-313v1194h409q189 0 297.5 -95t108.5 -274q0 -112 -48.5 -191.5t-113.5 -113.5l207 -520h-334zM516 926h-80v-236h76q52 0 88.5 30t36.5 91q0 115 -121 115z" />
    <glyph glyph-name="u.sc" horiz-adv-x="1073" 
d="M532 -33q-112 0 -196 38t-133.5 105.5t-73 152t-23.5 186.5v745h326v-719q0 -103 25.5 -153t81.5 -50q58 0 83 49.5t25 153.5v719h320v-745q0 -101 -24.5 -185.5t-75 -152.5t-136 -106t-199.5 -38z" />
    <glyph glyph-name="uacute.sc" horiz-adv-x="1073" 
d="M532 -33q-112 0 -196 38t-133.5 105.5t-73 152t-23.5 186.5v745h326v-719q0 -103 25.5 -153t81.5 -50q58 0 83 49.5t25 153.5v719h320v-745q0 -101 -24.5 -185.5t-75 -152.5t-136 -106t-199.5 -38zM872 1579l-229 -295h-221l184 295h266z" />
    <glyph glyph-name="zero.onum" horiz-adv-x="1130" 
d="M565 1227q227 0 357.5 -173t130.5 -454q0 -184 -57.5 -326.5t-169 -224.5t-261.5 -82t-261.5 82t-168.5 224.5t-57 326.5q0 185 57 326t168 221t262 80zM565 274q73 0 116.5 87.5t43.5 238.5q0 152 -43.5 238t-116.5 86t-116 -86t-43 -238q0 -151 43 -238.5t116 -87.5z
" />
    <glyph glyph-name="eacute.sc" horiz-adv-x="851" 
d="M123 0v1194h631v-276h-320v-177h293v-262h-293v-196h340v-283h-651zM774 1579l-229 -295h-221l184 295h266z" />
    <glyph glyph-name="dotlessj" horiz-adv-x="612" 
d="M446 -72q0 -420 -358 -420q-76 0 -143 13l16 280q27 -10 57 -10q60 0 81.5 41.5t21.5 124.5v1114h325v-1143z" />
    <glyph glyph-name="eight.sc" horiz-adv-x="978" 
d="M907 330q0 -159 -114.5 -261t-303.5 -102q-188 0 -302.5 102t-114.5 261q0 115 54 191t130 108v4q-75 33 -117.5 100.5t-42.5 163.5q0 136 104.5 233t288.5 97q185 0 289.5 -97t104.5 -233q0 -94 -42.5 -162.5t-115.5 -101.5v-4q76 -36 129 -110.5t53 -188.5zM580 864
q0 54 -24 85.5t-67 31.5q-45 0 -68.5 -31.5t-23.5 -85.5q0 -52 25.5 -88.5t66.5 -36.5q40 0 65.5 37t25.5 88zM592 362q0 63 -28.5 103.5t-74.5 40.5q-47 0 -76.5 -40.5t-29.5 -103.5q0 -60 28.5 -98.5t77.5 -38.5q46 0 74.5 38.5t28.5 98.5z" />
    <glyph glyph-name="dieresis.sc" 
d="M244 1462q0 -71 -44 -119.5t-108 -48.5q-67 0 -109 48t-42 120q0 70 42.5 119t108.5 49q65 0 108.5 -49t43.5 -119zM621 1462q0 -71 -44 -119.5t-108 -48.5q-67 0 -109.5 48.5t-42.5 119.5q0 70 43 119t109 49q65 0 108.5 -49t43.5 -119z" />
    <glyph glyph-name="edieresis.sc" horiz-adv-x="851" 
d="M123 0v1194h631v-276h-320v-177h293v-262h-293v-196h340v-283h-651zM410 1462q0 -71 -44 -119.5t-108 -48.5q-67 0 -109.5 48.5t-42.5 119.5q0 70 43 119t109 49q65 0 108.5 -49t43.5 -119zM786 1462q0 -71 -43.5 -119.5t-107.5 -48.5q-67 0 -109.5 48.5t-42.5 119.5
q0 70 43 119t109 49q65 0 108 -49t43 -119z" />
    <glyph glyph-name="caron.alt" 
d="M469 1450l-127 -383h-215l102 383h240z" />
    <glyph glyph-name="amacron.sc" horiz-adv-x="972" 
d="M657 0l-47 209h-258l-43 -209h-313l303 1194h381l297 -1194h-320zM481 870l-82 -413h160l-74 413h-4zM786 1354h-602v157h602v-157z" />
    <glyph glyph-name="ccircumflex.sc" horiz-adv-x="921" 
d="M557 -33q-145 0 -257.5 82.5t-172 225t-59.5 321.5q0 182 60 325t172 224.5t257 81.5q119 0 208.5 -40.5t139.5 -103.5l-178 -231q-48 76 -149 76q-87 0 -139 -90t-52 -242q0 -149 52 -237.5t139 -88.5q99 0 145 90l186 -223q-64 -81 -146.5 -125.5t-205.5 -44.5z
M920 1284h-222l-137 174l-135 -174h-219l235 295h244z" />
    <glyph glyph-name="g.sc" horiz-adv-x="1024" 
d="M571 -33q-156 0 -271 82.5t-173.5 224t-58.5 322.5q0 182 59 325t170.5 224.5t257.5 81.5q236 0 365 -160l-179 -233q-40 53 -77.5 73.5t-88.5 20.5q-89 0 -138.5 -90.5t-49.5 -241.5t47.5 -243.5t134.5 -92.5q48 0 72 12v174h-129v275h414v-647q-142 -107 -355 -107z
" />
    <glyph glyph-name="ecaron.sc" horiz-adv-x="851" 
d="M123 0v1194h631v-276h-320v-177h293v-262h-293v-196h340v-283h-651zM86 1579h221l137 -174l136 174h219l-236 -295h-244z" />
    <glyph glyph-name="eogonek.sc" horiz-adv-x="851" 
d="M123 0v1194h631v-276h-320v-177h293v-262h-293v-196h340v-283h-72q-110 -93 -153 -147t-43 -99q0 -63 59 -63t111 43l63 -135q-108 -82 -227 -82q-39 0 -74.5 9.5t-67.5 30t-51.5 58.5t-19.5 88q0 45 17 86.5t51 81t62.5 66t74.5 63.5h-381z" />
    <glyph glyph-name="lcommaaccent.sc" horiz-adv-x="778" 
d="M584 -92l-127 -383h-215l102 383h240zM123 0v1194h328v-903h317v-291h-645z" />
    <glyph glyph-name="ae.sc" horiz-adv-x="1267" 
d="M557 0v213h-205l-65 -213h-342l411 1194h815v-276h-311v-177h283v-262h-283v-196h330v-283h-633zM557 918h-6l-133 -453h139v453z" />
    <glyph glyph-name="ccaron.sc" horiz-adv-x="921" 
d="M557 -33q-145 0 -257.5 82.5t-172 225t-59.5 321.5q0 182 60 325t172 224.5t257 81.5q119 0 208.5 -40.5t139.5 -103.5l-178 -231q-48 76 -149 76q-87 0 -139 -90t-52 -242q0 -149 52 -237.5t139 -88.5q99 0 145 90l186 -223q-64 -81 -146.5 -125.5t-205.5 -44.5z
M209 1579h221l137 -174l135 174h220l-236 -295h-244z" />
    <glyph glyph-name="v.sc" horiz-adv-x="978" 
d="M987 1194l-291 -1194h-411l-293 1194h348l158 -817h8l149 817h332z" />
    <glyph glyph-name="thorn.sc" horiz-adv-x="948" 
d="M539 231h-97v-231h-319v1194h319v-176h86q72 0 138.5 -21t125 -65t93.5 -123t35 -184q0 -98 -32.5 -175.5t-87 -124t-121.5 -70.5t-140 -24zM510 748h-68v-256h68q45 0 75.5 32.5t30.5 93.5q0 64 -30 97t-76 33z" />
    <glyph glyph-name="ring.cap" 
d="M489 1751q0 -97 -57.5 -160t-150.5 -63q-92 0 -148.5 63t-56.5 160t56.5 160t148.5 63q93 0 150.5 -63t57.5 -160zM391 1751q0 57 -29 95t-81 38t-79.5 -38t-27.5 -95t27.5 -95t79.5 -38t81 38t29 95z" />
    <glyph glyph-name="e.sc" horiz-adv-x="851" 
d="M123 0v1194h631v-276h-320v-177h293v-262h-293v-196h340v-283h-651z" />
    <glyph glyph-name="abreve.sc" horiz-adv-x="972" 
d="M657 0l-47 209h-258l-43 -209h-313l303 1194h381l297 -1194h-320zM481 870l-82 -413h160l-74 413h-4zM788 1573q-6 -78 -32.5 -135t-69.5 -88.5t-93.5 -46.5t-111.5 -15q-58 0 -108 15t-93 46.5t-70 88.5t-32 135h160q8 -60 53 -90q42 -25 90 -25q58 0 99 27t49 88h159z
" />
    <glyph glyph-name="adieresis.sc" horiz-adv-x="972" 
d="M657 0l-47 209h-258l-43 -209h-313l303 1194h381l297 -1194h-320zM481 870l-82 -413h160l-74 413h-4zM449 1462q0 -71 -44 -119.5t-108 -48.5q-67 0 -109.5 48.5t-42.5 119.5q0 70 43 119t109 49q65 0 108.5 -49t43.5 -119zM825 1462q0 -71 -43.5 -119.5t-107.5 -48.5
q-67 0 -109.5 48.5t-42.5 119.5q0 70 43 119t109 49q65 0 108 -49t43 -119z" />
    <glyph glyph-name="five.sc" horiz-adv-x="978" 
d="M467 -33q-158 0 -265.5 91t-135.5 245l278 82q9 -68 41 -105.5t74 -37.5q44 0 71 37t27 104q0 78 -37.5 119t-111.5 41q-105 0 -267 -62l29 713h657v-276h-381l-6 -136q23 6 66 6q170 0 267 -110.5t97 -286.5q0 -205 -113 -314.5t-290 -109.5z" />
    <glyph glyph-name="ecircumflex.sc" horiz-adv-x="851" 
d="M123 0v1194h631v-276h-320v-177h293v-262h-293v-196h340v-283h-651zM795 1284h-222l-137 174l-135 -174h-219l235 295h244z" />
    <glyph glyph-name="circumflex.cap" 
d="M637 1565h-221l-137 174l-136 -174h-219l236 295h243z" />
    <glyph glyph-name="commaaccent" 
d="M449 -92l-127 -383h-216l103 383h240z" />
    <glyph glyph-name="cacute.sc" horiz-adv-x="921" 
d="M557 -33q-145 0 -257.5 82.5t-172 225t-59.5 321.5q0 182 60 325t172 224.5t257 81.5q119 0 208.5 -40.5t139.5 -103.5l-178 -231q-48 76 -149 76q-87 0 -139 -90t-52 -242q0 -149 52 -237.5t139 -88.5q99 0 145 90l186 -223q-64 -81 -146.5 -125.5t-205.5 -44.5z
M874 1579l-229 -295h-221l184 295h266z" />
    <glyph glyph-name="breve.cap" 
d="M586 1853q-6 -78 -32.5 -134.5t-69.5 -88.5t-93.5 -46.5t-111.5 -14.5q-46 0 -87 8.5t-79.5 29.5t-67 53t-47.5 81t-23 112h160q7 -59 49 -86.5t95 -27.5q131 0 147 114h160z" />
    <glyph glyph-name="edotaccent.sc" horiz-adv-x="851" 
d="M123 0v1194h631v-276h-320v-177h293v-262h-293v-196h340v-283h-651zM621 1481q0 -79 -50.5 -133t-126.5 -54q-77 0 -126.5 54t-49.5 133q0 78 49.5 133t126.5 55t127 -55t50 -133z" />
    <glyph glyph-name="six.sc" horiz-adv-x="978" 
d="M537 811q16 2 26 2q166 0 252 -113t86 -288q0 -204 -115.5 -324.5t-298.5 -120.5q-186 0 -302.5 119.5t-116.5 321.5q0 173 106 366l232 420h356l-227 -383h2zM485 578q-42 0 -74 -44.5t-32 -117.5q0 -76 31.5 -120t74.5 -44q42 0 72.5 44t30.5 120t-29.5 119t-73.5 43z
" />
    <glyph glyph-name="egrave.sc" horiz-adv-x="851" 
d="M123 0v1194h631v-276h-320v-177h293v-262h-293v-196h340v-283h-651zM121 1579h266l184 -295h-221z" />
    <glyph glyph-name="c.sc" horiz-adv-x="921" 
d="M557 -33q-145 0 -257.5 82.5t-172 225t-59.5 321.5q0 182 60 325t172 224.5t257 81.5q119 0 208.5 -40.5t139.5 -103.5l-178 -231q-48 76 -149 76q-87 0 -139 -90t-52 -242q0 -149 52 -237.5t139 -88.5q99 0 145 90l186 -223q-64 -81 -146.5 -125.5t-205.5 -44.5z" />
    <glyph glyph-name="circumflex.sc" 
d="M637 1284h-221l-137 174l-136 -174h-219l236 295h243z" />
    <glyph glyph-name="t.sc" horiz-adv-x="751" 
d="M532 924v-924h-313v924h-221v270h756v-270h-222z" />
    <glyph glyph-name="dieresis.cap" 
d="M244 1743q0 -71 -44 -119.5t-108 -48.5q-67 0 -109 48t-42 120q0 70 42.5 119t108.5 49q65 0 108.5 -49t43.5 -119zM621 1743q0 -71 -44 -119.5t-108 -48.5q-67 0 -109.5 48.5t-42.5 119.5q0 70 43 119t109 49q65 0 108.5 -49t43.5 -119z" />
    <glyph glyph-name="sacute.sc" horiz-adv-x="819" 
d="M614 854q-70 86 -157 86q-41 0 -66.5 -22t-25.5 -70q0 -38 28.5 -64t104.5 -63q39 -18 70 -36t70 -50t64.5 -67.5t43.5 -88.5t18 -114q0 -187 -115 -292.5t-280 -105.5q-108 0 -205 41.5t-168 110.5l168 237q101 -98 194 -98q40 0 66.5 24.5t26.5 65.5q0 34 -22 61
t-49 42.5t-78 40.5q-11 5 -17 8q-38 17 -68 35t-62 47.5t-53.5 63.5t-35 83.5t-13.5 108.5q0 79 23.5 144.5t62 110t90 75.5t106 45t111.5 14q102 0 190.5 -35t149.5 -102zM774 1579l-229 -295h-221l184 295h266z" />
    <glyph glyph-name="caron.sc" 
d="M-76 1579h221l138 -174l135 174h219l-236 -295h-243z" />
    <glyph glyph-name="d.sc" horiz-adv-x="1075" 
d="M123 0v1194h364q133 0 233.5 -43t163 -123.5t93.5 -189.5t31 -246q0 -134 -31 -241.5t-94 -186.5t-163.5 -121.5t-232.5 -42.5h-364zM451 918v-642h38q84 0 140.5 81t56.5 235q0 161 -56.5 243.5t-140.5 82.5h-38z" />
    <glyph glyph-name="cdotaccent.sc" horiz-adv-x="921" 
d="M557 -33q-145 0 -257.5 82.5t-172 225t-59.5 321.5q0 182 60 325t172 224.5t257 81.5q119 0 208.5 -40.5t139.5 -103.5l-178 -231q-48 76 -149 76q-87 0 -139 -90t-52 -242q0 -149 52 -237.5t139 -88.5q99 0 145 90l186 -223q-64 -81 -146.5 -125.5t-205.5 -44.5z
M737 1481q0 -79 -50 -133t-126 -54q-77 0 -126.5 54t-49.5 133q0 78 49.5 133t126.5 55t126.5 -55t49.5 -133z" />
    <glyph glyph-name="f.sc" horiz-adv-x="823" 
d="M449 909v-182h284v-270h-284v-457h-326v1194h635v-285h-309z" />
    <glyph glyph-name="commaaccent.alt" 
d="M131 1186l127 383h215l-102 -383h-240z" />
    <glyph glyph-name="tcaron.sc" horiz-adv-x="751" 
d="M532 924v-924h-313v924h-221v270h756v-270h-222zM18 1579h222l137 -174l135 174h219l-235 -295h-244z" />
    <glyph glyph-name="gdotaccent.sc" horiz-adv-x="1024" 
d="M571 -33q-156 0 -271 82.5t-173.5 224t-58.5 322.5q0 182 59 325t170.5 224.5t257.5 81.5q236 0 365 -160l-179 -233q-40 53 -77.5 73.5t-88.5 20.5q-89 0 -138.5 -90.5t-49.5 -241.5t47.5 -243.5t134.5 -92.5q48 0 72 12v174h-129v275h414v-647q-142 -107 -355 -107z
M737 1481q0 -79 -50 -133t-126 -54q-77 0 -126.5 54t-49.5 133q0 78 49.5 133t126.5 55t126.5 -55t49.5 -133z" />
    <glyph glyph-name="gcommaaccent.sc" horiz-adv-x="1024" 
d="M692 -92l-127 -383h-215l103 383h239zM571 -33q-156 0 -271 82.5t-173.5 224t-58.5 322.5q0 182 59 325t170.5 224.5t257.5 81.5q236 0 365 -160l-179 -233q-40 53 -77.5 73.5t-88.5 20.5q-89 0 -138.5 -90.5t-49.5 -241.5t47.5 -243.5t134.5 -92.5q48 0 72 12v174h-129
v275h414v-647q-142 -107 -355 -107z" />
    <glyph glyph-name="gcircumflex.sc" horiz-adv-x="1024" 
d="M571 -33q-156 0 -271 82.5t-173.5 224t-58.5 322.5q0 182 59 325t170.5 224.5t257.5 81.5q236 0 365 -160l-179 -233q-40 53 -77.5 73.5t-88.5 20.5q-89 0 -138.5 -90.5t-49.5 -241.5t47.5 -243.5t134.5 -92.5q48 0 72 12v174h-129v275h414v-647q-142 -107 -355 -107z
M911 1284h-221l-137 174l-135 -174h-219l235 295h244z" />
    </font>
</defs>
</svg>
